<svg width="24" height="24" viewBox="0 0 24 24" fill="none" xmlns="http://www.w3.org/2000/svg">
<path fill-rule="evenodd" clip-rule="evenodd" d="M1.58008 11.5859C1.58008 6.08594 6.08008 1.58594 11.5801 1.58594C17.0801 1.58594 21.5801 6.08594 21.5801 11.5859C21.5801 17.0859 17.0801 21.5859 11.5801 21.5859C6.08008 21.5859 1.58008 17.0859 1.58008 11.5859ZM11.0501 12.8759L15.1301 15.3859C15.4901 15.6059 15.9601 15.4959 16.1801 15.1459C16.4001 14.7859 16.2801 14.3159 15.9201 14.0959L12.0801 11.7859V7.33594C12.0801 6.92594 11.7401 6.58594 11.3301 6.58594C10.9201 6.58594 10.5801 6.92594 10.5701 7.33594V12.0259C10.5701 12.3759 10.7501 12.6959 11.0501 12.8759Z" fill="#FFA368"/>
</svg>
