<svg width="24" height="24" viewBox="0 0 24 24" fill="none" xmlns="http://www.w3.org/2000/svg">
<path d="M1.8101 7.09628C1.26992 7.63649 0.999878 8.2831 0.999878 9.03595V19.2502C0.999878 20.0033 1.26992 20.6499 1.8101 21.19C2.35032 21.7303 2.99692 22.0002 3.7499 22.0002H4.53557V6.28589H3.7499C2.99674 6.28589 2.35019 6.55606 1.8101 7.09628Z" fill="#FFA368"/>
<path d="M16.7142 4.32122C16.7142 3.99381 16.5997 3.7156 16.3705 3.4864C16.1415 3.25721 15.8631 3.1427 15.5358 3.1427H8.46426C8.13694 3.1427 7.85868 3.25721 7.62944 3.4864C7.40025 3.71547 7.28569 3.99377 7.28569 4.32122V6.28544H5.71423V21.9998H18.2859V6.28544H16.7142V4.32122ZM15.1429 6.28544H8.85711V4.71407H15.1429V6.28544Z" fill="#FFA368"/>
<path d="M22.19 7.09628C21.6497 6.5561 21.0031 6.28589 20.2502 6.28589H19.4644V22.0002H20.2502C21.0031 22.0002 21.6497 21.7303 22.19 21.19C22.73 20.6499 23.0002 20.0033 23.0002 19.2502V9.03595C23.0001 8.2831 22.73 7.63649 22.19 7.09628Z" fill="#FFA368"/>
</svg>
