<svg xmlns="http://www.w3.org/2000/svg" viewBox="0 0 29.23 46.872">
  <g id="voice" transform="translate(0.5 0.5)">
    <g id="Group_967" data-name="Group 967" transform="translate(0)">
      <path id="Path_1339" data-name="Path 1339" d="M39.263,34.782a8.2,8.2,0,0,0,8.192-8.192V8.192a8.192,8.192,0,0,0-16.384,0v18.4A8.2,8.2,0,0,0,39.263,34.782Z" transform="translate(-25.147)" fill="none" stroke="#747474" stroke-width="1"/>
      <path id="Path_1340" data-name="Path 1340" d="M45.87,45.715H44.239a.949.949,0,0,0-.949.949V50a10.586,10.586,0,0,1-21.172,0V46.664a.949.949,0,0,0-.949-.949H19.537a.949.949,0,0,0-.949.949V50A14.316,14.316,0,0,0,30.939,64v2.363H23.654a.949.949,0,0,0-.949.949v1.631a.949.949,0,0,0,.949.949h18.1a.949.949,0,0,0,.949-.949V67.314a.949.949,0,0,0-.949-.949H34.468V64A14.316,14.316,0,0,0,46.818,50V46.664A.948.948,0,0,0,45.87,45.715Z" transform="translate(-18.588 -24.021)" fill="none" stroke="#747474" stroke-width="1"/>
    </g>
  </g>
</svg>
