<svg xmlns="http://www.w3.org/2000/svg" viewBox="0 0 40.571 40.571">
  <g id="Icon_ionic-ios-image" data-name="Icon ionic-ios-image" opacity="0.207">
    <path id="Path_1319" data-name="Path 1319" d="M8.088,26.966H27.3a.561.561,0,0,0,.453-.886l-9.61-15.453a.555.555,0,0,0-.917,0l-9.6,15.453A.565.565,0,0,0,8.088,26.966Z" transform="translate(-1.581 -0.871)" fill="#001ce2"/>
    <path id="Path_1320" data-name="Path 1320" d="M21.595,19.122l3.526,5.611a.546.546,0,0,0,.453.242h5.359a.561.561,0,0,0,.453-.886l-6.205-8.834a.555.555,0,0,0-.917,0l-2.68,3.234A.581.581,0,0,0,21.595,19.122Z" transform="translate(3.13 0.963)" fill="#001ce2"/>
    <path id="Path_1321" data-name="Path 1321" d="M25.625,13.5a2.82,2.82,0,1,0-3.093-3.093A2.83,2.83,0,0,0,25.625,13.5Z" transform="translate(3.898 -1.664)" fill="#001ce2"/>
    <path id="Path_1322" data-name="Path 1322" d="M40.825,3.375H6.5A3.117,3.117,0,0,0,3.375,6.5V40.825A3.117,3.117,0,0,0,6.5,43.946H40.825a3.117,3.117,0,0,0,3.121-3.121V6.5A3.117,3.117,0,0,0,40.825,3.375Zm-.263,27.307a.782.782,0,0,1-.78.78H7.539a.782.782,0,0,1-.78-.78V7.539a.782.782,0,0,1,.78-.78H39.791a.783.783,0,0,1,.78.78V30.682Z" transform="translate(-3.375 -3.375)" fill="#001ce2"/>
  </g>
</svg>
