<svg width="14" height="14" viewBox="0 0 14 14" fill="none" xmlns="http://www.w3.org/2000/svg">
<path d="M0.487598 4.23168C0.756947 4.23168 0.975195 4.01337 0.975195 3.74409V1.6651L4.11565 4.8049C4.21089 4.90008 4.33565 4.94767 4.46041 4.94767C4.58524 4.94767 4.71006 4.90008 4.80524 4.80484C4.99567 4.61441 4.99567 4.30567 4.80518 4.11531L1.66459 0.97544H3.74404C4.01332 0.97544 4.23163 0.757126 4.23163 0.487842C4.23163 0.218558 4.01338 0.000244141 3.74404 0.000244141H0.487598C0.218249 0.000244141 0 0.218558 0 0.487842V3.74415C0 4.01337 0.218249 4.23168 0.487598 4.23168Z" fill="white"/>
<path d="M13.5122 9.76886C13.2429 9.76886 13.0246 9.98718 13.0246 10.2565V12.3355L9.78749 9.09838C9.597 8.90796 9.28832 8.90796 9.0979 9.09838C8.90747 9.28881 8.90747 9.59755 9.0979 9.78791L12.335 13.025H10.256C9.98669 13.025 9.76844 13.2433 9.76844 13.5126C9.76844 13.7819 9.98669 14.0002 10.256 14.0002H13.5123C13.7816 14.0002 13.9999 13.7819 13.9999 13.5126V10.2565C13.9998 9.98718 13.7815 9.76886 13.5122 9.76886Z" fill="white"/>
<path d="M4.212 9.09839L0.975195 12.3355V10.2565C0.975195 9.98719 0.756947 9.76887 0.487598 9.76887C0.218249 9.76887 0 9.98719 0 10.2565V13.5127C0 13.782 0.218249 14.0003 0.487598 14.0003H3.74371C4.01299 14.0003 4.23131 13.782 4.23131 13.5127C4.23131 13.2434 4.01306 13.0251 3.74371 13.0251H1.66472L4.90159 9.78792C5.09202 9.5975 5.09202 9.28875 4.90153 9.09833C4.71123 8.90797 4.40249 8.90797 4.212 9.09839Z" fill="white"/>
<path d="M13.5127 0H10.2565C9.98714 0 9.7689 0.218314 9.7689 0.487598C9.7689 0.756882 9.98714 0.975195 10.2565 0.975195H12.3355L9.19554 4.11539C9.00512 4.30581 9.00512 4.61456 9.19561 4.80498C9.29079 4.90016 9.41561 4.94775 9.54037 4.94775C9.66513 4.94775 9.78996 4.9001 9.8852 4.80492L13.0252 1.66472V3.74384C13.0252 4.01312 13.2435 4.23144 13.5128 4.23144C13.7822 4.23144 14.0004 4.01312 14.0004 3.74384V0.487598C14.0003 0.218249 13.782 0 13.5127 0Z" fill="white"/>
</svg>
