<svg width="28" height="28" viewBox="0 0 28 28" fill="none" xmlns="http://www.w3.org/2000/svg">
<path fill-rule="evenodd" clip-rule="evenodd" d="M22.6667 4.33333H21.5V3.16667C21.5 2.525 20.975 2 20.3333 2C19.6917 2 19.1667 2.525 19.1667 3.16667V4.33333H9.83333V3.16667C9.83333 2.525 9.30833 2 8.66667 2C8.025 2 7.5 2.525 7.5 3.16667V4.33333H6.33333C5.03833 4.33333 4.01167 5.38333 4.01167 6.66667L4 23C4 24.2833 5.03833 25.3333 6.33333 25.3333H22.6667C23.95 25.3333 25 24.2833 25 23V6.66667C25 5.38333 23.95 4.33333 22.6667 4.33333ZM22.6667 21.8333C22.6667 22.475 22.1417 23 21.5 23H7.5C6.85833 23 6.33333 22.475 6.33333 21.8333V10.1667H22.6667V21.8333ZM9.83333 12.5C9.189 12.5 8.66667 13.0223 8.66667 13.6667C8.66667 14.311 9.189 14.8333 9.83333 14.8333C10.4777 14.8333 11 14.311 11 13.6667C11 13.0223 10.4777 12.5 9.83333 12.5ZM13.3333 13.6667C13.3333 13.0223 13.8557 12.5 14.5 12.5C15.1443 12.5 15.6667 13.0223 15.6667 13.6667C15.6667 14.311 15.1443 14.8333 14.5 14.8333C13.8557 14.8333 13.3333 14.311 13.3333 13.6667ZM19.1667 12.5C18.5223 12.5 18 13.0223 18 13.6667C18 14.311 18.5223 14.8333 19.1667 14.8333C19.811 14.8333 20.3333 14.311 20.3333 13.6667C20.3333 13.0223 19.811 12.5 19.1667 12.5Z" fill="#FFA368"/>
</svg>
