<svg width="12" height="20" viewBox="0 0 12 20" fill="none" xmlns="http://www.w3.org/2000/svg">
<path d="M6.00415 5.00537C4.62196 5.00537 3.50147 3.88488 3.50147 2.50268C3.50147 1.12049 4.62196 0 6.00415 0C7.38635 0 8.50684 1.12049 8.50684 2.50268C8.50684 3.88488 7.38635 5.00537 6.00415 5.00537Z" fill="#7A828D"/>
<path d="M1.08186 11.4477L3.21728 6.24602C3.33941 5.98356 3.44748 5.63184 3.94924 5.63184C4.13459 5.63184 4.31835 5.63184 4.53061 5.63184H7.14388C7.3602 5.63184 7.47263 5.63184 7.73908 5.63184C8.23954 5.63184 8.50065 5.95794 8.64386 6.25167L10.8619 11.414C11.0731 11.8474 10.8967 12.3711 10.468 12.5837C10.0391 12.7963 9.52007 12.6173 9.30885 12.1838L9.14192 11.8415C9.14192 11.8415 9.09007 11.7491 9.10955 11.8513C9.23027 12.487 9.56362 14.3993 9.56362 14.3993C9.6446 14.7973 9.37876 15.1229 8.97267 15.1229C8.97267 15.1229 8.2482 15.1229 8.00676 15.1229C7.93764 15.1229 7.94993 15.175 7.94993 15.175V19.0188C7.94993 19.6626 7.54899 20.0002 7.05418 20.0002C6.55956 20.0002 6.15838 19.6626 6.15838 19.0188V15.1596C6.15838 15.1596 6.1604 15.1215 6.1201 15.1229C6.06806 15.1245 5.93634 15.1231 5.8773 15.1231C5.84363 15.1231 5.84787 15.1637 5.84787 15.1637V19.0188C5.84787 19.6626 5.44669 20.0002 4.95188 20.0002C4.45726 20.0002 4.05613 19.6626 4.05613 19.0188V15.1852C4.05613 15.1852 4.06203 15.1229 3.98782 15.1229C3.728 15.1229 2.9488 15.1229 2.9488 15.1229C2.54277 15.1229 2.27035 14.796 2.34359 14.3966C2.34359 14.3966 2.67768 12.3455 2.7667 11.7867C2.7922 11.6266 2.52612 12.1953 2.52612 12.1953C2.32264 12.6324 1.92969 12.8149 1.49711 12.6102C1.06417 12.4054 0.878385 11.885 1.08186 11.4477Z" fill="#7A828D"/>
</svg>
