<svg width="15" height="14" viewBox="0 0 15 14" fill="none" xmlns="http://www.w3.org/2000/svg">
<path d="M13.9604 0.387827C13.8476 0.12938 13.6522 0.000139306 13.3735 0H0.646518C0.368151 0 0.172531 0.12938 0.0598331 0.387827C-0.0527954 0.659507 -0.0064415 0.89166 0.199104 1.08383L5.10116 5.98575V10.8181C5.10116 10.9907 5.16416 11.1396 5.29006 11.2657L7.83535 13.811C7.95477 13.9368 8.10386 14 8.2829 14C8.36238 14 8.44519 13.9833 8.53139 13.9502C8.79001 13.8374 8.91935 13.642 8.91935 13.3635V5.98579L13.8212 1.08387C14.0269 0.891695 14.0731 0.659612 13.9604 0.387827Z" fill="#05A4F4"/>
</svg>
