<svg width="13" height="14" viewBox="0 0 13 14" fill="none" xmlns="http://www.w3.org/2000/svg">
<path d="M10.058 5.4409C10.058 2.87913 7.98098 0.802002 5.41917 0.802002C2.85741 0.802002 0.780273 2.87913 0.780273 5.4409C0.780273 8.00266 2.85741 10.0797 5.41917 10.0797C7.98098 10.0797 10.058 8.00266 10.058 5.4409ZM5.41917 8.91993C3.50064 8.91993 1.94003 7.35945 1.94003 5.44092C1.94003 3.52239 3.50064 1.96178 5.41917 1.96178C7.33765 1.96178 8.89838 3.52239 8.89838 5.44092C8.89838 7.35945 7.33765 8.91993 5.41917 8.91993Z" fill="#C4C4C4"/>
<path d="M12.6375 11.3716L9.79955 8.53345C9.3767 9.19108 8.98967 9.57162 8.33203 9.9945L11.1702 12.8327C11.6233 13.2857 12.119 13.1723 12.6344 12.6569C13.1499 12.1415 13.0906 11.8246 12.6375 11.3716Z" fill="#C4C4C4"/>
</svg>
