<svg width="11" height="14" viewBox="0 0 11 14" fill="none" xmlns="http://www.w3.org/2000/svg">
<path d="M0.63641 5.7272H9.54535C9.7177 5.7272 9.8669 5.66427 9.99279 5.53831C10.1186 5.41238 10.1818 5.26325 10.1818 5.0909C10.1818 4.91854 10.1187 4.76949 9.99279 4.64338L5.53831 0.188896C5.41245 0.0631047 5.26336 0 5.0909 0C4.91844 0 4.76935 0.0631047 4.64338 0.188896L0.188896 4.64338C0.0629305 4.76935 0 4.91854 0 5.0909C0 5.26322 0.0629305 5.41238 0.188896 5.53831C0.315001 5.66427 0.464091 5.7272 0.63641 5.7272Z" fill="#05A4F4"/>
<path d="M9.54535 8.27295H0.63641C0.463952 8.27295 0.314862 8.33591 0.188896 8.46174C0.0629305 8.58771 0 8.7368 0 8.90915C0 9.0815 0.0629305 9.2307 0.188896 9.35659L4.64338 13.811C4.76949 13.937 4.91858 14 5.0909 14C5.26322 14 5.41245 13.937 5.53831 13.811L9.99279 9.35656C10.1186 9.2307 10.1818 9.0815 10.1818 8.90911C10.1818 8.7368 10.1187 8.58771 9.99279 8.46171C9.86693 8.33578 9.7177 8.27295 9.54535 8.27295Z" fill="#05A4F4"/>
</svg>
