<svg width="20" height="20" viewBox="0 0 20 20" fill="none" xmlns="http://www.w3.org/2000/svg">
<path d="M8.28638 10.7779C8.64425 11.2564 9.10084 11.6522 9.62517 11.9387C10.1495 12.2252 10.7293 12.3955 11.3253 12.4382C11.9212 12.4809 12.5194 12.3949 13.0792 12.1861C13.639 11.9773 14.1473 11.6505 14.5697 11.2279L17.0697 8.72792C17.8287 7.94208 18.2487 6.88957 18.2392 5.79709C18.2297 4.7046 17.7915 3.65955 17.019 2.88701C16.2464 2.11448 15.2014 1.67628 14.1089 1.66678C13.0164 1.65729 11.9639 2.07727 11.178 2.83626L9.74471 4.26126" stroke="#176BEF" stroke-width="1.5" stroke-linecap="round" stroke-linejoin="round"/>
<path d="M11.6197 9.11123C11.2618 8.63279 10.8052 8.23691 10.2809 7.95045C9.75659 7.66398 9.17679 7.49363 8.58084 7.45095C7.98489 7.40827 7.38673 7.49426 6.82693 7.70308C6.26713 7.9119 5.75879 8.23867 5.33638 8.66123L2.83638 11.1612C2.07739 11.9471 1.65741 12.9996 1.66691 14.0921C1.6764 15.1846 2.1146 16.2296 2.88714 17.0021C3.65967 17.7747 4.70472 18.2129 5.79721 18.2224C6.8897 18.2319 7.9422 17.8119 8.72805 17.0529L10.153 15.6279" stroke="#176BEF" stroke-width="1.5" stroke-linecap="round" stroke-linejoin="round"/>
</svg>
