<svg xmlns="http://www.w3.org/2000/svg" viewBox="0 0 45 45">
  <path id="goal_1_" data-name="goal (1)" d="M41.7,10.761l2.183-2.182a1.318,1.318,0,0,0-.822-2.246l-4.049-.342-.342-4.049a1.318,1.318,0,0,0-2.246-.821L34.239,3.3A22.5,22.5,0,0,0,6.59,38.41,22.5,22.5,0,0,0,41.7,10.761ZM36.475,7.322a1.319,1.319,0,0,0,1.2,1.2l2.329.2-3.153,3.153-3.439-.29-.29-3.439,3.153-3.153ZM26.982,22.5A4.486,4.486,0,1,1,24.6,18.539l-3.028,3.028a1.318,1.318,0,1,0,1.864,1.864L26.461,20.4A4.452,4.452,0,0,1,26.982,22.5Zm-.47-5.877a7.127,7.127,0,1,0,1.865,1.865l3.764-3.764a12.407,12.407,0,1,1-1.865-1.865ZM36.545,36.545A19.863,19.863,0,1,1,8.455,8.455a19.872,19.872,0,0,1,23.86-3.227L30.828,6.714a1.318,1.318,0,0,0-.386.9c0,.048,0,.1,0,.145l.177,2.1a15.041,15.041,0,1,0,4.515,4.515l2.1.177c.037,0,.074,0,.111,0h.019l.052,0c.028,0,.057,0,.085-.007l.053-.008.083-.016.052-.013.08-.024.051-.018c.026-.01.051-.021.077-.033l.048-.023c.025-.013.05-.027.074-.042l.044-.026c.026-.017.051-.036.076-.055l.035-.026a1.307,1.307,0,0,0,.1-.092l1.487-1.487a19.872,19.872,0,0,1-3.227,23.86Zm0,0" fill="#b2bbff"/>
</svg>
