<svg id="download" xmlns="http://www.w3.org/2000/svg" viewBox="0 0 95.702 88.694">
  <g id="Group_241" data-name="Group 241" transform="translate(0 0)">
    <path id="Path_265" data-name="Path 265" d="M92.96,228.556a2.731,2.731,0,0,0-2.742,2.742v24.941A12.3,12.3,0,0,1,77.93,268.527H17.771A12.3,12.3,0,0,1,5.484,256.239V230.892a2.742,2.742,0,0,0-5.484,0v25.347A17.791,17.791,0,0,0,17.771,274.01H77.93A17.791,17.791,0,0,0,95.7,256.239V231.3A2.743,2.743,0,0,0,92.96,228.556Z" transform="translate(0 -185.316)" fill="#001ce2"/>
    <path id="Path_266" data-name="Path 266" d="M154.479,84.172a2.759,2.759,0,0,0,1.929.812,2.676,2.676,0,0,0,1.93-.812l17.426-17.426a2.743,2.743,0,1,0-3.879-3.879L159.15,75.621V19.992a2.742,2.742,0,1,0-5.484,0v55.63L140.912,62.867a2.743,2.743,0,1,0-3.879,3.879Z" transform="translate(-108.557 -17.25)" fill="#001ce2"/>
  </g>
</svg>
