<svg xmlns="http://www.w3.org/2000/svg" viewBox="0 0 58.526 52.013">
  <path id="Icon_awesome-edit" data-name="Icon awesome-edit" d="M40.907,8.451l9.165,9.165a.993.993,0,0,1,0,1.4L27.881,41.209l-9.429,1.047a1.976,1.976,0,0,1-2.185-2.185l1.047-9.429L39.505,8.451A.993.993,0,0,1,40.907,8.451Zm16.46-2.327L52.409,1.165a3.974,3.974,0,0,0-5.609,0l-3.6,3.6a.993.993,0,0,0,0,1.4l9.165,9.165a.993.993,0,0,0,1.4,0l3.6-3.6a3.974,3.974,0,0,0,0-5.609Zm-18.35,29.05V45.517H6.5V13h23.35a1.249,1.249,0,0,0,.864-.356L34.78,8.583A1.219,1.219,0,0,0,33.917,6.5H4.877A4.878,4.878,0,0,0,0,11.377V47.143A4.878,4.878,0,0,0,4.877,52.02H40.643a4.878,4.878,0,0,0,4.877-4.877V31.109a1.221,1.221,0,0,0-2.083-.864L39.373,34.31A1.249,1.249,0,0,0,39.017,35.174Z" transform="translate(0 -0.007)" fill="#505050"/>
</svg>
