<svg xmlns="http://www.w3.org/2000/svg" viewBox="0 0 56.187 34.121">
  <path id="Icon_awesome-graduation-cap" data-name="Icon awesome-graduation-cap" d="M53.665,12.192,29.611,4.8a6.889,6.889,0,0,0-4.035,0L1.523,12.192a2.03,2.03,0,0,0,0,3.931l4.193,1.288a6.8,6.8,0,0,0-1.542,4.044,2.661,2.661,0,0,0-.22,4.572l-2.2,9.906A1.379,1.379,0,0,0,3.1,37.613H7.937a1.38,1.38,0,0,0,1.347-1.679l-2.2-9.906A2.654,2.654,0,0,0,6.928,21.5a4.068,4.068,0,0,1,1.784-3.166l16.864,5.182a6.9,6.9,0,0,0,4.035,0l24.054-7.39A2.03,2.03,0,0,0,53.665,12.192ZM30.421,26.152a9.653,9.653,0,0,1-5.656,0L12.26,22.31l-1.223,9.784c0,3.048,7.412,5.519,16.556,5.519s16.556-2.47,16.556-5.519l-1.223-9.785Z" transform="translate(0.5 -3.991)" fill="none" stroke="#9f9e9e" stroke-width="1"/>
</svg>
