<svg xmlns="http://www.w3.org/2000/svg" viewBox="0 0 44.273 44.273">
  <path id="plan" d="M41.983,44.273H2.29A2.29,2.29,0,0,1,0,41.983V2.29A2.29,2.29,0,0,1,2.29,0H41.983a2.29,2.29,0,0,1,2.29,2.29V41.983A2.29,2.29,0,0,1,41.983,44.273Zm.763-2.29V22.9H35.663a.763.763,0,0,1-.611-1.221,4.312,4.312,0,0,0,.824-2.6c0-2.1-1.369-3.817-3.053-3.817s-3.053,1.712-3.053,3.817a4.312,4.312,0,0,0,.823,2.6.763.763,0,0,1-.611,1.221H22.9v5.784a6.094,6.094,0,0,1,2.29-.441c2.946,0,5.343,2.054,5.343,4.58s-2.4,4.58-5.343,4.58a6.094,6.094,0,0,1-2.29-.441v5.784H41.983A.763.763,0,0,0,42.746,41.983Zm-41.219,0a.763.763,0,0,0,.763.763H21.373V35.663a.763.763,0,0,1,1.221-.611,4.321,4.321,0,0,0,2.6.824c2.1,0,3.817-1.369,3.817-3.053S27.294,29.77,25.19,29.77a4.32,4.32,0,0,0-2.6.823.763.763,0,0,1-1.221-.611V22.9H15.589a6.094,6.094,0,0,1,.441,2.29c0,2.946-2.054,5.343-4.58,5.343s-4.58-2.4-4.58-5.343A6.094,6.094,0,0,1,7.31,22.9H1.527Zm0-39.693V21.373H8.61a.763.763,0,0,1,.611,1.221,4.312,4.312,0,0,0-.824,2.6c0,2.1,1.369,3.817,3.053,3.817S14.5,27.294,14.5,25.19a4.312,4.312,0,0,0-.823-2.6.763.763,0,0,1,.611-1.221h7.082V15.589a6.094,6.094,0,0,1-2.29.441c-2.946,0-5.343-2.054-5.343-4.58s2.4-4.58,5.343-4.58a6.094,6.094,0,0,1,2.29.441V1.527H2.29A.763.763,0,0,0,1.527,2.29Zm41.219,0a.763.763,0,0,0-.763-.763H22.9V8.61a.763.763,0,0,1-1.221.611,4.321,4.321,0,0,0-2.6-.824c-2.1,0-3.817,1.369-3.817,3.053S16.979,14.5,19.083,14.5a4.32,4.32,0,0,0,2.6-.823.763.763,0,0,1,1.221.611v7.082h5.784a6.094,6.094,0,0,1-.441-2.29c0-2.946,2.054-5.343,4.58-5.343s4.58,2.4,4.58,5.343a6.094,6.094,0,0,1-.441,2.29h5.784Zm0,0" fill="#9f9e9e"/>
</svg>
