<svg xmlns="http://www.w3.org/2000/svg" viewBox="0 0 40.281 35.246">
  <g id="import_1_" data-name="import (1)" transform="translate(0 -31.998)">
    <path id="Path_1508" data-name="Path 1508" d="M27.693,91.7H5.035V69.037H7.553V64H2.518A2.518,2.518,0,0,0,0,66.52V94.213A2.517,2.517,0,0,0,2.518,96.73H30.211a2.515,2.515,0,0,0,2.518-2.518V79.185H27.693Z" transform="translate(0 -29.486)" fill="#b2bbff"/>
    <path id="Path_1509" data-name="Path 1509" d="M128.5,39.8l10.07-7.553a1.26,1.26,0,0,1,2.014,1.007v3.776h3.776A13.861,13.861,0,0,1,158.211,50.88a1.259,1.259,0,0,1-2.384.564l-.3-.592A11.266,11.266,0,0,0,145.4,44.586h-4.809v3.776a1.259,1.259,0,0,1-2.014,1.007L128.5,41.817a1.259,1.259,0,0,1,0-2.014Z" transform="translate(-117.93 0)" fill="#b2bbff"/>
  </g>
</svg>
