<svg id="icon" xmlns="http://www.w3.org/2000/svg" viewBox="0 0 30.281 30.276">
  <path id="Path_240" data-name="Path 240" d="M20.039,14.474,13.751,9.9a.758.758,0,0,0-1.2.612v9.138a.756.756,0,0,0,.414.676.764.764,0,0,0,.345.082.754.754,0,0,0,.445-.147L20.039,15.7a.752.752,0,0,0,0-1.223Z" transform="translate(0.096 0.073)" fill="#001ce2"/>
  <path id="Path_241" data-name="Path 241" d="M15.141,0a15.138,15.138,0,1,0,15.14,15.141A15.139,15.139,0,0,0,15.141,0Zm0,27.75a12.612,12.612,0,1,1,12.61-12.61A12.61,12.61,0,0,1,15.141,27.752Z" transform="translate(0 -0.002)" fill="#001ce2"/>
</svg>
