<svg xmlns="http://www.w3.org/2000/svg" viewBox="0 0 45 45">
  <path id="refer" d="M22.052,23.9c.149.005.3.009.448.009s.278,0,.416-.008a19.356,19.356,0,0,1,8.979,2.423,1.758,1.758,0,1,0,1.71-3.072,22.7,22.7,0,0,0-3.949-1.727,11.953,11.953,0,1,0-14.306,0A22.858,22.858,0,0,0,.114,38.56,5.34,5.34,0,0,0,5.334,45H19.072a1.758,1.758,0,1,0,0-3.516H5.334a1.787,1.787,0,0,1-1.406-.668,1.837,1.837,0,0,1-.372-1.54A19.421,19.421,0,0,1,22.052,23.9Zm-7.99-11.944a8.438,8.438,0,1,1,8.856,8.427q-.21,0-.419,0c-.137,0-.274,0-.411,0A8.448,8.448,0,0,1,14.062,11.953ZM45,32.681a4.345,4.345,0,0,1-1.292,3.108L40.439,39.04a1.758,1.758,0,0,1-2.479-2.493l2.191-2.179H30.189a3.559,3.559,0,0,0-.043,7.117,1.758,1.758,0,1,1,0,3.516,6.963,6.963,0,0,1-4.988-2.079,7.09,7.09,0,0,1,5.031-12.07h9.8l-2.027-2a1.758,1.758,0,1,1,2.472-2.5L43.7,29.576A4.345,4.345,0,0,1,45,32.681Zm0,0" transform="translate(0)" fill="#b2bbff"/>
</svg>
