<svg id="sound-frecuency" xmlns="http://www.w3.org/2000/svg" viewBox="0 0 254.039 46.924">
  <path id="Path_242" data-name="Path 242" d="M2.279,138.428C1.02,138.428,0,139.1,0,139.936v4.985c0,.833,1.02,1.508,2.279,1.508s2.279-.675,2.279-1.508v-4.985C4.558,139.1,3.538,138.428,2.279,138.428Z" transform="translate(0 -118.966)" fill="#001ce2"/>
  <path id="Path_243" data-name="Path 243" d="M29.552,138.428c-1.259,0-2.279.675-2.279,1.508v4.985c0,.833,1.02,1.508,2.279,1.508s2.279-.675,2.279-1.508v-4.985C31.831,139.1,30.811,138.428,29.552,138.428Z" transform="translate(-18.393 -118.966)" fill="#001ce2"/>
  <path id="Path_244" data-name="Path 244" d="M56.825,128.635c-1.259,0-2.279.675-2.279,1.508v9.2c0,.833,1.02,1.508,2.279,1.508s2.279-.675,2.279-1.508v-9.2C59.1,129.31,58.084,128.635,56.825,128.635Z" transform="translate(-17.489 -111.282)" fill="#001ce2"/>
  <path id="Path_245" data-name="Path 245" d="M84.1,117.063c-1.259,0-2.279.675-2.279,1.508V132.76c0,.833,1.02,1.508,2.279,1.508s2.279-.675,2.279-1.508V118.571C86.376,117.738,85.356,117.063,84.1,117.063Z" transform="translate(-13.778 -102.203)" fill="#001ce2"/>
  <path id="Path_246" data-name="Path 246" d="M111.371,96.588c-1.259,0-2.279.675-2.279,1.508V121.1c0,.833,1.02,1.508,2.279,1.508s2.279-.675,2.279-1.508V98.1C113.65,97.263,112.63,96.588,111.371,96.588Z" transform="translate(-18.371 -86.138)" fill="#001ce2"/>
  <path id="Path_247" data-name="Path 247" d="M138.643,48.071c-1.259,0-2.279.675-2.279,1.508V93.488c0,.833,1.02,1.508,2.279,1.508s2.279-.675,2.279-1.508V49.579C140.922,48.746,139.9,48.071,138.643,48.071Z" transform="translate(-22.964 -48.071)" fill="#001ce2"/>
  <path id="Path_248" data-name="Path 248" d="M165.916,65.43c-1.259,0-2.279.675-2.279,1.508v36.431c0,.833,1.02,1.508,2.279,1.508s2.279-.675,2.279-1.508V66.938C168.2,66.1,167.175,65.43,165.916,65.43Z" transform="translate(-27.556 -61.691)" fill="#001ce2"/>
  <path id="Path_249" data-name="Path 249" d="M193.188,100.148c-1.259,0-2.279.675-2.279,1.508v21.475c0,.833,1.02,1.508,2.279,1.508s2.279-.675,2.279-1.508V101.656C195.467,100.823,194.447,100.148,193.188,100.148Z" transform="translate(-32.149 -88.931)" fill="#001ce2"/>
  <path id="Path_250" data-name="Path 250" d="M220.462,121.067c-1.259,0-2.279.675-2.279,1.508v12.463c0,.833,1.02,1.508,2.279,1.508s2.279-.675,2.279-1.508V122.575C222.741,121.742,221.721,121.067,220.462,121.067Z" transform="translate(-36.742 -105.344)" fill="#001ce2"/>
  <path id="Path_251" data-name="Path 251" d="M247.735,129.971c-1.259,0-2.279.675-2.279,1.508v8.628c0,.833,1.02,1.508,2.279,1.508s2.279-.675,2.279-1.508v-8.628C250.014,130.646,248.994,129.971,247.735,129.971Z" transform="translate(-33.032 -112.331)" fill="#001ce2"/>
  <path id="Path_252" data-name="Path 252" d="M275.007,138.428c-1.259,0-2.279.675-2.279,1.508v4.985c0,.833,1.02,1.508,2.279,1.508s2.279-.675,2.279-1.508v-4.985C277.286,139.1,276.266,138.428,275.007,138.428Z" transform="translate(-32.127 -118.966)" fill="#001ce2"/>
  <path id="Path_253" data-name="Path 253" d="M302.279,138.428c-1.259,0-2.279.675-2.279,1.508v4.985c0,.833,1.02,1.508,2.279,1.508s2.279-.675,2.279-1.508v-4.985C304.558,139.1,303.538,138.428,302.279,138.428Z" transform="translate(-50.52 -118.966)" fill="#001ce2"/>
</svg>
