<svg xmlns="http://www.w3.org/2000/svg" viewBox="0 0 41.835 48.808">
  <path id="Icon_metro-file-audio" data-name="Icon metro-file-audio" d="M42.554,12.553a6.338,6.338,0,0,1,1.307,2.07,6.286,6.286,0,0,1,.545,2.4V48.4a2.6,2.6,0,0,1-2.615,2.615H5.185A2.6,2.6,0,0,1,2.571,48.4V4.818a2.522,2.522,0,0,1,.763-1.852A2.522,2.522,0,0,1,5.185,2.2h24.4a6.288,6.288,0,0,1,2.4.545,6.338,6.338,0,0,1,2.07,1.307ZM30.461,5.908V16.149H40.7a2.976,2.976,0,0,0-.6-1.117L31.577,6.507a2.975,2.975,0,0,0-1.117-.6ZM40.92,47.525V19.635H29.589a2.6,2.6,0,0,1-2.615-2.615V5.69H6.057V47.525H40.92ZM19.457,25.354a.808.808,0,0,1,.545.817V40.988a.808.808,0,0,1-.545.817,1.489,1.489,0,0,1-.327.054.978.978,0,0,1-.626-.245l-4.521-4.549H10.415a.839.839,0,0,1-.872-.872V30.965a.839.839,0,0,1,.872-.872h3.568L18.5,25.545a.828.828,0,0,1,.953-.191ZM30.815,44.12a1.653,1.653,0,0,0,1.362-.654,15.667,15.667,0,0,0,0-19.774,1.638,1.638,0,0,0-1.171-.654,1.62,1.62,0,0,0-1.28.381,1.672,1.672,0,0,0-.64,1.185A1.727,1.727,0,0,0,29.48,25.9a12.192,12.192,0,0,1,0,15.361,1.727,1.727,0,0,0-.395,1.294,1.582,1.582,0,0,0,.64,1.158,1.661,1.661,0,0,0,1.089.409Zm-5.747-4.031a1.752,1.752,0,0,0,1.28-.545,8.692,8.692,0,0,0,0-11.93,1.711,1.711,0,0,0-1.226-.545,1.66,1.66,0,0,0-1.253.463,1.742,1.742,0,0,0-.054,2.479,5.2,5.2,0,0,1,0,7.136,1.742,1.742,0,0,0,.055,2.479,1.809,1.809,0,0,0,1.2.463Z" transform="translate(-2.571 -2.203)" fill="#1f5de4"/>
</svg>
