<svg width="27" height="17" viewBox="0 0 27 17" fill="none" xmlns="http://www.w3.org/2000/svg">
<path d="M14.193 11.426C14.264 10.5256 14.0123 9.62924 13.483 8.89733C12.9537 8.16541 12.1813 7.64566 11.304 7.43101C11.9644 7.17656 12.5283 6.72116 12.916 6.12907C13.3037 5.53698 13.4958 4.83809 13.465 4.13101C13.465 0.988008 11.115 0.221008 8.40399 0.221008H0.937988V16.009H8.61199C11.49 16.009 14.193 14.633 14.193 11.426ZM4.41799 2.92001H7.68399C8.93799 2.92001 10.069 3.27201 10.069 4.72601C10.069 6.06601 9.18999 6.60501 7.94599 6.60501H4.41799V2.92001ZM4.41799 13.328V8.98201H8.20999C9.74199 8.98201 10.71 9.61901 10.71 11.236C10.711 12.826 9.55499 13.326 8.13799 13.326L4.41799 13.328Z" fill="#4D75E8"/>
<path d="M21.09 16.307C22.2944 16.404 23.4942 16.071 24.4764 15.3673C25.4585 14.6636 26.1596 13.6346 26.455 12.463H23.676C23.4555 12.9299 23.1013 13.3209 22.6584 13.5863C22.2155 13.8517 21.7038 13.9797 21.188 13.954C20.8009 13.9912 20.4104 13.9407 20.0456 13.8062C19.6807 13.6717 19.3508 13.4567 19.0804 13.1772C18.81 12.8977 18.6061 12.5609 18.4838 12.1917C18.3615 11.8226 18.324 11.4306 18.374 11.045H26.643C26.657 10.86 26.67 10.659 26.67 10.459C26.67 7.079 24.687 4.259 21.091 4.259C20.3005 4.24213 19.515 4.38844 18.7836 4.68881C18.0522 4.98917 17.3906 5.43713 16.8401 6.00471C16.2896 6.57228 15.862 7.24728 15.5842 7.98753C15.3063 8.72778 15.184 9.51738 15.225 10.307C15.223 13.866 17.47 16.307 21.09 16.307ZM20.99 6.63C21.3199 6.6061 21.6511 6.65231 21.9618 6.76558C22.2725 6.87885 22.5557 7.05662 22.7928 7.2872C23.0299 7.51777 23.2155 7.79594 23.3374 8.10338C23.4593 8.41083 23.5147 8.7406 23.5 9.071H18.377C18.3787 8.73609 18.4487 8.40504 18.5829 8.09818C18.7171 7.79133 18.9126 7.51513 19.1574 7.28654C19.4022 7.05796 19.6911 6.88181 20.0064 6.76891C20.3217 6.65601 20.6568 6.60874 20.991 6.63H20.99Z" fill="#4D75E8"/>
<path d="M17.735 1.05499H24.155V2.60999H17.735V1.05499Z" fill="#4D75E8"/>
</svg>
