<svg width="64" height="61" viewBox="0 0 64 61" fill="none" xmlns="http://www.w3.org/2000/svg">
<g filter="url(#filter0_d)">
<path d="M16 3.5H48C53.2467 3.5 57.5 7.75329 57.5 13V42C57.5 47.2467 53.2467 51.5 48 51.5H16C10.7533 51.5 6.5 47.2467 6.5 42V13C6.5 7.75329 10.7533 3.5 16 3.5Z" stroke="#4D75E8"/>
</g>
<path d="M39.792 19.1258C38.0578 19.1178 36.3495 19.546 34.824 20.3708C32.5462 18.1758 29.4961 16.9652 26.333 17.0008C20.084 17.0008 15 21.4488 15 26.9168C15.0227 28.3023 15.3521 29.6656 15.9646 30.9086C16.577 32.1516 17.4572 33.2435 18.542 34.1058V38.9708L22.15 36.1288C23.4954 36.5958 24.9099 36.8324 26.334 36.8288C29.4987 36.864 32.5501 35.6519 34.828 33.4548C37.0135 34.6239 39.5407 34.9871 41.967 34.4808L45.459 37.7108V33.0528C46.5125 32.4046 47.3879 31.5042 48.0061 30.4329C48.6244 29.3616 48.9659 28.1532 49 26.9168C49 22.6168 44.869 19.1248 39.792 19.1248V19.1258ZM26.333 35.4178C24.946 35.4204 23.5704 35.1661 22.276 34.6678L21.9 34.5228L19.958 36.0528V33.4208L19.684 33.2078C18.6941 32.4792 17.8847 31.5332 17.3181 30.4425C16.7515 29.3518 16.4429 28.1456 16.416 26.9168C16.416 22.2298 20.865 18.4168 26.333 18.4168C31.801 18.4168 36.25 22.2298 36.25 26.9168C36.25 31.6038 31.802 35.4168 26.333 35.4168V35.4178ZM44.385 32.0558L44.041 32.2618V34.4758L42.376 32.9348L42.006 33.0248C39.9207 33.5388 37.7215 33.3096 35.787 32.3768C35.802 32.3568 35.815 32.3348 35.831 32.3148C37.0097 30.7857 37.6547 28.9125 37.6672 26.9819C37.6796 25.0513 37.0589 23.1699 35.9 21.6258C35.863 21.5688 35.827 21.5118 35.786 21.4568C37.0311 20.8478 38.4 20.5347 39.786 20.5418C44.086 20.5418 47.578 23.4018 47.578 26.9168C47.5356 27.977 47.2183 29.0081 46.6573 29.9088C46.0963 30.8096 45.3109 31.549 44.378 32.0548L44.385 32.0558Z" fill="#4D75E8"/>
<path d="M22.47 23.3458H30.197C30.3849 23.3458 30.5651 23.2711 30.698 23.1383C30.8308 23.0054 30.9055 22.8252 30.9055 22.6373C30.9055 22.4494 30.8308 22.2692 30.698 22.1363C30.5651 22.0034 30.3849 21.9288 30.197 21.9288H22.47C22.2821 21.9288 22.1019 22.0034 21.969 22.1363C21.8361 22.2692 21.7615 22.4494 21.7615 22.6373C21.7615 22.8252 21.8361 23.0054 21.969 23.1383C22.1019 23.2711 22.2821 23.3458 22.47 23.3458V23.3458Z" fill="#4D75E8"/>
<path d="M30.197 30.4288H22.469C22.2811 30.4288 22.1009 30.5034 21.968 30.6363C21.8351 30.7692 21.7605 30.9494 21.7605 31.1373C21.7605 31.3252 21.8351 31.5054 21.968 31.6383C22.1009 31.7711 22.2811 31.8458 22.469 31.8458H30.196C30.3839 31.8458 30.5641 31.7711 30.697 31.6383C30.8299 31.5054 30.9045 31.3252 30.9045 31.1373C30.9045 30.9494 30.8299 30.7692 30.697 30.6363C30.5641 30.5034 30.3839 30.4288 30.196 30.4288H30.197Z" fill="#4D75E8"/>
<path d="M33.416 26.1768H19.25C19.0621 26.1768 18.8819 26.2514 18.749 26.3843C18.6162 26.5171 18.5415 26.6973 18.5415 26.8853C18.5415 27.0732 18.6162 27.2534 18.749 27.3862C18.8819 27.5191 19.0621 27.5938 19.25 27.5938H33.416C33.6039 27.5938 33.7841 27.5191 33.917 27.3862C34.0499 27.2534 34.1245 27.0732 34.1245 26.8853C34.1245 26.6973 34.0499 26.5171 33.917 26.3843C33.7841 26.2514 33.6039 26.1768 33.416 26.1768V26.1768Z" fill="#4D75E8"/>
<path d="M45.458 26.1768H39.791C39.6031 26.1768 39.4229 26.2514 39.29 26.3843C39.1572 26.5171 39.0825 26.6973 39.0825 26.8853C39.0825 27.0732 39.1572 27.2534 39.29 27.3862C39.4229 27.5191 39.6031 27.5938 39.791 27.5938H45.458C45.6459 27.5938 45.8261 27.5191 45.959 27.3862C46.0919 27.2534 46.1665 27.0732 46.1665 26.8853C46.1665 26.6973 46.0919 26.5171 45.959 26.3843C45.8261 26.2514 45.6459 26.1768 45.458 26.1768V26.1768Z" fill="#4D75E8"/>
<path d="M40.5 24.7618H43.333C43.5209 24.7618 43.7011 24.6871 43.834 24.5543C43.9669 24.4214 44.0415 24.2412 44.0415 24.0533C44.0415 23.8654 43.9669 23.6852 43.834 23.5523C43.7011 23.4194 43.5209 23.3448 43.333 23.3448H40.5C40.3121 23.3448 40.1319 23.4194 39.999 23.5523C39.8662 23.6852 39.7915 23.8654 39.7915 24.0533C39.7915 24.2412 39.8662 24.4214 39.999 24.5543C40.1319 24.6871 40.3121 24.7618 40.5 24.7618Z" fill="#4D75E8"/>
<path d="M43.333 29.0128H40.5C40.3121 29.0128 40.1319 29.0874 39.999 29.2203C39.8662 29.3531 39.7915 29.5333 39.7915 29.7213C39.7915 29.9092 39.8662 30.0894 39.999 30.2222C40.1319 30.3551 40.3121 30.4297 40.5 30.4297H43.333C43.5209 30.4297 43.7011 30.3551 43.834 30.2222C43.9669 30.0894 44.0415 29.9092 44.0415 29.7213C44.0415 29.5333 43.9669 29.3531 43.834 29.2203C43.7011 29.0874 43.5209 29.0128 43.333 29.0128V29.0128Z" fill="#4D75E8"/>
<defs>
<filter id="filter0_d" x="0" y="0" width="64" height="61" filterUnits="userSpaceOnUse" color-interpolation-filters="sRGB">
<feFlood flood-opacity="0" result="BackgroundImageFix"/>
<feColorMatrix in="SourceAlpha" type="matrix" values="0 0 0 0 0 0 0 0 0 0 0 0 0 0 0 0 0 0 127 0"/>
<feOffset dy="3"/>
<feGaussianBlur stdDeviation="3"/>
<feColorMatrix type="matrix" values="0 0 0 0 0.121569 0 0 0 0 0.278431 0 0 0 0 0.721569 0 0 0 0.2 0"/>
<feBlend mode="normal" in2="BackgroundImageFix" result="effect1_dropShadow"/>
<feBlend mode="normal" in="SourceGraphic" in2="effect1_dropShadow" result="shape"/>
</filter>
</defs>
</svg>
