<svg width="24" height="23" viewBox="0 0 24 23" fill="none" xmlns="http://www.w3.org/2000/svg">
<path d="M16.337 21.767C16.356 21.761 16.374 21.754 16.392 21.747C27.862 17.19 24.689 0.0100117 12.248 0.0100117C10.5919 0.00902945 8.95603 0.37322 7.45679 1.07665C5.95756 1.78007 4.63187 2.80543 3.57415 4.07968C2.51643 5.35394 1.75269 6.84576 1.33734 8.44887C0.921981 10.052 0.865223 11.727 1.17111 13.3545C1.47699 14.9821 2.13799 16.5222 3.10702 17.8651C4.07606 19.2081 5.32929 20.3208 6.77747 21.1241C8.22565 21.9274 9.83314 22.4015 11.4855 22.5126C13.1378 22.6237 14.7943 22.3692 16.337 21.767V21.767ZM5.93698 18.846C6.73698 17.501 9.32598 13.708 13.745 12.399C14.7734 15.0206 15.327 17.8044 15.38 20.62C13.786 21.1601 12.0797 21.2807 10.4256 20.97C8.77152 20.6592 7.22532 19.9278 5.93598 18.846H5.93698ZM16.766 20.032C16.6621 17.3125 16.1197 14.6276 15.16 12.081C17.4647 11.7664 19.8116 12.0877 21.947 13.01C21.6788 14.4988 21.0724 15.9061 20.1744 17.1236C19.2765 18.341 18.1111 19.336 16.768 20.032H16.766ZM22.092 11.552C19.7228 10.5976 17.1335 10.3263 14.618 10.769C14.285 10.018 13.934 9.29601 13.563 8.63101C15.8342 7.77795 17.9186 6.49294 19.701 4.84701C21.3168 6.69962 22.1717 9.09501 22.094 11.552H22.092ZM18.702 3.84401C16.9866 5.3885 14.9914 6.59015 12.824 7.38401C11.6161 5.46418 10.1655 3.70834 8.50798 2.16001C10.1955 1.46285 12.0443 1.25101 13.8458 1.54838C15.6474 1.84574 17.33 2.64049 18.704 3.84301L18.702 3.84401ZM7.16198 2.84901C8.80345 4.32785 10.2398 6.0195 11.433 7.87901C8.57003 8.76503 5.59372 9.23121 2.59698 9.26301C2.87755 7.93807 3.42757 6.68498 4.21288 5.58158C4.9982 4.47819 6.00202 3.54807 7.16198 2.84901V2.84901ZM2.41898 10.677C5.73694 10.6645 9.03332 10.1427 12.193 9.13001C12.546 9.74901 12.881 10.423 13.203 11.124C9.7669 12.3763 6.84887 14.7426 4.91398 17.846C4.03809 16.8796 3.36542 15.7469 2.93595 14.5154C2.50648 13.2838 2.32897 11.9785 2.41398 10.677H2.41898Z" fill="#4D75E8"/>
</svg>
