<svg width="12" height="17" viewBox="0 0 12 17" fill="none" xmlns="http://www.w3.org/2000/svg">
<path d="M10.331 1.00301H8.91098L9.38698 1.39001C9.5895 1.56235 9.77017 1.75881 9.92498 1.97501C10.1038 2.22494 10.2496 2.49684 10.359 2.78401C10.4829 3.12033 10.5435 3.47665 10.538 3.83501C10.5444 4.17824 10.4871 4.51967 10.369 4.84201C10.2631 5.1257 10.1176 5.393 9.93698 5.63601C9.76038 5.87158 9.55475 6.08393 9.32498 6.26801L8.61298 6.81301C8.46698 6.95801 8.32398 7.10801 8.17998 7.26601C8.03548 7.4294 7.95924 7.64203 7.96698 7.86001C7.9628 7.96687 7.98316 8.07327 8.0265 8.17104C8.06984 8.26881 8.135 8.35535 8.21698 8.42401C8.36198 8.54672 8.51499 8.65963 8.67498 8.76201L9.49598 9.35601C9.72198 9.55101 9.93398 9.74701 10.139 9.94601C10.3408 10.143 10.5239 10.3583 10.686 10.589C10.8476 10.8239 10.9746 11.0809 11.063 11.352C11.1577 11.662 11.2029 11.985 11.197 12.309C11.1954 12.8215 11.0684 13.3259 10.827 13.778C10.5584 14.2806 10.1829 14.7182 9.72698 15.06C9.18345 15.4677 8.57153 15.7752 7.91998 15.968C7.11243 16.2072 6.27311 16.3219 5.43098 16.308C4.70515 16.3207 3.98093 16.2353 3.27798 16.054C2.73562 15.9155 2.2202 15.6873 1.75298 15.379C1.3796 15.1338 1.06868 14.8047 0.844983 14.418C0.649414 14.0716 0.546113 13.6808 0.544983 13.283C0.564201 12.8266 0.690978 12.3812 0.914983 11.983C1.2312 11.4328 1.7039 10.9889 2.27298 10.708C2.62917 10.511 3.00485 10.3515 3.39398 10.232C3.78095 10.1119 4.17506 10.016 4.57398 9.94501C4.96465 9.87835 5.33498 9.82968 5.68498 9.79901C6.03398 9.77101 6.33698 9.74901 6.58498 9.73401C6.42845 9.53915 6.28321 9.33549 6.14998 9.12401C6.00768 8.87232 5.93842 8.58592 5.94998 8.29701C5.94563 8.14464 5.96797 7.99269 6.01598 7.84801C6.05998 7.72601 6.10798 7.60501 6.16398 7.48301C6.05098 7.49701 5.93298 7.50801 5.80998 7.51501C5.68698 7.52201 5.57198 7.52601 5.45498 7.52601C4.9047 7.53784 4.35752 7.44064 3.84498 7.24001C3.40587 7.0659 3.00301 6.81157 2.65698 6.49001C2.33969 6.19199 2.09036 5.82909 1.92598 5.42601C1.76483 5.04048 1.68156 4.62687 1.68098 4.20901C1.68824 3.69486 1.80841 3.18858 2.03298 2.72601C2.28521 2.20342 2.65074 1.74361 3.10298 1.38001C3.70031 0.90345 4.40278 0.576384 5.15198 0.426013C5.80577 0.29856 6.46991 0.23161 7.13598 0.226013L11.792 0.226013L10.331 1.00301ZM9.77998 13.114C9.78317 12.8684 9.73833 12.6245 9.64798 12.396C9.55082 12.166 9.4156 11.9541 9.24798 11.769C9.02291 11.5266 8.77018 11.3115 8.49498 11.128L7.38998 10.357C7.31358 10.3293 7.23322 10.3141 7.15198 10.312H6.87698C6.81898 10.312 6.70998 10.312 6.54898 10.323C6.38798 10.334 6.19298 10.346 5.96598 10.371C5.73898 10.396 5.49798 10.431 5.23798 10.471C4.98752 10.5122 4.73999 10.5697 4.49698 10.643C4.36498 10.686 4.19698 10.752 3.97898 10.843C3.74838 10.9399 3.53259 11.0689 3.33798 11.226C3.11707 11.4029 2.93092 11.6192 2.78898 11.864C2.62651 12.1474 2.54618 12.4705 2.55698 12.797C2.55219 13.1584 2.64624 13.5142 2.82898 13.826C3.03246 14.1529 3.30564 14.4309 3.62898 14.64C4.01088 14.8917 4.43498 15.0726 4.88098 15.174C5.41622 15.3009 5.96494 15.362 6.51498 15.356C7.37904 15.4183 8.23976 15.1963 8.96598 14.724C9.22136 14.541 9.42881 14.2991 9.57069 14.0188C9.71258 13.7386 9.78472 13.4282 9.78098 13.114H9.77998ZM7.97698 6.32601C8.2132 6.11107 8.37675 5.82801 8.44498 5.51601C8.4949 5.28045 8.52269 5.04074 8.52798 4.80001C8.52228 4.38154 8.46484 3.96538 8.35698 3.56101C8.2447 3.12213 8.06956 2.70178 7.83698 2.31301C7.61258 1.93619 7.31911 1.60507 6.97198 1.33701C6.62646 1.07103 6.20097 0.93002 5.76498 0.937013C5.46325 0.939609 5.16569 1.00786 4.89298 1.13701C4.62641 1.25552 4.38582 1.42543 4.18498 1.63701C3.99886 1.84599 3.86426 2.09566 3.79198 2.36601C3.72496 2.63282 3.69137 2.90692 3.69198 3.18201C3.69867 3.57784 3.7534 3.97139 3.85498 4.35401C3.96368 4.7837 4.13771 5.19415 4.37098 5.57101C4.5989 5.94206 4.89554 6.26619 5.24498 6.52601C5.60611 6.78846 6.04371 6.92449 6.48998 6.91301C6.77351 6.91381 7.05446 6.85912 7.31698 6.75201C7.56407 6.65717 7.7888 6.51212 7.97698 6.32601V6.32601Z" fill="#4D75E8"/>
</svg>
