<svg width="44" height="44" viewBox="0 0 44 44" fill="none" xmlns="http://www.w3.org/2000/svg">
<path d="M21.5 44C33.3741 44 43 34.1503 43 22C43 9.84974 33.3741 0 21.5 0C9.62588 0 0 9.84974 0 22C0 34.1503 9.62588 44 21.5 44Z" fill="#5E3C16"/>
<path d="M43.263 20.611L34.563 11.911H30.599V15.579L32.63 17.61H30.599V20.934L21.576 11.911H17.16L9.10498 32.592L20.24 43.725C20.768 43.7637 21.3013 43.7833 21.84 43.784C27.5395 43.784 33.0056 41.5199 37.0357 37.4897C41.0659 33.4596 43.33 27.9935 43.33 22.294C43.3286 21.7273 43.3063 21.1663 43.263 20.611Z" fill="#472E11"/>
<path d="M29.86 32.596H25.318L23.512 27.896H15.245L13.538 32.596H9.10803L17.163 11.915H21.578L29.86 32.596ZM22.172 24.414L19.322 16.74L16.529 24.414H22.172Z" fill="#DF871E"/>
<path d="M30.603 15.583V11.915H34.567V15.583H30.603ZM30.603 32.596V17.614H34.567V32.596H30.603V32.596Z" fill="#DF871E"/>
</svg>
