<svg width="20" height="20" viewBox="0 0 20 20" fill="none" xmlns="http://www.w3.org/2000/svg">
<path d="M14.1159 0.0820313H5.25393C3.86724 0.0838838 2.53789 0.635632 1.55745 1.61626C0.577007 2.59689 0.0255133 3.92634 0.0239258 5.31303L0.0239258 14.175C0.0255133 15.5617 0.577007 16.8912 1.55745 17.8718C2.53789 18.8524 3.86724 19.4042 5.25393 19.406H14.1159C15.5028 19.4044 16.8324 18.8528 17.813 17.8722C18.7937 16.8915 19.3453 15.5619 19.3469 14.175V5.31303C19.3453 3.92617 18.7937 2.59657 17.813 1.61591C16.8324 0.635251 15.5028 0.0836193 14.1159 0.0820312V0.0820313ZM18.2159 14.175C18.2159 15.2624 17.784 16.3053 17.0151 17.0742C16.2462 17.8431 15.2033 18.275 14.1159 18.275H5.25393C4.16654 18.275 3.12369 17.8431 2.35479 17.0742C1.58589 16.3053 1.15393 15.2624 1.15393 14.175V5.31303C1.15393 4.22564 1.58589 3.18279 2.35479 2.41389C3.12369 1.64499 4.16654 1.21303 5.25393 1.21303H14.1159C15.2033 1.21303 16.2462 1.64499 17.0151 2.41389C17.784 3.18279 18.2159 4.22564 18.2159 5.31303V14.175Z" fill="#4D75E8"/>
<path d="M9.68488 4.45605C8.63981 4.45605 7.61819 4.76596 6.74925 5.34657C5.8803 5.92719 5.20304 6.75243 4.8031 7.71796C4.40317 8.68348 4.29853 9.74592 4.50241 10.7709C4.7063 11.7959 5.20955 12.7374 5.94853 13.4764C6.68751 14.2154 7.62903 14.7186 8.65402 14.9225C9.67902 15.1264 10.7415 15.0218 11.707 14.6218C12.6725 14.2219 13.4978 13.5446 14.0784 12.6757C14.659 11.8067 14.9689 10.7851 14.9689 9.74005C14.9673 8.33913 14.4101 6.99605 13.4195 6.00546C12.4289 5.01486 11.0858 4.45764 9.68488 4.45605V4.45605ZM9.68488 13.8911C8.86389 13.8911 8.06134 13.6476 7.37871 13.1915C6.69608 12.7354 6.16403 12.0871 5.84985 11.3286C5.53568 10.5701 5.45347 9.73545 5.61364 8.93024C5.77381 8.12502 6.16915 7.38538 6.74968 6.80486C7.33021 6.22433 8.06985 5.82898 8.87506 5.66882C9.68028 5.50865 10.5149 5.59085 11.2734 5.90503C12.0319 6.21921 12.6802 6.75126 13.1363 7.43388C13.5924 8.11651 13.8359 8.91906 13.8359 9.74005C13.8356 10.8413 13.3983 11.8973 12.62 12.6764C11.8417 13.4554 10.7861 13.8937 9.68488 13.8951V13.8911Z" fill="#4D75E8"/>
<path d="M15.0949 2.58405C14.7862 2.58405 14.4844 2.67559 14.2277 2.84711C13.971 3.01864 13.7709 3.26244 13.6528 3.54768C13.5346 3.83291 13.5037 4.14677 13.5639 4.44958C13.6242 4.75238 13.7728 5.03052 13.9911 5.24883C14.2095 5.46714 14.4876 5.61582 14.7904 5.67605C15.0932 5.73628 15.4071 5.70537 15.6923 5.58722C15.9776 5.46907 16.2214 5.26899 16.3929 5.01228C16.5644 4.75558 16.6559 4.45378 16.6559 4.14504C16.6554 3.7312 16.4908 3.33446 16.1981 3.04183C15.9055 2.7492 15.5088 2.58457 15.0949 2.58405V2.58405ZM15.0949 4.57404C15.0103 4.57385 14.9277 4.54858 14.8574 4.50143C14.7872 4.45428 14.7325 4.38736 14.7002 4.30914C14.668 4.23091 14.6597 4.14489 14.6763 4.06194C14.6929 3.97898 14.7338 3.9028 14.7937 3.84305C14.8536 3.78329 14.9298 3.74263 15.0128 3.7262C15.0958 3.70976 15.1818 3.71829 15.26 3.75072C15.3381 3.78314 15.4049 3.838 15.4519 3.90836C15.4989 3.97873 15.524 4.06143 15.524 4.14604C15.5237 4.25965 15.4784 4.36851 15.3979 4.44875C15.3175 4.52898 15.2085 4.57404 15.0949 4.57404Z" fill="#4D75E8"/>
</svg>
