<svg width="40" height="29" viewBox="0 0 40 29" fill="none" xmlns="http://www.w3.org/2000/svg">
<path d="M13.0486 0.411704C13.3151 0.145563 13.6721 -0.00222068 14.043 2.5229e-05C14.4139 0.00227114 14.7692 0.154368 15.0327 0.423719C15.2963 0.693071 15.4471 1.05824 15.4528 1.44098C15.4586 1.82372 15.3189 2.19356 15.0636 2.47125L4.84453 13.0178H38.573C38.7594 13.0167 38.9442 13.0536 39.1168 13.1263C39.2894 13.1989 39.4464 13.306 39.5789 13.4413C39.7114 13.5766 39.8168 13.7375 39.8891 13.9148C39.9613 14.0922 39.999 14.2825 40 14.4748C39.9997 14.8671 39.8488 15.2433 39.5804 15.521C39.3119 15.7987 38.9477 15.9553 38.5676 15.9565H4.84453L15.0647 26.484C15.3267 26.7626 15.4733 27.1356 15.4733 27.5238C15.4733 27.9121 15.3267 28.2851 15.0647 28.5636C14.9333 28.7018 14.7765 28.8116 14.6035 28.8865C14.4305 28.9614 14.2448 29 14.0572 29C13.8696 29 13.6838 28.9614 13.5108 28.8865C13.3379 28.8116 13.1811 28.7018 13.0496 28.5636L0.409022 15.5102C0.146924 15.2357 0 14.8658 0 14.4804C0 14.095 0.146924 13.7251 0.409022 13.4506L13.0486 0.411704Z" fill="#4D75E8"/>
</svg>
