<svg width="17" height="17" viewBox="0 0 17 17" fill="none" xmlns="http://www.w3.org/2000/svg">
<path d="M3.88107 5.38202H0.652066C0.618054 5.38202 0.584375 5.38872 0.552951 5.40173C0.521528 5.41475 0.492976 5.43383 0.468925 5.45788C0.444875 5.48193 0.425798 5.51048 0.412782 5.5419C0.399766 5.57332 0.393066 5.607 0.393066 5.64101V16.013C0.393066 16.047 0.399766 16.0807 0.412782 16.1121C0.425798 16.1436 0.444875 16.1721 0.468925 16.1962C0.492976 16.2202 0.521528 16.2393 0.552951 16.2523C0.584375 16.2653 0.618054 16.272 0.652066 16.272H3.88107C3.94976 16.272 4.01564 16.2447 4.06421 16.1962C4.11278 16.1476 4.14007 16.0817 4.14007 16.013V5.64101C4.14007 5.57232 4.11278 5.50645 4.06421 5.45788C4.01564 5.40931 3.94976 5.38202 3.88107 5.38202Z" fill="#4D75E8"/>
<path d="M2.26702 0.226013C1.84618 0.226211 1.43485 0.351184 1.08503 0.585132C0.735218 0.81908 0.462623 1.1515 0.301713 1.54036C0.140803 1.92921 0.0988043 2.35705 0.181027 2.76978C0.263249 3.1825 0.466 3.56158 0.763646 3.85909C1.06129 4.1566 1.44047 4.35917 1.85323 4.4412C2.266 4.52323 2.69381 4.48103 3.0826 4.31993C3.47138 4.15884 3.80367 3.88609 4.03745 3.53616C4.27124 3.18624 4.39602 2.77485 4.39602 2.35401C4.39496 1.78978 4.17028 1.24898 3.77122 0.850105C3.37215 0.451228 2.83125 0.226806 2.26702 0.226013V0.226013Z" fill="#4D75E8"/>
<path d="M12.092 5.12401C11.5622 5.11326 11.0359 5.21369 10.5473 5.41883C10.0586 5.62397 9.61842 5.92927 9.25502 6.31501V5.64101C9.25502 5.57232 9.22773 5.50644 9.17916 5.45786C9.13059 5.40929 9.06471 5.38201 8.99602 5.38201H5.90401C5.83532 5.38201 5.76945 5.40929 5.72088 5.45786C5.67231 5.50644 5.64502 5.57232 5.64502 5.64101V16.013C5.64502 16.0817 5.67231 16.1476 5.72088 16.1961C5.76945 16.2447 5.83532 16.272 5.90401 16.272H9.12502C9.19371 16.272 9.25959 16.2447 9.30816 16.1961C9.35673 16.1476 9.38402 16.0817 9.38402 16.013V10.881C9.38402 9.15201 9.85401 8.481 11.059 8.481C12.372 8.481 12.476 9.56101 12.476 10.973V16.016C12.476 16.0847 12.5033 16.1506 12.5519 16.1992C12.6005 16.2477 12.6663 16.275 12.735 16.275H15.958C16.0267 16.275 16.0926 16.2477 16.1412 16.1992C16.1897 16.1506 16.217 16.0847 16.217 16.016V10.324C16.219 7.75301 15.728 5.12401 12.092 5.12401Z" fill="#4D75E8"/>
</svg>
