<svg width="42" height="41" viewBox="0 0 42 41" fill="none" xmlns="http://www.w3.org/2000/svg">
<path d="M20.5 41C31.8218 41 41 31.8218 41 20.5C41 9.17816 31.8218 0 20.5 0C9.17816 0 0 9.17816 0 20.5C0 31.8218 9.17816 41 20.5 41Z" fill="#2A4997"/>
<path d="M28.615 15.025C27.2695 14.9424 25.9297 15.2616 24.766 15.942L20.725 11.954C20.1232 11.3017 19.3468 10.8359 18.488 10.612C17.246 10.279 14.28 10.341 8.29401 10.341V28.411L20.365 40.482C20.765 40.505 21.165 40.518 21.573 40.518C26.1863 40.5176 30.6707 38.9955 34.3311 36.1876C37.9915 33.3796 40.6234 29.4427 41.819 24.987L33.272 16.44C32.193 15.347 30.576 15.025 28.615 15.025Z" fill="#263364"/>
<path d="M8.29797 28.412V10.342C14.283 10.342 17.25 10.28 18.492 10.613C19.5347 10.8895 20.4519 11.5136 21.092 12.382C21.6968 13.3104 22.055 14.3776 22.1327 15.4829C22.2104 16.5882 22.005 17.6951 21.536 18.699C21.1908 19.3613 20.7053 19.9404 20.1135 20.396C19.5216 20.8516 18.8376 21.1727 18.109 21.337C16.0654 21.5947 14.0039 21.6813 11.946 21.596V28.412H8.29797ZM11.947 13.399V18.527C15.647 18.527 17.086 18.647 17.968 17.356C18.2664 16.8986 18.4112 16.3581 18.3814 15.8128C18.3515 15.2675 18.1486 14.746 17.802 14.324C16.877 13.3 15.866 13.398 11.947 13.398V13.399Z" fill="#76C8DA"/>
<path d="M22.629 24.676L26.105 24.146C26.2135 24.7853 26.5662 25.3575 27.0887 25.7416C27.6111 26.1258 28.2623 26.2919 28.905 26.205C30.034 26.205 31.383 25.922 31.383 24.787C31.383 24.025 30.745 23.857 29.978 23.678C28.1325 23.3839 26.3415 22.8146 24.665 21.989C24.1733 21.6744 23.7716 21.2375 23.4994 20.7211C23.2272 20.2047 23.0937 19.6265 23.112 19.043C23.106 18.4958 23.2238 17.9544 23.4565 17.4591C23.6893 16.9638 24.0309 16.5276 24.456 16.183C25.6634 15.3152 27.1398 14.9044 28.622 15.024C31.482 15.024 33.616 15.711 34.415 18.488L31.149 19.088C31.0325 18.6138 30.7483 18.1979 30.349 17.917C29.7819 17.6498 29.1635 17.5092 28.5367 17.5049C27.9099 17.5006 27.2896 17.6327 26.719 17.892C26.6027 17.9577 26.5053 18.0522 26.4359 18.1663C26.3666 18.2804 26.3275 18.4103 26.3226 18.5438C26.3177 18.6772 26.3471 18.8097 26.4079 18.9286C26.4687 19.0475 26.5589 19.1488 26.67 19.223C27.67 19.962 31.958 20.232 33.77 21.738C34.1339 22.0573 34.4207 22.455 34.6086 22.9013C34.7966 23.3475 34.8808 23.8305 34.855 24.314C34.854 24.9093 34.7186 25.4968 34.4589 26.0326C34.1992 26.5683 33.8218 27.0385 33.355 27.408C32.0745 28.3584 30.4954 28.8175 28.905 28.702C27.4159 28.7812 25.9384 28.4026 24.671 27.617C23.6506 26.9223 22.9233 25.8748 22.629 24.676V24.676Z" fill="#76C8DA"/>
</svg>
