<svg width="64" height="61" viewBox="0 0 64 61" fill="none" xmlns="http://www.w3.org/2000/svg">
<g filter="url(#filter0_d)">
<path d="M48 3H16C10.4772 3 6 7.47715 6 13V42C6 47.5228 10.4772 52 16 52H48C53.5228 52 58 47.5228 58 42V13C58 7.47715 53.5228 3 48 3Z" fill="#4D75E8"/>
<path d="M32.093 17.808H30.484C28.7182 17.8103 26.9909 18.3248 25.5117 19.2892C24.0324 20.2535 22.8647 21.6262 22.15 23.241C22.074 23.1976 21.9884 23.1739 21.901 23.172H16.536C16.4655 23.172 16.3957 23.1859 16.3307 23.2129C16.2656 23.2399 16.2064 23.2795 16.1566 23.3293C16.1069 23.3792 16.0674 23.4384 16.0405 23.5036C16.0136 23.5687 15.9999 23.6385 16 23.709V32.292C16 32.4341 16.0565 32.5705 16.157 32.671C16.2575 32.7715 16.3938 32.828 16.536 32.828H21.9C21.9874 32.826 22.073 32.8023 22.149 32.759C22.8637 34.3737 24.0314 35.7465 25.5107 36.7108C26.9899 37.6751 28.7172 38.1897 30.483 38.192H32.092C32.1624 38.192 32.2321 38.1781 32.2971 38.1512C32.3621 38.1242 32.4212 38.0848 32.471 38.035C32.5208 37.9852 32.5603 37.9261 32.5872 37.8611C32.6141 37.7961 32.628 37.7264 32.628 37.656V18.344C32.628 18.202 32.5717 18.0658 32.4714 17.9653C32.3711 17.8648 32.235 17.8082 32.093 17.808V17.808ZM21.364 31.756H17.073V24.246H21.364V31.756ZM31.556 37.12H30.484C28.3509 37.1173 26.3059 36.2688 24.7975 34.7604C23.2892 33.2521 22.4406 31.2071 22.438 29.074V26.927C22.4406 24.7939 23.2892 22.7489 24.7975 21.2405C26.3059 19.7322 28.3509 18.8836 30.484 18.881H31.557L31.556 37.12Z" fill="white"/>
<path d="M43.735 16.996L42.976 17.755C45.6882 20.4733 47.2114 24.1565 47.2114 27.9965C47.2114 31.8365 45.6882 35.5196 42.976 38.238L43.735 38.996C46.6483 36.0764 48.2844 32.1204 48.2844 27.996C48.2844 23.8715 46.6483 19.9155 43.735 16.996V16.996Z" fill="white"/>
<path d="M40.702 20.034L39.943 20.793C41.8516 22.7061 42.9235 25.2981 42.9235 28.0005C42.9235 30.7029 41.8516 33.2949 39.943 35.208L40.702 35.966C42.8117 33.8517 43.9965 30.9868 43.9965 28C43.9965 25.0132 42.8117 22.1483 40.702 20.034Z" fill="white"/>
<path d="M37.6681 23.069L36.9091 23.828C38.0142 24.9354 38.6348 26.436 38.6348 28.0005C38.6348 29.565 38.0142 31.0656 36.9091 32.173L37.6681 32.931C38.9738 31.6221 39.707 29.8488 39.707 28C39.707 26.1512 38.9738 24.3779 37.6681 23.069V23.069Z" fill="white"/>
</g>
<defs>
<filter id="filter0_d" x="0" y="0" width="64" height="61" filterUnits="userSpaceOnUse" color-interpolation-filters="sRGB">
<feFlood flood-opacity="0" result="BackgroundImageFix"/>
<feColorMatrix in="SourceAlpha" type="matrix" values="0 0 0 0 0 0 0 0 0 0 0 0 0 0 0 0 0 0 127 0"/>
<feOffset dy="3"/>
<feGaussianBlur stdDeviation="3"/>
<feColorMatrix type="matrix" values="0 0 0 0 0.121569 0 0 0 0 0.278431 0 0 0 0 0.721569 0 0 0 0.2 0"/>
<feBlend mode="normal" in2="BackgroundImageFix" result="effect1_dropShadow"/>
<feBlend mode="normal" in="SourceGraphic" in2="effect1_dropShadow" result="shape"/>
</filter>
</defs>
</svg>
