<svg width="42" height="42" viewBox="0 0 42 42" fill="none" xmlns="http://www.w3.org/2000/svg">
<path d="M20.823 41.91C32.3232 41.91 41.646 32.5281 41.646 20.955C41.646 9.38187 32.3232 0 20.823 0C9.32277 0 0 9.38187 0 20.955C0 32.5281 9.32277 41.91 20.823 41.91Z" fill="white"/>
<path d="M18.655 26.165C17.265 26.165 16.17 25.77 15.37 24.98C14.58 24.19 14.185 23.045 14.185 21.545V15.5H16.03V21.47C16.03 22.43 16.265 23.17 16.735 23.69C17.205 24.21 17.855 24.47 18.685 24.47C19.515 24.47 20.16 24.22 20.62 23.72C21.09 23.22 21.325 22.495 21.325 21.545V15.5H23.17V21.455C23.17 22.985 22.77 24.155 21.97 24.965C21.17 25.765 20.065 26.165 18.655 26.165ZM25.8075 26V15.5H27.6525V26H25.8075Z" fill="#4D75E8"/>
</svg>
