<svg width="42" height="42" viewBox="0 0 42 42" fill="none" xmlns="http://www.w3.org/2000/svg">
<path d="M20.823 41.91C32.3232 41.91 41.646 32.5281 41.646 20.955C41.646 9.38187 32.3232 0 20.823 0C9.32277 0 0 9.38187 0 20.955C0 32.5281 9.32277 41.91 20.823 41.91Z" fill="white"/>
<path d="M15.278 26.154C13.9807 26.154 12.9587 25.7853 12.212 25.048C11.4747 24.3107 11.106 23.242 11.106 21.842V16.2H12.828V21.772C12.828 22.668 13.0473 23.3587 13.486 23.844C13.9247 24.3293 14.5313 24.572 15.306 24.572C16.0807 24.572 16.6827 24.3387 17.112 23.872C17.5507 23.4053 17.77 22.7287 17.77 21.842V16.2H19.492V21.758C19.492 23.186 19.1187 24.278 18.372 25.034C17.6253 25.7807 16.594 26.154 15.278 26.154ZM20.977 26L24.547 21.016L21.117 16.2H23.147L25.583 19.714L28.033 16.2H30.007L26.591 20.988L30.147 26H28.117L25.541 22.29L22.951 26H20.977Z" fill="#4D75E8"/>
</svg>
