<svg width="64" height="61" viewBox="0 0 64 61" fill="none" xmlns="http://www.w3.org/2000/svg">
<g filter="url(#filter0_d)">
<path d="M48 3H16C10.4772 3 6 7.47715 6 13V42C6 47.5228 10.4772 52 16 52H48C53.5228 52 58 47.5228 58 42V13C58 7.47715 53.5228 3 48 3Z" fill="#4D75E8"/>
<path d="M47.064 19.68C46.681 19.6954 46.3136 19.8359 46.018 20.08L42.543 22.697C42.4128 21.4097 41.8097 20.2165 40.8504 19.3483C39.8911 18.4801 38.6438 17.9986 37.35 17.997H21.218C19.8341 17.9989 18.5076 18.5496 17.5293 19.5284C16.5511 20.5072 16.0011 21.8342 16 23.218V31.44C16.0016 32.8234 16.5518 34.1497 17.5301 35.1279C18.5083 36.1062 19.8346 36.6564 21.218 36.658H37.352C38.6458 36.6564 39.8931 36.1749 40.8524 35.3067C41.8117 34.4385 42.4148 33.2453 42.545 31.958L46.019 34.575C46.3145 34.8192 46.6819 34.9598 47.065 34.975C47.2483 34.9775 47.4294 34.9349 47.5925 34.8511C47.7555 34.7672 47.8954 34.6446 48 34.494C48.2037 34.1832 48.3048 33.8163 48.289 33.445V21.212C48.287 20.154 47.672 19.68 47.064 19.68ZM47.218 33.44C47.231 33.5892 47.1994 33.7389 47.127 33.87C47.1212 33.8817 47.112 33.8912 47.1005 33.8973C47.089 33.9034 47.0759 33.9058 47.063 33.904C46.9137 33.8845 46.7741 33.8196 46.663 33.718L42.363 30.475C42.2837 30.4151 42.1892 30.3784 42.0902 30.3693C41.9912 30.3601 41.8916 30.3788 41.8026 30.4232C41.7137 30.4675 41.6388 30.5359 41.5866 30.6205C41.5344 30.7051 41.5068 30.8026 41.507 30.902V31.44C41.5057 32.5403 41.068 33.5951 40.29 34.373C39.512 35.151 38.4572 35.5887 37.357 35.59H21.218C20.1178 35.5884 19.0632 35.1507 18.2853 34.3727C17.5073 33.5948 17.0696 32.5402 17.068 31.44V23.22C17.0693 22.1198 17.507 21.065 18.285 20.287C19.063 19.509 20.1178 19.0713 21.218 19.07H37.352C38.4522 19.0713 39.507 19.509 40.285 20.287C41.063 21.065 41.5007 22.1198 41.502 23.22V23.752C41.5018 23.8514 41.5294 23.9489 41.5816 24.0335C41.6339 24.1181 41.7087 24.1865 41.7976 24.2309C41.8866 24.2752 41.9862 24.2939 42.0852 24.2847C42.1842 24.2756 42.2787 24.239 42.358 24.179L46.658 20.936C46.769 20.8344 46.9087 20.7694 47.058 20.75C47.158 20.75 47.212 20.989 47.212 21.214V33.44H47.218ZM33.218 26.219L28.35 22.551C28.1286 22.3691 27.8534 22.2654 27.567 22.256C27.083 22.256 26.594 22.618 26.594 23.426V31.22C26.594 32.028 27.083 32.39 27.567 32.39C27.8533 32.3802 28.1284 32.2766 28.35 32.095L33.219 28.427C33.399 28.3045 33.5464 28.1398 33.6483 27.9473C33.7501 27.7548 33.8034 27.5403 33.8034 27.3225C33.8034 27.1047 33.7501 26.8902 33.6483 26.6977C33.5464 26.5052 33.399 26.3405 33.219 26.218L33.218 26.219ZM32.576 27.575L27.7 31.248L27.657 31.278C27.657 31.2627 27.657 31.245 27.657 31.225V23.431C27.657 23.411 27.657 23.394 27.657 23.378L27.7 23.408L32.568 27.076C32.6146 27.0991 32.6538 27.1347 32.6812 27.1789C32.7086 27.2231 32.7231 27.274 32.7231 27.326C32.7231 27.378 32.7086 27.4289 32.6812 27.4731C32.6538 27.5173 32.6146 27.5529 32.568 27.576L32.576 27.575Z" fill="white"/>
</g>
<defs>
<filter id="filter0_d" x="0" y="0" width="64" height="61" filterUnits="userSpaceOnUse" color-interpolation-filters="sRGB">
<feFlood flood-opacity="0" result="BackgroundImageFix"/>
<feColorMatrix in="SourceAlpha" type="matrix" values="0 0 0 0 0 0 0 0 0 0 0 0 0 0 0 0 0 0 127 0"/>
<feOffset dy="3"/>
<feGaussianBlur stdDeviation="3"/>
<feColorMatrix type="matrix" values="0 0 0 0 0.121569 0 0 0 0 0.278431 0 0 0 0 0.721569 0 0 0 0.2 0"/>
<feBlend mode="normal" in2="BackgroundImageFix" result="effect1_dropShadow"/>
<feBlend mode="normal" in="SourceGraphic" in2="effect1_dropShadow" result="shape"/>
</filter>
</defs>
</svg>
