<svg width="31" height="31" viewBox="0 0 31 31" fill="none" xmlns="http://www.w3.org/2000/svg">
<g filter="url(#filter0_d)">
<rect x="5.66602" y="5.5" width="20" height="20" rx="10" fill="white"/>
<path d="M10.666 15.1364C10.666 15.1364 12.4842 11.5 15.666 11.5C18.8478 11.5 20.666 15.1364 20.666 15.1364C20.666 15.1364 18.8478 18.7727 15.666 18.7727C12.4842 18.7727 10.666 15.1364 10.666 15.1364Z" stroke="#001CE2" stroke-linecap="round" stroke-linejoin="round"/>
<path d="M15.6664 16.5002C16.4195 16.5002 17.03 15.8897 17.03 15.1366C17.03 14.3835 16.4195 13.7729 15.6664 13.7729C14.9133 13.7729 14.3027 14.3835 14.3027 15.1366C14.3027 15.8897 14.9133 16.5002 15.6664 16.5002Z" stroke="#001CE2" stroke-linecap="round" stroke-linejoin="round"/>
</g>
<defs>
<filter id="filter0_d" x="0.666016" y="0.5" width="30" height="30" filterUnits="userSpaceOnUse" color-interpolation-filters="sRGB">
<feFlood flood-opacity="0" result="BackgroundImageFix"/>
<feColorMatrix in="SourceAlpha" type="matrix" values="0 0 0 0 0 0 0 0 0 0 0 0 0 0 0 0 0 0 127 0"/>
<feOffset/>
<feGaussianBlur stdDeviation="2.5"/>
<feColorMatrix type="matrix" values="0 0 0 0 0 0 0 0 0 0.0634955 0 0 0 0 0.5125 0 0 0 0.1 0"/>
<feBlend mode="normal" in2="BackgroundImageFix" result="effect1_dropShadow"/>
<feBlend mode="normal" in="SourceGraphic" in2="effect1_dropShadow" result="shape"/>
</filter>
</defs>
</svg>
