<svg width="24" height="24" viewBox="0 0 24 24" fill="none" xmlns="http://www.w3.org/2000/svg">
<g opacity="0.8">
<path fill-rule="evenodd" clip-rule="evenodd" d="M10.0603 15.7445V8.16555C10.0603 7.12345 10.9034 6.27082 11.955 6.27082H20.4813V5.32345C20.4813 4.28134 19.6287 3.42871 18.5866 3.42871H5.32345C4.27187 3.42871 3.42871 4.28134 3.42871 5.32345V18.5866C3.42871 19.6287 4.27187 20.4813 5.32345 20.4813H18.5866C19.6287 20.4813 20.4813 19.6287 20.4813 18.5866V17.6392H11.955C10.9034 17.6392 10.0603 16.7866 10.0603 15.7445ZM12.9021 8.16555C12.3811 8.16555 11.9548 8.59186 11.9548 9.11291V14.7971C11.9548 15.3182 12.3811 15.7445 12.9021 15.7445H21.4284V8.16555H12.9021ZM14.3234 11.955C14.3234 12.7413 14.9581 13.3761 15.7444 13.3761C16.5308 13.3761 17.1655 12.7413 17.1655 11.955C17.1655 11.1687 16.5308 10.534 15.7444 10.534C14.9581 10.534 14.3234 11.1687 14.3234 11.955Z" fill="#4A5464"/>
</g>
</svg>
