<svg width="24" height="24" viewBox="0 0 24 24" fill="none" xmlns="http://www.w3.org/2000/svg">
<g opacity="0.8">
<path d="M19.619 11.5238H18.1905V7.71429C18.1905 6.66667 17.3333 5.80952 16.2857 5.80952H12.4762V4.38095C12.4762 3.06667 11.4095 2 10.0952 2C8.78095 2 7.71429 3.06667 7.71429 4.38095V5.80952H3.90476C2.85714 5.80952 2.00952 6.66667 2.00952 7.71429V11.3333H3.42857C4.84762 11.3333 6 12.4857 6 13.9048C6 15.3238 4.84762 16.4762 3.42857 16.4762H2V20.0952C2 21.1429 2.85714 22 3.90476 22H7.52381V20.5714C7.52381 19.1524 8.67619 18 10.0952 18C11.5143 18 12.6667 19.1524 12.6667 20.5714V22H16.2857C17.3333 22 18.1905 21.1429 18.1905 20.0952V16.2857H19.619C20.9333 16.2857 22 15.219 22 13.9048C22 12.5905 20.9333 11.5238 19.619 11.5238Z" fill="#4A5464"/>
</g>
</svg>
