<svg width="30" height="30" viewBox="0 0 30 30" fill="none" xmlns="http://www.w3.org/2000/svg">
<rect width="30" height="30" rx="4" fill="url(#paint0_linear)"/>
<path d="M11.475 19.304C11.475 18.9057 11.7978 18.5829 12.196 18.5829H17.954C18.3522 18.5829 18.675 18.9057 18.675 19.304V19.304C18.675 19.7022 18.3522 20.025 17.954 20.025H12.196C11.7978 20.025 11.475 19.7022 11.475 19.304V19.304ZM11.475 15.7125C11.475 15.319 11.794 15 12.1875 15H17.9625C18.356 15 18.675 15.319 18.675 15.7125V15.7125C18.675 16.106 18.356 16.425 17.9625 16.425H12.1875C11.794 16.425 11.475 16.106 11.475 15.7125V15.7125ZM17.1679 5.91789C16.9804 5.73036 16.726 5.625 16.4608 5.625H9.675C8.685 5.625 7.875 6.435 7.875 7.425V21.825C7.875 22.815 8.676 23.625 9.666 23.625H20.475C21.465 23.625 22.275 22.815 22.275 21.825V11.4392C22.275 11.174 22.1696 10.9196 21.9821 10.7321L17.1679 5.91789ZM20.625 22.125H9.375V7.125H16.125V11.125C16.125 11.4011 16.3489 11.625 16.625 11.625H20.625V22.125Z" fill="white"/>
<defs>
<linearGradient id="paint0_linear" x1="30" y1="30" x2="-2.90458" y2="27.3706" gradientUnits="userSpaceOnUse">
<stop offset="0.0110497" stop-color="#F66691"/>
<stop offset="0.729282" stop-color="#FC9968"/>
<stop offset="1" stop-color="#FFBA69"/>
</linearGradient>
</defs>
</svg>
