<svg id="notification" xmlns="http://www.w3.org/2000/svg" width="37.375" height="39" viewBox="0 0 37.375 39">
  <path id="Path_1535" data-name="Path 1535" d="M141,347.832a6.5,6.5,0,1,1-6.5-6.5A6.5,6.5,0,0,1,141,347.832Zm0,0" transform="translate(-118.25 -315.332)" fill="#0018bf"/>
  <path id="Path_1536" data-name="Path 1536" d="M27.638,58.79a11.348,11.348,0,0,1-8.8-15.813A11.336,11.336,0,0,0,4.875,54.043v4.53A10.9,10.9,0,0,1,.994,66.914a2.843,2.843,0,0,0,1.849,5H29.656A2.844,2.844,0,0,0,31.489,66.9a10.881,10.881,0,0,1-3.851-8.11Zm0,0" transform="translate(0 -39.418)" fill="#001ce2"/>
  <path id="Path_1537" data-name="Path 1537" d="M293.582,8.125A8.125,8.125,0,1,1,285.457,0,8.125,8.125,0,0,1,293.582,8.125Zm0,0" transform="translate(-256.207)" fill="#36f45c"/>
</svg>
