<svg xmlns="http://www.w3.org/2000/svg" width="44" height="43.996" viewBox="0 0 44 43.996">
  <g id="pay" transform="translate(0 -0.023)">
    <g id="Group_1049" data-name="Group 1049" transform="translate(13.127 33.009)">
      <g id="Group_1048" data-name="Group 1048">
        <path id="Path_1483" data-name="Path 1483" d="M154.452,384.548a.9.9,0,0,0-.049-.162.871.871,0,0,0-.079-.148.835.835,0,0,0-.237-.237.848.848,0,0,0-.149-.079.808.808,0,0,0-.161-.049.846.846,0,0,0-.335,0,.833.833,0,0,0-.162.049.871.871,0,0,0-.148.079.859.859,0,0,0-.316.385.832.832,0,0,0-.049.162.825.825,0,0,0,0,.335.806.806,0,0,0,.049.161.794.794,0,0,0,.079.149.835.835,0,0,0,.237.237.865.865,0,0,0,.148.079.833.833,0,0,0,.162.049.826.826,0,0,0,.335,0,.808.808,0,0,0,.161-.049.848.848,0,0,0,.149-.079.835.835,0,0,0,.237-.237.848.848,0,0,0,.079-.149.868.868,0,0,0,.049-.161.826.826,0,0,0,0-.335Z" transform="translate(-152.75 -383.857)" fill="#b2bbff"/>
      </g>
    </g>
    <g id="Group_1051" data-name="Group 1051" transform="translate(0 26.655)">
      <g id="Group_1050" data-name="Group 1050">
        <path id="Path_1484" data-name="Path 1484" d="M39.531,317.232l-.01-.026c-.791-1.851-2.646-2.535-4.841-1.785l-5.987,1.656a3.925,3.925,0,0,0-2.43-2.393l-.023-.008-6.581-2.234a6.788,6.788,0,0,0-5.476-2.52,6.872,6.872,0,0,0-5.367,3.219H.859A.859.859,0,0,0,0,314v10.835a.859.859,0,0,0,.859.859h5.11a.859.859,0,0,0,.859-.859v-.742h2.4a.859.859,0,0,0,.859-.859v-.247a6.093,6.093,0,0,1,3.139,1.127,52,52,0,0,0,5.163,2.636l.038.016a7.714,7.714,0,0,0,2.765.521,6.85,6.85,0,0,0,2.847-.61l13.234-4.738c.024-.008.047-.018.069-.028C38.6,321.328,40.488,319.688,39.531,317.232ZM5.11,323.976H1.719V314.86H5.11Zm3.256-1.6H6.828V314.86H8.365Zm28.287-2.041L23.424,325.07l-.039.015-.035.015a5.57,5.57,0,0,1-4.28.073,49.781,49.781,0,0,1-4.99-2.549,7.735,7.735,0,0,0-4-1.36v-6.922a5.307,5.307,0,0,1,4.1-2.7,4.959,4.959,0,0,1,4.207,1.976.86.86,0,0,0,.456.364l6.83,2.318a1.928,1.928,0,0,1,1.4,2.275,1.674,1.674,0,0,1-2.057,1.156l-7.7-2.44a.859.859,0,0,0-.519,1.638l7.713,2.444.025.007a3.373,3.373,0,0,0,2.58-.3,3.37,3.37,0,0,0,1.612-2.036q.03-.1.053-.209l6.452-1.787c.932-.318,2.155-.433,2.7.821C38.5,319.342,37.033,320.152,36.652,320.333Z" transform="translate(0 -309.922)" fill="#b2bbff"/>
      </g>
    </g>
    <g id="Group_1053" data-name="Group 1053" transform="translate(29.154 10.634)">
      <g id="Group_1052" data-name="Group 1052">
        <path id="Path_1485" data-name="Path 1485" d="M340.952,124.189a.838.838,0,0,0-.05-.162.847.847,0,0,0-.316-.385.873.873,0,0,0-.148-.079.856.856,0,0,0-.5-.049.807.807,0,0,0-.161.049.849.849,0,0,0-.149.079.834.834,0,0,0-.237.237.874.874,0,0,0-.079.148.833.833,0,0,0-.049.162.826.826,0,0,0,0,.335.807.807,0,0,0,.049.161.848.848,0,0,0,.079.149.834.834,0,0,0,.237.237.85.85,0,0,0,.149.079.868.868,0,0,0,.161.049.846.846,0,0,0,.168.017.862.862,0,0,0,.168-.017.909.909,0,0,0,.161-.049.874.874,0,0,0,.148-.079.835.835,0,0,0,.237-.237.8.8,0,0,0,.079-.149.811.811,0,0,0,.05-.161.868.868,0,0,0,0-.335Z" transform="translate(-339.25 -123.498)" fill="#b2bbff"/>
      </g>
    </g>
    <g id="Group_1055" data-name="Group 1055" transform="translate(2.552 0.023)">
      <g id="Group_1054" data-name="Group 1054">
        <path id="Path_1486" data-name="Path 1486" d="M70.28,2.934H65.17a.859.859,0,0,0-.859.859v.742h-2.4a.859.859,0,0,0-.859.859v.247a6.093,6.093,0,0,1-3.139-1.127,52,52,0,0,0-5.163-2.636l-.038-.016a7.311,7.311,0,0,0-5.612.088L43.646,3.19,40.731.275a.859.859,0,0,0-1.215,0l-9.57,9.57a.852.852,0,0,0,0,1.215L46.3,27.413a.929.929,0,0,0,1.215,0l8.737-8.737c.227.02.463.03.707.03a6.872,6.872,0,0,0,5.367-3.219H70.28a.859.859,0,0,0,.859-.859V3.793A.859.859,0,0,0,70.28,2.934ZM40.123,2.1l1.959,1.959a3.747,3.747,0,0,1-3.917,0Zm-6.4,10.313-1.959-1.959,1.959-1.959a3.747,3.747,0,0,1,0,3.917ZM46.906,25.59l-1.958-1.958a3.742,3.742,0,0,1,3.917,0Zm3.2-3.2a5.461,5.461,0,0,0-6.393,0l-8.744-8.744a5.461,5.461,0,0,0,0-6.394l1.961-1.961a5.461,5.461,0,0,0,6.394,0l1.859,1.859a3.406,3.406,0,0,0-2.557,1.874,4.9,4.9,0,1,0,5.632,6.063l2.9.985a5.487,5.487,0,0,0,.91,4.355Zm-5.225-8.449.023.008,1.718.583A3.18,3.18,0,1,1,42.3,10.9,3.8,3.8,0,0,0,44.878,13.945ZM53.3,19.193a3.759,3.759,0,0,1-.549-1.787,6.682,6.682,0,0,0,1.516.821Zm7.752-4.907a5.307,5.307,0,0,1-4.1,2.7,6.255,6.255,0,0,1-.9-.063h0a4.922,4.922,0,0,1-3.183-1.742c-.018-.026-.092-.123-.1-.14a.856.856,0,0,0-.474-.394l-6.833-2.319a1.928,1.928,0,0,1-1.4-2.274v0A1.674,1.674,0,0,1,46.12,8.9l7.7,2.44A.859.859,0,1,0,54.339,9.7l-6.123-1.94-.053-.053,0,0-3.17-3.17,2.725-.976.03-.011.009,0,.035-.015a5.57,5.57,0,0,1,4.28-.073A49.781,49.781,0,0,1,57.058,6a7.734,7.734,0,0,0,4,1.36Zm3.256-.517H62.774V6.254h1.537Zm5.11,0H66.03V4.653H69.42Z" transform="translate(-29.691 -0.023)" fill="#b2bbff"/>
      </g>
    </g>
  </g>
</svg>
