<svg id="gear" xmlns="http://www.w3.org/2000/svg" width="32.769" height="32.769" viewBox="0 0 32.769 32.769">
  <g id="Group_984" data-name="Group 984" transform="translate(0 0)">
    <path id="Path_1354" data-name="Path 1354" d="M31.092,12.946l-2.3-.39a12.987,12.987,0,0,0-.924-2.232l1.355-1.9A2.018,2.018,0,0,0,29,5.82l-2.04-2.04a2.009,2.009,0,0,0-1.431-.6,1.989,1.989,0,0,0-1.171.376l-1.9,1.355a12.852,12.852,0,0,0-2.314-.952l-.383-2.273a2.022,2.022,0,0,0-2-1.691H14.882a2.022,2.022,0,0,0-2,1.691l-.4,2.327a12.667,12.667,0,0,0-2.225.938L8.379,3.6a2.022,2.022,0,0,0-2.608.219L3.724,5.861A2.026,2.026,0,0,0,3.5,8.469l1.369,1.924a12.686,12.686,0,0,0-.91,2.238l-2.273.383a2.022,2.022,0,0,0-1.691,2v2.882a2.022,2.022,0,0,0,1.691,2l2.327.4a12.667,12.667,0,0,0,.938,2.225L3.608,24.391A2.018,2.018,0,0,0,3.827,27l2.04,2.04a2.009,2.009,0,0,0,1.431.6,1.989,1.989,0,0,0,1.171-.376l1.924-1.369a12.95,12.95,0,0,0,2.163.89l.383,2.3a2.022,2.022,0,0,0,2,1.691h2.889a2.022,2.022,0,0,0,2-1.691l.39-2.3a12.987,12.987,0,0,0,2.232-.924l1.9,1.355a2.01,2.01,0,0,0,1.177.376h0a2.009,2.009,0,0,0,1.431-.6l2.04-2.04a2.026,2.026,0,0,0,.219-2.608l-1.355-1.9a12.894,12.894,0,0,0,.924-2.232l2.3-.383a2.022,2.022,0,0,0,1.691-2V14.944A2,2,0,0,0,31.092,12.946Zm-.157,4.881a.177.177,0,0,1-.151.178l-2.875.479a.919.919,0,0,0-.739.678,10.958,10.958,0,0,1-1.191,2.868.926.926,0,0,0,.041,1.006l1.691,2.382a.186.186,0,0,1-.021.233l-2.04,2.04a.174.174,0,0,1-.13.055.168.168,0,0,1-.1-.034L23.042,26.02a.925.925,0,0,0-1.006-.041,10.958,10.958,0,0,1-2.868,1.191.909.909,0,0,0-.678.739L18,30.785a.177.177,0,0,1-.178.151H14.944a.177.177,0,0,1-.178-.151l-.479-2.875a.919.919,0,0,0-.678-.739A11.379,11.379,0,0,1,10.8,26.02a.948.948,0,0,0-.465-.123.9.9,0,0,0-.534.171l-2.4,1.7a.2.2,0,0,1-.1.034.183.183,0,0,1-.13-.055l-2.04-2.04a.186.186,0,0,1-.021-.233L6.8,23.118A.937.937,0,0,0,6.839,22.1a10.855,10.855,0,0,1-1.2-2.861.937.937,0,0,0-.739-.678L2,18.073a.177.177,0,0,1-.151-.178V15.013A.177.177,0,0,1,2,14.835l2.855-.479a.926.926,0,0,0,.746-.685A10.947,10.947,0,0,1,6.77,10.8a.914.914,0,0,0-.048-1l-1.7-2.4a.186.186,0,0,1,.021-.233l2.04-2.04a.174.174,0,0,1,.13-.055.168.168,0,0,1,.1.034L9.673,6.792a.937.937,0,0,0,1.013.041,10.855,10.855,0,0,1,2.861-1.2.937.937,0,0,0,.678-.739l.493-2.9a.177.177,0,0,1,.178-.151h2.882a.177.177,0,0,1,.178.151l.479,2.855a.926.926,0,0,0,.685.746,11.111,11.111,0,0,1,2.937,1.2.926.926,0,0,0,1.006-.041l2.362-1.7a.2.2,0,0,1,.1-.034.183.183,0,0,1,.13.055L27.7,7.12a.186.186,0,0,1,.021.233L26.026,9.728a.925.925,0,0,0-.041,1.006A10.959,10.959,0,0,1,27.176,13.6a.909.909,0,0,0,.739.678l2.875.486a.177.177,0,0,1,.151.178v2.882Z" transform="translate(0 -0.001)" fill="#001ce2"/>
    <path id="Path_1355" data-name="Path 1355" d="M143.171,136a7.071,7.071,0,1,0,7.071,7.071A7.076,7.076,0,0,0,143.171,136Zm0,12.294a5.223,5.223,0,1,1,5.223-5.223A5.226,5.226,0,0,1,143.171,148.3Z" transform="translate(-126.783 -126.691)" fill="#001ce2"/>
  </g>
</svg>
