<svg width="25" height="25" viewBox="0 0 25 25" fill="none" xmlns="http://www.w3.org/2000/svg">
<path d="M3.41797 3.50781H21.418C21.6832 3.50781 21.9375 3.61317 22.1251 3.80071C22.3126 3.98824 22.418 4.2426 22.418 4.50781V20.5078C22.418 20.773 22.3126 21.0274 22.1251 21.2149C21.9375 21.4025 21.6832 21.5078 21.418 21.5078H3.41797C3.15275 21.5078 2.8984 21.4025 2.71086 21.2149C2.52333 21.0274 2.41797 20.773 2.41797 20.5078V4.50781C2.41797 4.2426 2.52333 3.98824 2.71086 3.80071C2.8984 3.61317 3.15275 3.50781 3.41797 3.50781ZM20.418 7.74581L12.49 14.8458L4.41797 7.72381V19.5078H20.418V7.74581ZM4.92897 5.50781L12.479 12.1698L19.92 5.50781H4.92897Z" fill="white"/>
</svg>
