<svg width="44" height="43" viewBox="0 0 44 43" fill="none" xmlns="http://www.w3.org/2000/svg">
<circle cx="22.2539" cy="21.5078" r="21.418" fill="#0046FE"/>
<path d="M22.2539 18.5078C21.4583 18.5078 20.6952 18.8239 20.1326 19.3865C19.57 19.9491 19.2539 20.7122 19.2539 21.5078C19.2539 22.3035 19.57 23.0665 20.1326 23.6291C20.6952 24.1917 21.4583 24.5078 22.2539 24.5078C23.0496 24.5078 23.8126 24.1917 24.3752 23.6291C24.9378 23.0665 25.2539 22.3035 25.2539 21.5078C25.2539 20.7122 24.9378 19.9491 24.3752 19.3865C23.8126 18.8239 23.0496 18.5078 22.2539 18.5078ZM22.2539 16.5078C23.58 16.5078 24.8518 17.0346 25.7894 17.9723C26.7271 18.91 27.2539 20.1817 27.2539 21.5078C27.2539 22.8339 26.7271 24.1057 25.7894 25.0433C24.8518 25.981 23.58 26.5078 22.2539 26.5078C20.9278 26.5078 19.6561 25.981 18.7184 25.0433C17.7807 24.1057 17.2539 22.8339 17.2539 21.5078C17.2539 20.1817 17.7807 18.91 18.7184 17.9723C19.6561 17.0346 20.9278 16.5078 22.2539 16.5078ZM28.7539 16.2578C28.7539 16.5893 28.6222 16.9073 28.3878 17.1417C28.1534 17.3761 27.8354 17.5078 27.5039 17.5078C27.1724 17.5078 26.8544 17.3761 26.62 17.1417C26.3856 16.9073 26.2539 16.5893 26.2539 16.2578C26.2539 15.9263 26.3856 15.6083 26.62 15.3739C26.8544 15.1395 27.1724 15.0078 27.5039 15.0078C27.8354 15.0078 28.1534 15.1395 28.3878 15.3739C28.6222 15.6083 28.7539 15.9263 28.7539 16.2578ZM22.2539 13.5078C19.7799 13.5078 19.3759 13.5148 18.2249 13.5658C17.4409 13.6028 16.9149 13.7078 16.4269 13.8978C15.9929 14.0658 15.6799 14.2668 15.3469 14.6008C15.0339 14.9032 14.7933 15.2724 14.6429 15.6808C14.4529 16.1708 14.3479 16.6958 14.3119 17.4788C14.2599 18.5828 14.2539 18.9688 14.2539 21.5078C14.2539 23.9818 14.2609 24.3858 14.3119 25.5368C14.3489 26.3198 14.4539 26.8468 14.6429 27.3338C14.8129 27.7688 15.0129 28.0818 15.3449 28.4138C15.6819 28.7498 15.9949 28.9508 16.4249 29.1168C16.9189 29.3078 17.4449 29.4138 18.2249 29.4498C19.3289 29.5018 19.7149 29.5078 22.2539 29.5078C24.7279 29.5078 25.1319 29.5008 26.2829 29.4498C27.0649 29.4128 27.5919 29.3078 28.0799 29.1188C28.5129 28.9498 28.8279 28.7488 29.1599 28.4168C29.4969 28.0798 29.6979 27.7668 29.8639 27.3368C30.0539 26.8438 30.1599 26.3168 30.1959 25.5368C30.2479 24.4328 30.2539 24.0468 30.2539 21.5078C30.2539 19.0338 30.2469 18.6298 30.1959 17.4788C30.1589 16.6968 30.0539 16.1688 29.8639 15.6808C29.7132 15.2728 29.473 14.9038 29.1609 14.6008C28.8586 14.2877 28.4894 14.047 28.0809 13.8968C27.5909 13.7068 27.0649 13.6018 26.2829 13.5658C25.1789 13.5138 24.7929 13.5078 22.2539 13.5078ZM22.2539 11.5078C24.9709 11.5078 25.3099 11.5178 26.3759 11.5678C27.4409 11.6178 28.1659 11.7848 28.8039 12.0328C29.4639 12.2868 30.0199 12.6308 30.5759 13.1858C31.0844 13.6857 31.4779 14.2904 31.7289 14.9578C31.9759 15.5948 32.1439 16.3208 32.1939 17.3858C32.2409 18.4518 32.2539 18.7908 32.2539 21.5078C32.2539 24.2248 32.2439 24.5638 32.1939 25.6298C32.1439 26.6948 31.9759 27.4198 31.7289 28.0578C31.4786 28.7256 31.085 29.3304 30.5759 29.8298C30.0759 30.3381 29.4712 30.7316 28.8039 30.9828C28.1669 31.2298 27.4409 31.3978 26.3759 31.4478C25.3099 31.4948 24.9709 31.5078 22.2539 31.5078C19.5369 31.5078 19.1979 31.4978 18.1319 31.4478C17.0669 31.3978 16.3419 31.2298 15.7039 30.9828C15.0362 30.7323 14.4314 30.3388 13.9319 29.8298C13.4233 29.33 13.0298 28.7253 12.7789 28.0578C12.5309 27.4208 12.3639 26.6948 12.3139 25.6298C12.2669 24.5638 12.2539 24.2248 12.2539 21.5078C12.2539 18.7908 12.2639 18.4518 12.3139 17.3858C12.3639 16.3198 12.5309 15.5958 12.7789 14.9578C13.0291 14.29 13.4227 13.6851 13.9319 13.1858C14.4316 12.677 15.0363 12.2835 15.7039 12.0328C16.3419 11.7848 17.0659 11.6178 18.1319 11.5678C19.1979 11.5208 19.5369 11.5078 22.2539 11.5078Z" fill="white"/>
</svg>
