<svg width="25" height="25" viewBox="0 0 25 25" fill="none" xmlns="http://www.w3.org/2000/svg">
<path d="M13.4219 18.9308C13.8458 18.8654 14.2795 18.938 14.6589 19.1378C15.2727 19.4605 15.9736 19.5784 16.6592 19.4743C17.3447 19.3702 17.979 19.0495 18.4693 18.5592C18.9596 18.0689 19.2803 17.4346 19.3844 16.7491C19.4885 16.0635 19.3706 15.3626 19.0479 14.7488C18.8481 14.3694 18.7755 13.9357 18.8409 13.5118C18.9993 12.5004 18.9164 11.4658 18.5992 10.4924C18.2819 9.51906 17.7393 8.63438 17.0153 7.91046C16.2914 7.18654 15.4067 6.64385 14.4333 6.32661C13.46 6.00936 12.4254 5.92653 11.4139 6.08485C10.9901 6.15026 10.5564 6.07769 10.1769 5.87785C9.56307 5.55494 8.86199 5.4369 8.17623 5.54098C7.49046 5.64507 6.85598 5.96583 6.36557 6.45635C5.87517 6.94687 5.55455 7.58142 5.45062 8.26721C5.34669 8.953 5.46489 9.65405 5.78794 10.2678C5.98779 10.6473 6.06036 11.081 5.99494 11.5048C5.83662 12.5163 5.91946 13.5509 6.2367 14.5243C6.55395 15.4976 7.09663 16.3823 7.82055 17.1062C8.54447 17.8302 9.42916 18.3728 10.4025 18.6901C11.3759 19.0073 12.4105 19.0902 13.4219 18.9318V18.9308ZM12.4179 21.0078C11.1908 21.0081 9.97816 20.7426 8.86337 20.2296C7.74857 19.7167 6.75807 18.9684 5.95992 18.0363C5.16178 17.1042 4.57492 16.0103 4.2397 14.8299C3.90447 13.6494 3.82882 12.4103 4.01794 11.1978C3.49668 10.2064 3.3062 9.07413 3.47435 7.96666C3.64251 6.85919 4.16047 5.83453 4.95255 5.04246C5.74463 4.25038 6.76928 3.73241 7.87676 3.56426C8.98423 3.3961 10.1165 3.58658 11.1079 4.10785C12.4302 3.9013 13.7826 4.0099 15.055 4.42482C16.3274 4.83974 17.4838 5.54925 18.4302 6.4956C19.3765 7.44194 20.086 8.59838 20.501 9.87077C20.9159 11.1432 21.0245 12.4955 20.8179 13.8178C21.3392 14.8093 21.5297 15.9416 21.3615 17.049C21.1934 18.1565 20.6754 19.1812 19.8833 19.9732C19.0913 20.7653 18.0666 21.2833 16.9591 21.4514C15.8517 21.6196 14.7194 21.4291 13.7279 20.9078C13.3009 20.9738 12.8629 21.0078 12.4179 21.0078ZM12.4709 17.5078C9.66794 17.5078 8.41794 16.1278 8.41794 15.0938C8.41794 14.5618 8.80794 14.1918 9.34594 14.1918C10.5459 14.1918 10.2329 15.9168 12.4709 15.9168C13.6139 15.9168 14.2469 15.2928 14.2469 14.6558C14.2469 14.2718 14.0589 13.8478 13.3039 13.6598L10.8139 13.0368C8.80794 12.5328 8.44394 11.4448 8.44394 10.4248C8.44394 8.30485 10.4359 7.50785 12.3079 7.50785C14.0279 7.50785 16.0639 8.46385 16.0639 9.73585C16.0639 10.2808 15.5839 10.5988 15.0519 10.5988C14.0289 10.5988 14.2169 9.18085 12.1519 9.18085C11.1289 9.18085 10.5559 9.64285 10.5559 10.3068C10.5559 10.9698 11.3589 11.1828 12.0579 11.3418L13.8939 11.7508C15.9079 12.2028 16.4179 13.3838 16.4179 14.4968C16.4179 16.2208 15.0929 17.5078 12.4329 17.5078H12.4709Z" fill="white"/>
</svg>
