<svg width="28" height="28" viewBox="0 0 28 28" fill="none" xmlns="http://www.w3.org/2000/svg">
<path d="M13.8946 24.6666C16.7235 24.6666 19.4366 23.5428 21.437 21.5424C23.4374 19.542 24.5612 16.8289 24.5612 14C24.5612 11.171 23.4374 8.45788 21.437 6.45749C19.4366 4.4571 16.7235 3.33329 13.8946 3.33329C11.0656 3.33329 8.35247 4.4571 6.35208 6.45749C4.35169 8.45788 3.22789 11.171 3.22789 14C3.22789 16.8289 4.35169 19.542 6.35208 21.5424C8.35247 23.5428 11.0656 24.6666 13.8946 24.6666ZM13.8946 27.3333C6.53055 27.3333 0.561218 21.364 0.561218 14C0.561218 6.63596 6.53055 0.666626 13.8946 0.666626C21.2586 0.666626 27.2279 6.63596 27.2279 14C27.2279 21.364 21.2586 27.3333 13.8946 27.3333ZM9.74789 15.56L6.41722 14.5213C5.69722 14.3013 5.69322 13.8053 6.57855 13.4493L19.5559 8.43596C20.3092 8.12929 20.7359 8.51729 20.4919 9.48929L18.2826 19.916C18.1279 20.6586 17.6812 20.836 17.0612 20.4933L13.6599 17.976L12.0746 19.5066C11.9119 19.664 11.7799 19.7986 11.5292 19.832C11.2799 19.8666 11.0746 19.792 10.9239 19.3786L9.76389 15.5506L9.74789 15.5613V15.56Z" fill="white"/>
</svg>
