<svg xmlns="http://www.w3.org/2000/svg" width="17.977" height="18" viewBox="0 0 17.977 18"><defs><style>.a{fill:#fefefe;}</style></defs><path class="a" d="M3.3,6.479a1.324,1.324,0,0,1,.337-.719l2.7-2.7q.315-.27.472.09l2.18,4.09a.589.589,0,0,1-.112.7l-.989.989a1.118,1.118,0,0,0-.315.7,3.431,3.431,0,0,0,.7,1.731,14.778,14.778,0,0,0,1.371,1.8l.7.718c.21.21.479.468.81.775a13.568,13.568,0,0,0,1.629,1.214,3.645,3.645,0,0,0,1.787.753.978.978,0,0,0,.719-.292l1.169-1.169a.494.494,0,0,1,.674-.09l3.934,2.315a.328.328,0,0,1,.18.236.287.287,0,0,1-.09.258l-2.7,2.7a1.321,1.321,0,0,1-.718.336,5.437,5.437,0,0,1-2.484-.3,11.239,11.239,0,0,1-2.561-1.225q-1.18-.764-2.191-1.55T8.88,16.48L8.3,15.917q-.224-.224-.6-.618t-1.294-1.55a22.572,22.572,0,0,1-1.6-2.259A13.176,13.176,0,0,1,3.642,8.985,5.331,5.331,0,0,1,3.3,6.479Z" transform="translate(-3.267 -2.947)"/></svg>