<svg xmlns="http://www.w3.org/2000/svg" width="40" height="40" viewBox="0 0 40 40"><defs><style>.a{fill:#ea4c89;}</style></defs><path class="a" d="M8.054,19.768a12.241,12.241,0,0,1,6.759-8.545,78.761,78.761,0,0,1,4.527,7.054A45.484,45.484,0,0,1,8.054,19.768Zm20.036-6.625a12.159,12.159,0,0,0-10.946-2.732A65.675,65.675,0,0,1,21.7,17.554,13.841,13.841,0,0,0,28.089,13.143Zm-15.58,18.75A12.179,12.179,0,0,0,24.768,33.5a50.375,50.375,0,0,0-2.607-9.25C17.241,25.929,13.786,29.286,12.509,31.893Zm8.821-9.661c-.3-.7-.643-1.384-.991-2.071A44.68,44.68,0,0,1,7.8,21.893c0,.125-.009.25-.009.375a12.18,12.18,0,0,0,3.134,8.161A18.926,18.926,0,0,1,21.33,22.232Zm3.116,1.455a52.175,52.175,0,0,1,2.366,8.7,12.215,12.215,0,0,0,5.232-8.179,17.8,17.8,0,0,0-7.6-.518Zm-1.812-4.321c.429.875.741,1.589,1.071,2.393a28.438,28.438,0,0,1,8.5.393,12.086,12.086,0,0,0-2.759-7.6,16.337,16.337,0,0,1-6.812,4.813ZM40,6.536V37.964a4.287,4.287,0,0,1-4.286,4.286H4.286A4.287,4.287,0,0,1,0,37.964V6.536A4.287,4.287,0,0,1,4.286,2.25H35.714A4.287,4.287,0,0,1,40,6.536ZM34.286,22.25A14.286,14.286,0,1,0,20,36.536,14.3,14.3,0,0,0,34.286,22.25Z" transform="translate(0 -2.25)"/></svg>