<svg xmlns="http://www.w3.org/2000/svg" width="40" height="40" viewBox="0 0 40 40"><defs><style>.a{fill:#dd4b39;}</style></defs><path class="a" d="M35.714,2.25H4.286A4.287,4.287,0,0,0,0,6.536V37.964A4.287,4.287,0,0,0,4.286,42.25H35.714A4.287,4.287,0,0,0,40,37.964V6.536A4.287,4.287,0,0,0,35.714,2.25ZM14.643,31.179a8.929,8.929,0,1,1,0-17.857,8.529,8.529,0,0,1,5.982,2.339l-2.42,2.33a5.009,5.009,0,0,0-3.554-1.375,5.644,5.644,0,0,0,0,11.286,4.844,4.844,0,0,0,5.071-3.848h-5.08V20.982h8.429a7.256,7.256,0,0,1,.143,1.482C23.214,27.562,19.795,31.179,14.643,31.179Zm19.643-7.3H31.7v2.589H29.089V23.875H26.5V21.268h2.589V18.679H31.7v2.589h2.589Z" transform="translate(0 -2.25)"/></svg>