<svg xmlns="http://www.w3.org/2000/svg" width="40" height="40" viewBox="0 0 40 40"><defs><style>.a{fill:#515bd4;}</style></defs><path class="a" d="M35.93,1.928H9.211A6.66,6.66,0,0,0,2.571,8.569V35.287a6.66,6.66,0,0,0,6.641,6.641H35.93a6.66,6.66,0,0,0,6.641-6.641V8.569A6.66,6.66,0,0,0,35.93,1.928Zm-20.555,17.5H29.766a7.617,7.617,0,1,1-14.391,0Zm22.2,0v15a2.507,2.507,0,0,1-2.5,2.5h-25a2.507,2.507,0,0,1-2.5-2.5v-15h3.91a11.367,11.367,0,1,0,22.179,0l3.91,0Zm0-8.752a1.254,1.254,0,0,1-1.25,1.25h-2.5a1.254,1.254,0,0,1-1.25-1.25v-2.5a1.254,1.254,0,0,1,1.25-1.25h2.5a1.254,1.254,0,0,1,1.25,1.25Z" transform="translate(-2.571 -1.928)"/></svg>