<svg xmlns="http://www.w3.org/2000/svg" width="40" height="40" viewBox="0 0 40 40"><defs><style>.a{fill:#0e76a8;}</style></defs><path class="a" d="M37.143,2.25H2.848A2.869,2.869,0,0,0,0,5.134V39.366A2.869,2.869,0,0,0,2.848,42.25H37.143A2.877,2.877,0,0,0,40,39.366V5.134A2.877,2.877,0,0,0,37.143,2.25ZM12.089,36.536H6.161V17.446H12.1V36.536Zm-2.964-21.7A3.438,3.438,0,1,1,12.563,11.4,3.439,3.439,0,0,1,9.125,14.839Zm25.187,21.7H28.384V27.25c0-2.214-.045-5.062-3.08-5.062-3.089,0-3.562,2.411-3.562,4.9v9.446H15.813V17.446H21.5v2.607h.08a6.244,6.244,0,0,1,5.616-3.08c6,0,7.116,3.955,7.116,9.1Z" transform="translate(0 -2.25)"/></svg>