<svg xmlns="http://www.w3.org/2000/svg" xmlns:xlink="http://www.w3.org/1999/xlink" width="40" height="40" viewBox="0 0 40 40"><defs><style>.a{fill:#fff;stroke:#707070;}.b{clip-path:url(#a);}.c{fill:#3c3748;}</style><clipPath id="a"><rect class="a" width="40" height="40" transform="translate(1197 929)"/></clipPath></defs><g class="b" transform="translate(-1197 -929)"><g transform="translate(1197 929)"><circle class="c" cx="4.679" cy="4.679" r="4.679" transform="translate(16.258 0)"/><circle class="c" cx="2.807" cy="2.807" r="2.807" transform="translate(18.13 34.386)"/><circle class="c" cx="4.211" cy="4.211" r="4.211" transform="translate(5.23 5.228)"/><circle class="c" cx="2.339" cy="2.339" r="2.339" transform="translate(30.093 30.09)"/><circle class="c" cx="3.742" cy="3.742" r="3.742" transform="translate(0.937 17.195)"/><circle class="c" cx="1.87" cy="1.87" r="1.87" transform="translate(35.323 19.065)"/><path class="c" d="M7.126,30.118a3.274,3.274,0,1,0,4.63,0A3.272,3.272,0,0,0,7.126,30.118Z"/><circle class="c" cx="1.403" cy="1.403" r="1.403" transform="translate(31.028 8.036)"/></g></g></svg>