<svg xmlns="http://www.w3.org/2000/svg" width="40.337" height="32.27" viewBox="0 0 40.337 32.27"><defs><style>.a{fill:#5f45ff;}</style></defs><path class="a" d="M31.261,14.118a9.076,9.076,0,1,0,9.076,9.076A9.071,9.071,0,0,0,31.261,14.118Zm4.034,9.472a.614.614,0,0,1-.612.612H30.865a.614.614,0,0,1-.612-.612V18.764a.614.614,0,0,1,.612-.612h.792a.614.614,0,0,1,.612.612v3.421h2.413a.614.614,0,0,1,.612.612ZM31.261,12.1c.34,0,.676.021,1.008.051V9.076a3.1,3.1,0,0,0-3.025-3.025H24.2V3.025A3.1,3.1,0,0,0,21.177,0H11.093A3.1,3.1,0,0,0,8.067,3.025V6.051H3.025A3.1,3.1,0,0,0,0,9.076v5.042H24.9A11.025,11.025,0,0,1,31.261,12.1ZM20.169,6.051H12.1V4.034h8.067Zm.43,14.118H13.11A1.008,1.008,0,0,1,12.1,19.16V16.135H0v9.076a3.1,3.1,0,0,0,3.025,3.025H21.393a10.944,10.944,0,0,1-.795-8.067Z"/></svg>