<svg width="24" height="24" viewBox="0 0 24 24" fill="none" xmlns="http://www.w3.org/2000/svg">
<path d="M21 3H3C1.9 3 1 3.9 1 5V19C1 20.1 1.9 21 3 21H21C22.1 21 23 20.1 23 19V5C23 3.9 22.1 3 21 3ZM20 19H4C3.45 19 3 18.55 3 18V6C3 5.45 3.45 5 4 5H20C20.55 5 21 5.45 21 6V18C21 18.55 20.55 19 20 19ZM8.05 15.54C7.72 13.64 9.16 12 11 12C11.35 12 11.69 12.07 12 12.18V8C12 6.9 12.9 6 14 6H16C16.55 6 17 6.45 17 7C17 7.55 16.55 8 16 8H14V15.03C13.98 16.85 12.34 18.29 10.45 17.95C9.24 17.74 8.25 16.75 8.05 15.54Z" fill="#5289E7"/>
</svg>
