<svg width="60" height="60" viewBox="0 0 60 60" fill="none" xmlns="http://www.w3.org/2000/svg">
<rect width="60" height="60" rx="10" fill="#5289E7"/>
<path d="M38 20H22C20.9 20 20.01 20.9 20.01 22L20 40L24 36H38C39.1 36 40 35.1 40 34V22C40 20.9 39.1 20 38 20ZM25 27H35C35.55 27 36 27.45 36 28C36 28.55 35.55 29 35 29H25C24.45 29 24 28.55 24 28C24 27.45 24.45 27 25 27ZM31 32H25C24.45 32 24 31.55 24 31C24 30.45 24.45 30 25 30H31C31.55 30 32 30.45 32 31C32 31.55 31.55 32 31 32ZM35 26H25C24.45 26 24 25.55 24 25C24 24.45 24.45 24 25 24H35C35.55 24 36 24.45 36 25C36 25.55 35.55 26 35 26Z" fill="white"/>
</svg>
