<svg width="59" height="59" viewBox="0 0 59 59" fill="none" xmlns="http://www.w3.org/2000/svg">
<path d="M29.5 59C45.7924 59 59 45.7924 59 29.5C59 13.2076 45.7924 0 29.5 0C13.2076 0 0 13.2076 0 29.5C0 45.7924 13.2076 59 29.5 59Z" fill="#5289E7"/>
<path d="M22.9075 26.9V29.71C22.9075 30.44 23.3076 31.12 23.9476 31.47L28.9476 34.2C29.5476 34.53 30.2675 34.53 30.8675 34.2L35.8675 31.47C36.5075 31.12 36.9075 30.44 36.9075 29.71V26.9L30.8675 30.2C30.2675 30.53 29.5476 30.53 28.9476 30.2L22.9075 26.9ZM28.9476 17.24L20.5175 21.84C19.8275 22.22 19.8275 23.22 20.5175 23.6L28.9476 28.2C29.5476 28.53 30.2675 28.53 30.8675 28.2L38.9075 23.81V29.72C38.9075 30.27 39.3575 30.72 39.9075 30.72C40.4575 30.72 40.9075 30.27 40.9075 29.72V23.31C40.9075 22.94 40.7075 22.61 40.3875 22.43L30.8675 17.24C30.2675 16.92 29.5476 16.92 28.9476 17.24Z" fill="white"/>
</svg>
