<svg width="35" height="35" viewBox="0 0 35 35" fill="none" xmlns="http://www.w3.org/2000/svg">
<path d="M17.6169 0.674042C9.01492 0.674042 9.55202 4.39473 9.55202 4.39473L9.56157 8.24947H17.7703V9.40677H6.30118C6.30118 9.40677 0.796753 8.78411 0.796753 17.441C0.796753 26.0982 5.60115 25.7911 5.60115 25.7911H8.4684V21.7739C8.4684 21.7739 8.31383 16.9819 13.1961 16.9819H21.3377C21.3377 16.9819 25.9119 17.0556 25.9119 12.5726V5.16004C25.9119 5.16004 26.6066 0.674042 17.6169 0.674042ZM13.0906 3.26628C13.2846 3.26611 13.4767 3.30409 13.656 3.37804C13.8352 3.452 13.9981 3.56049 14.1352 3.6973C14.2724 3.83411 14.3812 3.99655 14.4553 4.17533C14.5295 4.35412 14.5676 4.54573 14.5674 4.7392C14.5676 4.93268 14.5295 5.12429 14.4553 5.30307C14.3812 5.48185 14.2724 5.6443 14.1352 5.7811C13.9981 5.91791 13.8352 6.0264 13.656 6.10036C13.4767 6.17432 13.2846 6.2123 13.0906 6.21212C12.8967 6.2123 12.7045 6.17432 12.5253 6.10036C12.3461 6.0264 12.1832 5.91791 12.046 5.7811C11.9089 5.6443 11.8001 5.48185 11.7259 5.30307C11.6518 5.12429 11.6137 4.93268 11.6139 4.7392C11.6137 4.54573 11.6518 4.35412 11.7259 4.17533C11.8001 3.99655 11.9089 3.83411 12.046 3.6973C12.1832 3.56049 12.3461 3.452 12.5253 3.37804C12.7045 3.30409 12.8967 3.26611 13.0906 3.26628Z" fill="url(#paint0_linear)"/>
<path d="M17.8612 34.2951C26.4632 34.2951 25.9261 30.5744 25.9261 30.5744L25.9166 26.7198H17.7077V25.5625H29.1768C29.1768 25.5625 34.6813 26.1851 34.6813 17.528C34.6813 8.87095 29.8769 9.17797 29.8769 9.17797H27.0096V13.1951C27.0096 13.1951 27.1642 17.9871 22.2819 17.9871H14.1403C14.1403 17.9871 9.56609 17.9133 9.56609 22.3966V29.8092C9.56609 29.8092 8.87151 34.2951 17.8611 34.2951H17.8612ZM22.3875 31.7031C22.1935 31.7033 22.0014 31.6653 21.8222 31.5913C21.6429 31.5174 21.4801 31.4089 21.3429 31.2721C21.2057 31.1353 21.097 30.9728 21.0228 30.7941C20.9487 30.6153 20.9106 30.4237 20.9108 30.2302C20.9106 30.0367 20.9486 29.8451 21.0228 29.6663C21.0969 29.4875 21.2057 29.325 21.3429 29.1882C21.48 29.0514 21.6429 28.9429 21.8222 28.8689C22.0014 28.7949 22.1935 28.757 22.3875 28.7571C22.5815 28.757 22.7736 28.7949 22.9529 28.8689C23.1321 28.9429 23.295 29.0513 23.4321 29.1881C23.5693 29.325 23.6781 29.4874 23.7522 29.6662C23.8264 29.845 23.8644 30.0366 23.8643 30.23C23.8644 30.4235 23.8264 30.6151 23.7522 30.7939C23.6781 30.9727 23.5693 31.1351 23.4321 31.2719C23.295 31.4088 23.1321 31.5172 22.9529 31.5912C22.7736 31.6652 22.5815 31.7031 22.3875 31.703V31.7031Z" fill="url(#paint1_linear)"/>
<defs>
<linearGradient id="paint0_linear" x1="4.05304" y1="3.69805" x2="20.8021" y2="20.323" gradientUnits="userSpaceOnUse">
<stop stop-color="#387EB8"/>
<stop offset="1" stop-color="#366994"/>
</linearGradient>
<linearGradient id="paint1_linear" x1="14.3601" y1="14.3458" x2="32.3487" y2="31.3952" gradientUnits="userSpaceOnUse">
<stop stop-color="#FFE052"/>
<stop offset="1" stop-color="#FFC331"/>
</linearGradient>
</defs>
</svg>
