<svg width="21" height="24" viewBox="0 0 21 24" fill="none" xmlns="http://www.w3.org/2000/svg">
<path fill-rule="evenodd" clip-rule="evenodd" d="M18.6667 2.33333H17.5V1.16667C17.5 0.525 16.975 0 16.3333 0C15.6917 0 15.1667 0.525 15.1667 1.16667V2.33333H5.83333V1.16667C5.83333 0.525 5.30833 0 4.66667 0C4.025 0 3.5 0.525 3.5 1.16667V2.33333H2.33333C1.03833 2.33333 0.0116667 3.38333 0.0116667 4.66667L0 21C0 22.2833 1.03833 23.3333 2.33333 23.3333H18.6667C19.95 23.3333 21 22.2833 21 21V4.66667C21 3.38333 19.95 2.33333 18.6667 2.33333ZM18.6667 19.8333C18.6667 20.475 18.1417 21 17.5 21H3.5C2.85833 21 2.33333 20.475 2.33333 19.8333V8.16667H18.6667V19.8333ZM5.83333 10.5C5.189 10.5 4.66667 11.0223 4.66667 11.6667C4.66667 12.311 5.189 12.8333 5.83333 12.8333C6.47766 12.8333 7 12.311 7 11.6667C7 11.0223 6.47766 10.5 5.83333 10.5ZM9.33333 11.6667C9.33333 11.0223 9.85567 10.5 10.5 10.5C11.1443 10.5 11.6667 11.0223 11.6667 11.6667C11.6667 12.311 11.1443 12.8333 10.5 12.8333C9.85567 12.8333 9.33333 12.311 9.33333 11.6667ZM15.1667 10.5C14.5223 10.5 14 11.0223 14 11.6667C14 12.311 14.5223 12.8333 15.1667 12.8333C15.811 12.8333 16.3333 12.311 16.3333 11.6667C16.3333 11.0223 15.811 10.5 15.1667 10.5Z" fill="#4A5464"/>
</svg>
