<svg width="24" height="24" viewBox="0 0 24 24" fill="none" xmlns="http://www.w3.org/2000/svg">
<path fill-rule="evenodd" clip-rule="evenodd" d="M0 12C0 5.4 5.4 0 12 0C18.6 0 24 5.4 24 12C24 18.6 18.6 24 12 24C5.4 24 0 18.6 0 12ZM11.3643 13.548L16.2603 16.56C16.6923 16.824 17.2563 16.692 17.5203 16.272C17.7843 15.84 17.6403 15.276 17.2083 15.012L12.6003 12.24V6.9C12.6003 6.408 12.1923 6 11.7003 6C11.2083 6 10.8003 6.408 10.7883 6.9V12.528C10.7883 12.948 11.0043 13.332 11.3643 13.548Z" fill="#4A5464"/>
</svg>
