<svg width="18" height="18" viewBox="0 0 18 18" fill="none" xmlns="http://www.w3.org/2000/svg">
<path fill-rule="evenodd" clip-rule="evenodd" d="M0.666748 9.00008C0.666748 4.40008 4.40008 0.666748 9.00008 0.666748C13.6001 0.666748 17.3334 4.40008 17.3334 9.00008C17.3334 13.6001 13.6001 17.3334 9.00008 17.3334C4.40008 17.3334 0.666748 13.6001 0.666748 9.00008ZM9.998 13.86V13.4407C11.2667 13.2001 12.2657 12.4709 12.273 11.1365C12.273 9.29904 10.698 8.66467 9.22508 8.2855C7.75216 7.90633 7.27821 7.50529 7.27821 6.89279C7.27821 6.19279 7.93446 5.69696 9.02821 5.69696C10.1803 5.69696 10.6105 6.25112 10.647 7.0605H12.0761C12.0324 5.94487 11.3542 4.91675 9.998 4.58862V4.14019C9.998 3.60257 9.56217 3.16675 9.02456 3.16675C8.48695 3.16675 8.05112 3.60257 8.05112 4.14019V4.57404C6.79696 4.84383 5.78341 5.6605 5.78341 6.91466C5.78341 8.40946 7.023 9.15321 8.83133 9.59071C10.4574 9.97717 10.7782 10.5459 10.7782 11.1511C10.7782 11.5959 10.4574 12.3105 9.02821 12.3105C7.69383 12.3105 7.16883 11.7126 7.09591 10.947H5.66675C5.74696 12.3615 6.80425 13.1636 8.05112 13.4261V13.86C8.05112 14.3976 8.48695 14.8334 9.02456 14.8334C9.56217 14.8334 9.998 14.3976 9.998 13.86Z" fill="white"/>
</svg>
