<svg width="17" height="17" viewBox="0 0 17 17" fill="none" xmlns="http://www.w3.org/2000/svg">
<path fill-rule="evenodd" clip-rule="evenodd" d="M0.317139 8.65487C0.317139 4.07153 4.06714 0.321533 8.65047 0.321533C13.2338 0.321533 16.9838 4.07153 16.9838 8.65487C16.9838 13.2382 13.2338 16.9882 8.65047 16.9882C4.06714 16.9882 0.317139 13.2382 0.317139 8.65487ZM8.20909 9.72987L11.6091 11.8215C11.9091 12.0049 12.3008 11.9132 12.4841 11.6215C12.6674 11.3215 12.5674 10.9299 12.2674 10.7465L9.06742 8.82153V5.1132C9.06742 4.77153 8.78409 4.4882 8.44242 4.4882C8.10076 4.4882 7.81742 4.77153 7.80909 5.1132V9.02153C7.80909 9.3132 7.95909 9.57987 8.20909 9.72987Z" fill="white"/>
</svg>
