<svg width="26" height="18" viewBox="0 0 26 18" fill="none" xmlns="http://www.w3.org/2000/svg">
<path d="M10.123 7.97428C10.8462 7.88615 11.506 7.51782 11.9606 6.94843C12.4152 6.37905 12.6282 5.65407 12.554 4.92929C12.587 4.32812 12.493 3.72675 12.2782 3.16431C12.0634 2.60187 11.7326 2.09097 11.3072 1.66487C10.8819 1.23876 10.3715 0.907007 9.80949 0.691195C9.24743 0.475383 8.64622 0.380352 8.045 0.412287H0V16.9203H7.553C7.553 16.9203 13.106 16.7863 13.106 11.9203C13.105 11.9233 13.326 7.97428 10.123 7.97428ZM8.044 3.71328C8.044 3.71328 9.079 3.66029 9.079 5.31329C9.079 6.96629 8.508 7.01328 7.757 7.01328H3.3V3.71328H8.044ZM7.831 13.6193H3.3V9.49128H8.044C8.044 9.49128 9.722 9.52129 9.722 11.7293C9.722 13.5723 8.528 13.6183 7.832 13.6183L7.831 13.6193Z" fill="#1B33F2"/>
<path d="M19.8559 4.79297C13.7299 4.79297 13.7349 10.893 13.7349 10.893C13.6669 11.7136 13.7786 12.5393 14.0623 13.3124C14.3459 14.0855 14.7948 14.7874 15.3774 15.3693C15.9601 15.9512 16.6627 16.3991 17.4361 16.6818C18.2096 16.9644 19.0354 17.0751 19.8559 17.006C19.8559 17.006 25.3069 16.919 25.3069 12.792H22.5069C22.5069 12.792 22.4999 14.412 19.8549 14.469C19.5137 14.5224 19.1648 14.4948 18.8363 14.3883C18.5077 14.2818 18.2089 14.0995 17.9639 13.856C17.7189 13.6126 17.5347 13.315 17.4261 12.9871C17.3176 12.6593 17.2877 12.3105 17.3389 11.969H25.5899C25.5899 11.969 26.3049 4.79297 19.8559 4.79297ZM22.3419 9.49297H17.1079C17.2132 8.8263 17.5553 8.21993 18.0714 7.785C18.5875 7.35008 19.2431 7.11574 19.9179 7.12497C20.2356 7.10872 20.5532 7.15835 20.8508 7.27074C21.1484 7.38312 21.4196 7.55584 21.6472 7.77803C21.8748 8.00022 22.0541 8.26709 22.1736 8.56187C22.2932 8.85666 22.3505 9.17298 22.3419 9.49097V9.49297Z" fill="#1B33F2"/>
<path d="M23.115 1.23633H16.511V3.71233H23.115V1.23633Z" fill="#1B33F2"/>
</svg>
