<svg width="25" height="25" viewBox="0 0 25 25" fill="none" xmlns="http://www.w3.org/2000/svg">
<path d="M19.059 5.39764C19.7318 4.68932 20.1875 3.80298 20.372 2.84364C18.7549 1.45637 16.7915 0.534226 14.6912 0.175645C12.591 -0.182935 10.4328 0.0355017 8.44702 0.807642C10.6812 3.07426 12.5486 5.67512 13.982 8.51664C15.9002 7.89969 17.6417 6.82987 19.059 5.39764Z" fill="#1B33F2"/>
<path d="M20.1079 6.33579C18.5761 7.90976 16.6904 9.09499 14.6079 9.79279C14.8929 10.4168 15.1539 11.0548 15.4009 11.6998C16.5964 11.4382 17.8162 11.3041 19.0399 11.2998C20.9505 11.2984 22.8477 11.6171 24.6529 12.2428C24.6529 12.1628 24.6649 12.0838 24.6649 12.0028C24.6638 9.02685 23.547 6.15947 21.5349 3.9668C21.2211 4.84257 20.7353 5.64669 20.1059 6.33179L20.1079 6.33579Z" fill="#1B33F2"/>
<path d="M0.940918 9.47978C2.50646 9.75381 4.09258 9.89332 5.68192 9.89678C8.02995 9.90052 10.3673 9.58051 12.6279 8.94578C11.193 6.15596 9.3165 3.61652 7.07092 1.42578C5.5323 2.25138 4.18882 3.39764 3.13129 4.78709C2.07376 6.17655 1.32681 7.77683 0.940918 9.47978Z" fill="#1B33F2"/>
<path d="M24.53 13.695C22.7732 13.04 20.9128 12.7067 19.038 12.711C17.9743 12.7121 16.9134 12.8193 15.871 13.031C16.9299 16.2329 17.5174 19.5719 17.615 22.943C19.45 22.1041 21.0448 20.8176 22.2531 19.2017C23.4613 17.5858 24.2442 15.6923 24.53 13.695Z" fill="#1B33F2"/>
<path d="M0.666992 12.0063C0.68373 13.778 1.08892 15.5245 1.854 17.1225C2.61908 18.7206 3.72541 20.1313 5.09499 21.2553C5.39974 19.3059 6.26527 17.4873 7.58599 16.0213C9.33377 14.1342 11.5636 12.7602 14.035 12.0473C13.797 11.4323 13.535 10.8303 13.262 10.2363C10.7998 10.953 8.24741 11.3127 5.68299 11.3043C4.021 11.3007 2.36234 11.1555 0.724992 10.8703C0.688992 11.2453 0.666992 11.6233 0.666992 12.0073L0.666992 12.0063Z" fill="#1B33F2"/>
<path d="M8.63598 16.9561C7.31387 18.3922 6.52673 20.2398 6.40698 22.1881C7.85279 23.096 9.47735 23.6815 11.1699 23.9046C12.8625 24.1277 14.5833 23.9833 16.215 23.4811C16.1691 20.0425 15.5923 16.6316 14.505 13.3691C12.2568 14.0035 10.2266 15.2445 8.63698 16.9561H8.63598Z" fill="#1B33F2"/>
</svg>
