<?xml version="1.0" encoding="UTF-8"?>
<svg xmlns="http://www.w3.org/2000/svg" xmlns:xlink="http://www.w3.org/1999/xlink" width="60pt" height="60pt" viewBox="0 0 60 60" version="1.1">
<g id="surface5381702">
<path style=" stroke:none;fill-rule:nonzero;fill:rgb(6.27451%,30.588235%,98.431373%);fill-opacity:1;" d="M 19.996094 6 C 12.277344 6 6 12.285156 6 20.003906 L 6 40.003906 C 6 47.722656 12.285156 54 20.003906 54 L 40.003906 54 C 47.722656 54 54 47.714844 54 39.996094 L 54 19.996094 C 54 12.277344 47.714844 6 39.996094 6 Z M 44 14 C 45.105469 14 46 14.894531 46 16 C 46 17.105469 45.105469 18 44 18 C 42.894531 18 42 17.105469 42 16 C 42 14.894531 42.894531 14 44 14 Z M 30 18 C 36.617188 18 42 23.382812 42 30 C 42 36.617188 36.617188 42 30 42 C 23.382812 42 18 36.617188 18 30 C 18 23.382812 23.382812 18 30 18 Z M 30 22 C 25.582031 22 22 25.582031 22 30 C 22 34.417969 25.582031 38 30 38 C 34.417969 38 38 34.417969 38 30 C 38 25.582031 34.417969 22 30 22 Z M 30 22 "/>
</g>
</svg>
