<svg width="23" height="23" viewBox="0 0 23 23" fill="none" xmlns="http://www.w3.org/2000/svg">
<path d="M16.712 0.0078125H6.62197C5.04335 0.00992966 3.53 0.638041 2.41384 1.75439C1.29768 2.87074 0.669821 4.38419 0.667969 5.96281L0.667969 16.0528C0.669821 17.6314 1.29768 19.1449 2.41384 20.2612C3.53 21.3776 5.04335 22.0057 6.62197 22.0078H16.712C18.2909 22.0062 19.8048 21.3783 20.9214 20.2619C22.038 19.1455 22.6661 17.6318 22.668 16.0528V5.96281C22.6661 4.38384 22.038 2.87009 20.9214 1.75368C19.8048 0.637278 18.2909 0.00940045 16.712 0.0078125V0.0078125ZM11.668 17.0238C10.4781 17.024 9.31484 16.6713 8.32539 16.0104C7.33593 15.3495 6.56469 14.41 6.1092 13.3107C5.65371 12.2115 5.53443 11.0018 5.76644 9.83476C5.99846 8.66771 6.57135 7.59566 7.41266 6.75421C8.25397 5.91276 9.32592 5.33969 10.4929 5.10748C11.66 4.87527 12.8696 4.99435 13.969 5.44966C15.0683 5.90496 16.0079 6.67605 16.669 7.6654C17.3301 8.65475 17.683 9.81792 17.683 11.0078C17.6814 12.6027 17.0472 14.1318 15.9195 15.2597C14.7919 16.3875 13.2628 17.022 11.668 17.0238ZM17.827 6.40781C17.4753 6.40781 17.1316 6.30353 16.8392 6.10817C16.5468 5.9128 16.3189 5.63511 16.1843 5.31022C16.0497 4.98534 16.0145 4.62784 16.0831 4.28294C16.1517 3.93804 16.3211 3.62123 16.5697 3.37258C16.8184 3.12392 17.1352 2.95458 17.4801 2.88598C17.825 2.81737 18.1825 2.85258 18.5074 2.98715C18.8323 3.12173 19.11 3.34962 19.3053 3.64201C19.5007 3.9344 19.605 4.27816 19.605 4.62981C19.6047 5.10129 19.4173 5.55337 19.0839 5.88676C18.7505 6.22014 18.2984 6.40755 17.827 6.40781Z" fill="#1B33F2"/>
<path d="M11.6669 6.28125C10.7322 6.28125 9.81848 6.55841 9.0413 7.07771C8.26411 7.59701 7.65836 8.33512 7.30067 9.19868C6.94297 10.0622 6.84938 11.0125 7.03173 11.9292C7.21408 12.846 7.6642 13.6881 8.32514 14.349C8.98608 15.01 9.82817 15.4601 10.7449 15.6424C11.6617 15.8248 12.6119 15.7312 13.4755 15.3735C14.339 15.0158 15.0771 14.4101 15.5964 13.6329C16.1157 12.8557 16.3929 11.942 16.3929 11.0072C16.3916 9.75424 15.8932 8.55293 15.0072 7.66692C14.1212 6.78091 12.9199 6.28257 11.6669 6.28125Z" fill="#1B33F2"/>
<path d="M17.827 4.14453C17.7305 4.14453 17.6361 4.17315 17.5559 4.22677C17.4756 4.28039 17.4131 4.35661 17.3761 4.44578C17.3392 4.53495 17.3295 4.63307 17.3484 4.72773C17.3672 4.82239 17.4137 4.90935 17.4819 4.9776C17.5502 5.04585 17.6371 5.09232 17.7318 5.11115C17.8265 5.12998 17.9246 5.12032 18.0137 5.08338C18.1029 5.04645 18.1791 4.9839 18.2327 4.90365C18.2864 4.8234 18.315 4.72905 18.315 4.63253C18.315 4.5031 18.2636 4.37898 18.1721 4.28746C18.0805 4.19594 17.9564 4.14453 17.827 4.14453Z" fill="#1B33F2"/>
</svg>
