<svg width="22" height="21" viewBox="0 0 22 21" fill="none" xmlns="http://www.w3.org/2000/svg">
<path d="M5.4539 6.60156H1.3259C1.23784 6.60156 1.1534 6.63654 1.09114 6.6988C1.02887 6.76106 0.993896 6.8455 0.993896 6.93356V20.1956C0.993896 20.2836 1.02887 20.3681 1.09114 20.4303C1.1534 20.4926 1.23784 20.5276 1.3259 20.5276H5.4539C5.54195 20.5276 5.62639 20.4926 5.68866 20.4303C5.75092 20.3681 5.7859 20.2836 5.7859 20.1956V6.93356C5.7859 6.8455 5.75092 6.76106 5.68866 6.6988C5.62639 6.63654 5.54195 6.60156 5.4539 6.60156Z" fill="#1B33F2"/>
<path d="M3.39095 0.0078125C2.85254 0.00781254 2.32623 0.16748 1.87858 0.466622C1.43093 0.765763 1.08204 1.19094 0.876051 1.68838C0.670058 2.18582 0.616212 2.73317 0.721322 3.26122C0.826432 3.78926 1.08578 4.27427 1.46656 4.65491C1.84733 5.03555 2.33244 5.29472 2.86052 5.39963C3.38861 5.50455 3.93594 5.4505 4.4333 5.24433C4.93067 5.03815 5.35572 4.68911 5.65469 4.24135C5.95367 3.79358 6.11314 3.26722 6.11295 2.72881C6.11162 2.00739 5.82439 1.31591 5.31417 0.805882C4.80395 0.295854 4.11237 0.00886987 3.39095 0.0078125Z" fill="#1B33F2"/>
<path d="M15.954 6.27052C15.2765 6.25683 14.6038 6.38529 13.979 6.64761C13.3543 6.90994 12.7915 7.30029 12.327 7.79352V6.93252C12.327 6.84446 12.292 6.76002 12.2297 6.69776C12.1675 6.6355 12.083 6.60052 11.995 6.60052H8.04196C7.95391 6.60052 7.86946 6.6355 7.8072 6.69776C7.74494 6.76002 7.70996 6.84446 7.70996 6.93252V20.1945C7.70996 20.2826 7.74494 20.367 7.8072 20.4293C7.86946 20.4915 7.95391 20.5265 8.04196 20.5265H12.161C12.249 20.5265 12.3335 20.4915 12.3957 20.4293C12.458 20.367 12.493 20.2826 12.493 20.1945V13.6335C12.493 11.4225 13.093 10.5615 14.635 10.5615C16.314 10.5615 16.447 11.9425 16.447 13.7475V20.1955C16.447 20.2836 16.4819 20.368 16.5442 20.4303C16.6065 20.4925 16.6909 20.5275 16.779 20.5275H20.9C20.988 20.5275 21.0725 20.4925 21.1347 20.4303C21.197 20.368 21.232 20.2836 21.232 20.1955V12.9195C21.234 9.63152 20.603 6.27052 15.954 6.27052Z" fill="#1B33F2"/>
</svg>
