<svg width="19" height="24" viewBox="0 0 19 24" fill="none" xmlns="http://www.w3.org/2000/svg">
<path d="M16.4 2.36406C14.7265 0.809152 12.5149 -0.0358058 10.231 0.00705677C8.91401 -0.0432038 7.60063 0.175431 6.37098 0.649617C5.14133 1.1238 4.0212 1.84359 3.07897 2.76506C1.56952 4.26128 0.704354 6.28802 0.667969 8.41306C0.667969 10.9731 1.73897 12.9381 3.53197 13.6691C3.64599 13.717 3.76829 13.7421 3.89197 13.7431C4.07675 13.7424 4.25561 13.6778 4.39816 13.5602C4.54071 13.4426 4.63817 13.2793 4.67397 13.0981C4.73497 12.8701 4.87397 12.3081 4.93597 12.0641C5.00158 11.8831 5.01189 11.6868 4.9656 11.5C4.9193 11.3132 4.81848 11.1444 4.67597 11.0151C4.14782 10.3745 3.87691 9.56035 3.91597 8.73106C3.91045 7.95489 4.06216 7.18565 4.36195 6.46969C4.66175 5.75374 5.10341 5.10591 5.66033 4.56525C6.21724 4.0246 6.87787 3.60231 7.60239 3.32386C8.32691 3.04541 9.10031 2.91655 9.87597 2.94506C12.948 2.94506 14.856 4.69106 14.856 7.50206C14.896 9.1101 14.5257 10.7018 13.78 12.1271C13.5441 12.64 13.176 13.0809 12.7135 13.4046C12.251 13.7283 11.7106 13.9231 11.148 13.9691C10.8837 13.9754 10.6214 13.9216 10.381 13.8118C10.1405 13.702 9.92819 13.539 9.75997 13.3351C9.6111 13.1403 9.50897 12.9139 9.46146 12.6735C9.41395 12.433 9.42234 12.1848 9.48597 11.9481C9.62297 11.3681 9.80997 10.7641 9.98597 10.1791C10.3286 9.25239 10.5443 8.28359 10.627 7.29906C10.6564 7.00666 10.6238 6.71135 10.5314 6.43239C10.4389 6.15343 10.2888 5.89709 10.0906 5.68007C9.89248 5.46305 9.65081 5.29024 9.38139 5.17289C9.11196 5.05555 8.82083 4.99632 8.52697 4.99906C6.92697 4.99906 5.67397 6.62406 5.67397 8.69906C5.67022 9.40827 5.80367 10.1115 6.06697 10.7701C5.86697 11.6241 4.66697 16.7011 4.43997 17.6581C4.30897 18.2171 3.51697 22.6311 4.82697 22.9831C6.29897 23.3831 7.61397 19.0831 7.74797 18.5941C7.85697 18.1941 8.23597 16.7051 8.46897 15.7871C9.28313 16.5221 10.3401 16.9306 11.437 16.9341C12.4687 16.9357 13.4865 16.6961 14.4091 16.2344C15.3318 15.7727 16.1337 15.1018 16.751 14.2751C18.1139 12.3773 18.8165 10.0847 18.751 7.74906C18.7403 6.73967 18.5266 5.74276 18.1227 4.81764C17.7188 3.89252 17.133 3.05811 16.4 2.36406Z" fill="#1B33F2"/>
</svg>
