<?xml version="1.0" encoding="UTF-8"?>
<svg xmlns="http://www.w3.org/2000/svg" xmlns:xlink="http://www.w3.org/1999/xlink" width="30pt" height="30pt" viewBox="0 0 30 30" version="1.1">
<g id="surface5328785">
<path style=" stroke:none;fill-rule:nonzero;fill:rgb(6.27451%,30.588235%,98.431373%);fill-opacity:1;" d="M 26.882812 16.578125 C 26.953125 16.0625 27 15.535156 27 15 C 27 8.371094 21.628906 3 15 3 C 14.464844 3 13.9375 3.046875 13.421875 3.117188 C 12.277344 2.414062 10.9375 2 9.5 2 C 5.359375 2 2 5.359375 2 9.5 C 2 10.9375 2.414062 12.277344 3.117188 13.421875 C 3.046875 13.9375 3 14.464844 3 15 C 3 21.628906 8.371094 27 15 27 C 15.535156 27 16.0625 26.953125 16.578125 26.882812 C 17.722656 27.585938 19.0625 28 20.5 28 C 24.640625 28 28 24.640625 28 20.5 C 28 19.0625 27.585938 17.722656 26.882812 16.578125 Z M 15.148438 22 C 11.253906 22 9.015625 19.957031 9.015625 17.953125 C 9.015625 16.933594 10.085938 16.605469 10.515625 16.605469 C 11.503906 16.605469 11.832031 17.410156 12.011719 17.78125 C 13.015625 19.847656 13.984375 19.574219 14.933594 19.664062 C 15.777344 19.746094 17.75 19.375 17.75 17.933594 C 17.75 17.792969 17.96875 16.855469 16.261719 16.390625 C 15.175781 16.09375 13.253906 15.726562 11.675781 15.121094 C 10.1875 14.546875 9.316406 13.371094 9.316406 11.851562 C 9.316406 11.09375 9.703125 8 14.96875 8 C 18.480469 8 20.351562 9.800781 20.351562 11.382812 C 20.351562 11.746094 20.210938 12.066406 19.933594 12.355469 C 19.652344 12.644531 18.867188 13.066406 18.007812 12.515625 C 17.789062 12.378906 17.609375 12.089844 17.398438 11.714844 C 17.140625 11.242188 16.71875 10.332031 14.773438 10.332031 C 12.890625 10.332031 12.367188 11.230469 12.367188 11.605469 C 12.367188 12.867188 14.769531 13.132812 15.417969 13.300781 C 17.773438 13.90625 20.984375 14.464844 20.984375 17.644531 C 20.984375 21.296875 17.183594 22 15.148438 22 Z M 15.148438 22 "/>
</g>
</svg>
