<svg width="26" height="23" viewBox="0 0 26 23" fill="none" xmlns="http://www.w3.org/2000/svg">
<path d="M10.524 1.74022L5.712 5.34022H1.318C0.968077 5.34127 0.632848 5.48102 0.38579 5.72883C0.138731 5.97664 -1.60176e-06 6.31229 0 6.66222L0 15.8462C0.00105509 16.1954 0.140254 16.5301 0.387199 16.777C0.634143 17.024 0.968769 17.1632 1.318 17.1642H5.713L10.525 20.7642C10.7202 20.9135 10.9535 21.005 11.1982 21.0282C11.4429 21.0514 11.6892 21.0054 11.909 20.8955C12.1289 20.7855 12.3134 20.616 12.4416 20.4063C12.5697 20.1965 12.6364 19.955 12.634 19.7092V2.79822C12.636 2.55247 12.569 2.31109 12.4408 2.10145C12.3126 1.89182 12.1281 1.72231 11.9085 1.61215C11.6888 1.502 11.4426 1.45561 11.1979 1.47825C10.9532 1.50088 10.7197 1.59164 10.524 1.74022Z" fill="#1B33F2"/>
<path d="M16.988 3.89342C16.8453 3.75035 16.6757 3.63679 16.4891 3.55923C16.3025 3.48168 16.1024 3.44164 15.9003 3.44141C15.6982 3.44118 15.498 3.48075 15.3112 3.55788C15.1244 3.63501 14.9546 3.74818 14.8115 3.89093C14.6684 4.03367 14.5549 4.2032 14.4773 4.38983C14.3998 4.57647 14.3597 4.77655 14.3595 4.97866C14.3593 5.18076 14.3988 5.38094 14.476 5.56775C14.5531 5.75456 14.6663 5.92435 14.809 6.06743C16.1809 7.44007 16.9515 9.30129 16.9515 11.2419C16.9515 13.1826 16.1809 15.0438 14.809 16.4164C14.5237 16.7065 14.3639 17.0971 14.3639 17.5039C14.3639 17.9108 14.5237 18.3013 14.809 18.5914C14.9511 18.7326 15.1199 18.8442 15.3055 18.9196C15.4911 18.995 15.6898 19.0328 15.8901 19.0307C16.0904 19.0287 16.2883 18.9868 16.4724 18.9076C16.6564 18.8285 16.8228 18.7135 16.962 18.5694C17.9322 17.6102 18.7029 16.4685 19.2297 15.21C19.7565 13.9515 20.029 12.6011 20.0314 11.2368C20.0338 9.87254 19.7661 8.52125 19.2438 7.26089C18.7215 6.00054 17.9548 4.85605 16.988 3.89342Z" fill="#1B33F2"/>
<path d="M18.698 0.443902C18.4129 0.734114 18.2532 1.12463 18.2532 1.5314C18.2532 1.93818 18.4129 2.32869 18.698 2.6189C19.8333 3.75208 20.7341 5.09804 21.3486 6.57974C21.9632 8.06144 22.2796 9.6498 22.2796 11.2539C22.2796 12.858 21.9632 14.4464 21.3486 15.9281C20.7341 17.4098 19.8333 18.7557 18.698 19.8889C18.4851 20.105 18.3403 20.3788 18.2816 20.6763C18.2229 20.9739 18.2529 21.2822 18.3678 21.5629C18.4827 21.8436 18.6775 22.0844 18.928 22.2554C19.1785 22.4264 19.4737 22.5201 19.777 22.5249C20.1797 22.526 20.5667 22.3683 20.854 22.0859C22.2748 20.667 23.402 18.982 24.1711 17.1271C24.9402 15.2722 25.336 13.2839 25.336 11.2759C25.336 9.26791 24.9402 7.27961 24.1711 5.42473C23.402 3.56985 22.2748 1.88478 20.854 0.465902C20.7152 0.320527 20.5488 0.204413 20.3644 0.124408C20.1801 0.0444036 19.9815 0.00212886 19.7806 7.83532e-05C19.5796 -0.00197216 19.3803 0.036243 19.1944 0.112469C19.0084 0.188696 18.8396 0.301389 18.698 0.443902Z" fill="#1B33F2"/>
</svg>
