<svg width="27" height="23" viewBox="0 0 27 23" fill="none" xmlns="http://www.w3.org/2000/svg">
<path d="M26.175 11.8154C26.1033 11.6916 26.0076 11.5834 25.8936 11.4971C25.7796 11.4108 25.6494 11.3481 25.5108 11.3127C25.3723 11.2773 25.228 11.27 25.0866 11.291C24.9451 11.3121 24.8093 11.3611 24.687 11.4354L21.079 13.5244L20.161 14.0624V19.0624L21.016 19.5684C21.048 19.5684 21.048 19.6004 21.079 19.6004L24.624 21.6574C24.7975 21.7854 25.0085 21.8522 25.224 21.8474C25.3657 21.8486 25.5061 21.8216 25.6372 21.7679C25.7683 21.7143 25.8874 21.635 25.9875 21.5349C26.0877 21.4347 26.1669 21.3156 26.2206 21.1845C26.2742 21.0535 26.3012 20.913 26.3 20.7714V16.5344L26.332 12.3564C26.3445 12.1632 26.289 11.9718 26.175 11.8154Z" fill="#1B33F2"/>
<path d="M5.1 10.2C6.10899 10.2 7.0953 9.90071 7.93414 9.34001C8.77298 8.7793 9.42666 7.98238 9.81246 7.05007C10.1983 6.11776 10.2988 5.09196 10.1015 4.10247C9.90414 3.11297 9.41772 2.20425 8.70377 1.49128C7.98982 0.778314 7.08043 0.293139 6.09067 0.0971454C5.1009 -0.098848 4.07524 0.00314808 3.14346 0.390229C2.21168 0.777309 1.41566 1.43208 0.856105 2.27169C0.296552 3.1113 -0.00138007 4.09802 4.80612e-06 5.107C-0.000127491 5.77645 0.131749 6.43936 0.388087 7.05778C0.644425 7.67621 1.02019 8.23802 1.49389 8.71107C1.96759 9.18412 2.52991 9.55911 3.14869 9.8146C3.76747 10.0701 4.43056 10.2011 5.1 10.2ZM5.1 3.015C5.51287 3.01579 5.91624 3.13891 6.25919 3.3688C6.60213 3.59869 6.86926 3.92504 7.02685 4.30665C7.18443 4.68826 7.22541 5.10801 7.14459 5.51289C7.06378 5.91777 6.86481 6.28963 6.5728 6.5815C6.28079 6.87337 5.90883 7.07217 5.50392 7.15279C5.099 7.23341 4.67927 7.19223 4.29773 7.03446C3.9162 6.87669 3.58997 6.60941 3.36025 6.26635C3.13052 5.9233 3.0076 5.51987 3.007 5.107C3.00113 4.83063 3.05127 4.55593 3.1544 4.29945C3.25753 4.04297 3.41152 3.81003 3.60708 3.61465C3.80264 3.41927 4.03574 3.26551 4.29231 3.16263C4.54889 3.05974 4.82364 3.00987 5.1 3.016V3.015Z" fill="#1B33F2"/>
<path d="M18.01 10.4859C17.167 10.917 16.2348 11.1447 15.288 11.1509C14.1178 11.1566 12.9722 10.8152 11.996 10.1699H8.38801C7.41181 10.8152 6.2662 11.1566 5.09601 11.1509C4.14738 11.1601 3.21156 10.9315 2.37401 10.4859C2.00162 10.7016 1.69193 11.0107 1.47552 11.3827C1.25911 11.7546 1.14347 12.1766 1.14001 12.6069V20.3299C1.14239 21.0092 1.41328 21.66 1.89361 22.1403C2.37394 22.6207 3.02473 22.8915 3.70401 22.8939H16.712C17.3913 22.8915 18.0421 22.6207 18.5224 22.1403C19.0027 21.66 19.2736 21.0092 19.276 20.3299V12.6069C19.2598 12.1756 19.1353 11.7553 18.9141 11.3846C18.6928 11.014 18.3819 10.705 18.01 10.4859Z" fill="#1B33F2"/>
<path d="M15.288 10.2C16.2967 10.2 17.2827 9.90089 18.1214 9.3405C18.9601 8.7801 19.6138 7.98359 19.9998 7.05169C20.3858 6.11978 20.4868 5.09434 20.29 4.10504C20.0932 3.11574 19.6075 2.207 18.8942 1.49376C18.181 0.780509 17.2723 0.294782 16.2829 0.0979971C15.2936 -0.0987875 14.2682 0.00221047 13.3363 0.388217C12.4044 0.774224 11.6079 1.4279 11.0475 2.26659C10.4871 3.10528 10.188 4.09132 10.188 5.1C10.1869 5.77004 10.3181 6.4337 10.5741 7.05293C10.83 7.67217 11.2056 8.23481 11.6794 8.7086C12.1532 9.18238 12.7158 9.55801 13.3351 9.81393C13.9543 10.0699 14.6179 10.2011 15.288 10.2ZM15.288 3.015C15.7012 3.015 16.105 3.13752 16.4486 3.36706C16.7921 3.59661 17.0599 3.92286 17.218 4.30458C17.3761 4.68629 17.4175 5.10632 17.3369 5.51155C17.2563 5.91677 17.0573 6.289 16.7651 6.58115C16.473 6.8733 16.1008 7.07226 15.6955 7.15286C15.2903 7.23347 14.8703 7.1921 14.4886 7.03399C14.1068 6.87587 13.7806 6.60812 13.551 6.26459C13.3215 5.92105 13.199 5.51717 13.199 5.104C13.1989 4.82968 13.2528 4.55802 13.3578 4.30457C13.4627 4.05112 13.6166 3.82084 13.8106 3.62692C14.0046 3.43299 14.235 3.27921 14.4885 3.17439C14.742 3.06956 15.0137 3.01574 15.288 3.016V3.015Z" fill="#1B33F2"/>
</svg>
