<svg width="24" height="24" viewBox="0 0 24 24" fill="none" xmlns="http://www.w3.org/2000/svg">
<path d="M19.4 10C18.7 6.6 15.7 4 12 4C9.1 4 6.6 5.6 5.4 8C2.3 8.4 0 10.9 0 14C0 17.3 2.7 20 6 20H19C21.8 20 24 17.8 24 15C24 12.4 21.9 10.2 19.4 10ZM15.7929 13C16.2383 13 16.4614 13.5386 16.1464 13.8536L12.3536 17.6464C12.1583 17.8417 11.8417 17.8417 11.6464 17.6464L7.85355 13.8536C7.53857 13.5386 7.76165 13 8.20711 13H10V9.5C10 9.22386 10.2239 9 10.5 9H13.5C13.7761 9 14 9.22386 14 9.5V13H15.7929Z" fill="#05A4F4"/>
</svg>
