<svg width="24" height="24" viewBox="0 0 24 24" fill="none" xmlns="http://www.w3.org/2000/svg">
<path d="M1.81022 7.09628C1.27004 7.63649 1 8.2831 1 9.03595V19.2502C1 20.0033 1.27004 20.6499 1.81022 21.19C2.35044 21.7303 2.99704 22.0002 3.75002 22.0002H4.53569V6.28589H3.75002C2.99687 6.28589 2.35031 6.55606 1.81022 7.09628Z" fill="#FFA368"/>
<path d="M16.7149 4.32122C16.7149 3.99381 16.6003 3.7156 16.3711 3.4864C16.1421 3.25721 15.8637 3.1427 15.5364 3.1427H8.46487C8.13755 3.1427 7.85929 3.25721 7.63005 3.4864C7.40086 3.71547 7.2863 3.99377 7.2863 4.32122V6.28544H5.71484V21.9998H18.2865V6.28544H16.7149V4.32122ZM15.1435 6.28544H8.85772V4.71407H15.1435V6.28544Z" fill="#FFA368"/>
<path d="M22.1904 7.09628C21.6502 6.5561 21.0036 6.28589 20.2506 6.28589H19.4648V22.0002H20.2506C21.0036 22.0002 21.6502 21.7303 22.1904 21.19C22.7305 20.6499 23.0007 20.0033 23.0007 19.2502V9.03595C23.0006 8.2831 22.7304 7.63649 22.1904 7.09628Z" fill="#FFA368"/>
</svg>
