<svg width="24" height="24" viewBox="0 0 24 24" fill="none" xmlns="http://www.w3.org/2000/svg">
<path d="M12 3C7.02972 3 3 7.02954 3 12C3 16.9703 7.02972 21.0002 12 21.0002C16.9706 21.0002 21 16.9703 21 12C21 7.02954 16.9707 3 12 3ZM11.0645 14.6723C11.0645 15.2422 10.6025 15.7042 10.0327 15.7042C9.46278 15.7042 9.00078 15.2422 9.00078 14.6723V9.3276C9.00078 8.75772 9.46278 8.29572 10.0327 8.29572C10.6025 8.29572 11.0645 8.75772 11.0645 9.3276V14.6723ZM14.9372 14.6723C14.9372 15.2422 14.4752 15.7042 13.9054 15.7042C13.3355 15.7042 12.8735 15.2422 12.8735 14.6723V9.3276C12.8735 8.75772 13.3355 8.29572 13.9054 8.29572C14.4752 8.29572 14.9372 8.75772 14.9372 9.3276V14.6723Z" fill="#05A4F4"/>
</svg>
