<svg width="24" height="24" viewBox="0 0 24 24" fill="none" xmlns="http://www.w3.org/2000/svg">
<path d="M10.7539 11.1797H11.0352C11.6445 11.1797 12.1211 11.0625 12.4609 10.8164C12.8008 10.5703 12.9727 10.2227 12.9727 9.76953C12.9727 9.46875 12.8633 9.24414 12.6445 9.09961C12.4258 8.95508 12.0977 8.875 11.6641 8.875H11.293C11.0508 8.875 10.8086 9.07422 10.7539 9.30859L10.4141 10.7539C10.3633 10.9883 10.5156 11.1797 10.7539 11.1797Z" fill="#FFA368"/>
<path d="M16.6094 2H7.39063C4.41406 2 2 4.41406 2 7.39063V16.6094C2 19.5859 4.41406 22 7.39063 22H16.6094C19.5859 22 22 19.5859 22 16.6094V7.39063C22 4.41406 19.5859 2 16.6094 2ZM7.47656 14.7383L9.07422 7.89844C9.12891 7.66406 9.375 7.46875 9.61719 7.46875H11.9805C12.4883 7.46875 12.9336 7.50391 13.3125 7.57422C13.6914 7.64062 14.0195 7.75977 14.2969 7.93164C14.5664 8.09961 14.7734 8.31934 14.918 8.58887C15.0625 8.8584 15.1328 9.19481 15.1328 9.59715C15.1328 10.5112 14.7461 11.2575 13.9766 11.8161C13.2031 12.3748 12.1289 12.6641 10.7461 12.6641H10.4219C10.1758 12.6641 9.93359 12.8477 9.87891 13.082L9.48828 14.7344C9.4375 14.9688 9.19141 15.1641 8.95313 15.1641H7.82031C7.57422 15.1641 7.42188 14.9727 7.47656 14.7383ZM15.3867 13.1953C14.6133 13.7539 13.5391 14.0313 12.1563 14.0313H11.832C11.5859 14.0313 11.3438 14.2266 11.2891 14.4609L10.8984 16.1113C10.8477 16.3457 10.6016 16.5313 10.3594 16.5313H9.22656C8.98047 16.5313 8.82812 16.3555 8.88281 16.1211L8.94531 15.8672H9.65234C9.89453 15.8672 10.1367 15.668 10.1914 15.4336L10.5781 13.7656C10.6328 13.5313 10.8789 13.3281 11.1211 13.3281H11.4453C12.8281 13.3281 13.9063 13.0586 14.6758 12.4961C15.4453 11.9375 15.832 11.2031 15.832 10.2891C15.832 9.88672 15.7617 9.55273 15.6172 9.2832C15.6484 9.29883 15.6719 9.30762 15.707 9.32324C15.9766 9.49121 16.1836 9.71047 16.3281 9.98C16.4727 10.2495 16.543 10.5838 16.543 10.9861C16.543 11.9002 16.1563 12.6367 15.3867 13.1953Z" fill="#FFA368"/>
</svg>
