<svg width="24" height="24" viewBox="0 0 24 24" fill="none" xmlns="http://www.w3.org/2000/svg">
<path fill-rule="evenodd" clip-rule="evenodd" d="M16.6813 14.9781L19.2213 15.2681C20.2313 15.3881 20.9913 16.2381 20.9813 17.2481V18.9781C20.9813 20.1081 20.0413 21.0481 18.9113 20.9781C10.3813 20.4481 3.55125 13.6281 3.02125 5.08807C2.95125 3.95807 3.89125 3.01807 5.02125 3.01807H6.75125C7.77125 3.01807 8.62125 3.77807 8.74125 4.78807L9.03125 7.30807C9.10125 7.91807 8.89125 8.51807 8.46125 8.94807L6.61125 10.7981C8.05125 13.6381 10.3713 15.9481 13.2013 17.3881L15.0413 15.5481C15.4713 15.1181 16.0713 14.9081 16.6813 14.9781ZM12.8713 5.05807C16.0513 5.45807 18.5413 7.94807 18.9413 11.1281C19.0013 11.6381 19.4313 12.0081 19.9313 12.0081C19.9713 12.0081 20.0113 12.0081 20.0513 11.9981C20.6013 11.9281 20.9913 11.4281 20.9213 10.8781C20.4113 6.78807 17.2013 3.57807 13.1113 3.06807C12.5613 3.00807 12.0613 3.39807 12.0013 3.94807C11.9313 4.49807 12.3213 4.99807 12.8713 5.05807ZM13.2513 7.16807C12.7213 7.02807 12.1713 7.34807 12.0313 7.88807C11.8913 8.42807 12.2113 8.96807 12.7513 9.10807C13.8013 9.37807 14.6213 10.1981 14.9013 11.2581C15.0213 11.7081 15.4213 12.0081 15.8713 12.0081C15.9513 12.0081 16.0413 11.9981 16.1213 11.9781C16.6513 11.8381 16.9713 11.2881 16.8413 10.7581C16.3713 8.98807 15.0013 7.61807 13.2513 7.16807Z" fill="#FFA368"/>
</svg>
