<svg width="24" height="24" viewBox="0 0 24 24" fill="none" xmlns="http://www.w3.org/2000/svg">
<path fill-rule="evenodd" clip-rule="evenodd" d="M5 9.26489C5 5.39489 8.13 2.26489 12 2.26489C15.87 2.26489 19 5.39489 19 9.26489C19 13.4349 14.58 19.1849 12.77 21.3749C12.37 21.8549 11.64 21.8549 11.24 21.3749C9.42 19.1849 5 13.4349 5 9.26489ZM9.5 9.26489C9.5 10.6449 10.62 11.7649 12 11.7649C13.38 11.7649 14.5 10.6449 14.5 9.26489C14.5 7.88489 13.38 6.76489 12 6.76489C10.62 6.76489 9.5 7.88489 9.5 9.26489Z" fill="#FFA368"/>
</svg>
