<svg width="40" height="40" viewBox="0 0 40 40" fill="none" xmlns="http://www.w3.org/2000/svg">
<rect width="40" height="40" rx="4" fill="url(#paint0_linear)"/>
<path fill-rule="evenodd" clip-rule="evenodd" d="M32.16 15.248C32.16 13.9071 31.0849 12.832 29.744 12.832H24.912V10.416C24.912 9.07512 23.8369 8 22.496 8H17.664C16.3231 8 15.248 9.07512 15.248 10.416V12.832H10.416C9.07512 12.832 8.01208 13.9071 8.01208 15.248L8 28.536C8 29.8769 9.07512 30.952 10.416 30.952H29.744C31.0849 30.952 32.16 29.8769 32.16 28.536V15.248ZM22.496 12.8318V10.4158H17.664V12.8318H22.496ZM10.416 16.4565V27.3285C10.416 27.9929 10.9596 28.5365 11.624 28.5365H28.536C29.2004 28.5365 29.744 27.9929 29.744 27.3285V16.4565C29.744 15.7921 29.2004 15.2485 28.536 15.2485H11.624C10.9596 15.2485 10.416 15.7921 10.416 16.4565Z" fill="white"/>
<defs>
<linearGradient id="paint0_linear" x1="40" y1="40" x2="-3.87277" y2="36.4941" gradientUnits="userSpaceOnUse">
<stop offset="0.0110497" stop-color="#F66691"/>
<stop offset="0.729282" stop-color="#FC9968"/>
<stop offset="1" stop-color="#FFBA69"/>
</linearGradient>
</defs>
</svg>
