<svg width="40" height="40" viewBox="0 0 40 40" fill="none" xmlns="http://www.w3.org/2000/svg">
<rect width="40" height="40" rx="4" fill="url(#paint0_linear)"/>
<path d="M14 25V10C14 9.44772 14.4477 9 15 9H29C29.5523 9 30 9.44772 30 10V27C30 29.2091 28.2091 31 26 31H20.5" stroke="white" stroke-width="2"/>
<path d="M20.9639 19.6163L19.401 17.9951C19.2255 17.8133 19.2526 17.839 19.0303 17.6856C17.8445 16.8669 16.0656 18.2996 17.5879 19.8717L17.845 20.1419L20.333 22.7174C20.5121 22.9016 20.7575 23.0047 21.0101 22.9998C21.2639 22.9961 21.5058 22.8868 21.6801 22.6953L26.4481 17.4584C27.9233 15.8434 26.1446 14.0012 24.5852 15.6383L20.9639 19.6163Z" fill="white"/>
<path d="M19.2471 26H6.3C6.13431 26 6 26.1343 6 26.3V27.2112C6 28.2687 6.55682 29.2481 7.46556 29.789L7.77438 29.9729C8.90381 30.6451 10.1938 31 11.5082 31H21.2961C21.5605 31 21.6956 30.6829 21.5125 30.4922L20.6372 29.5805C20.222 29.1479 19.9458 28.6008 19.8445 28.0098L19.5427 26.2493C19.518 26.1053 19.3932 26 19.2471 26Z" stroke="white" stroke-width="2"/>
<defs>
<linearGradient id="paint0_linear" x1="40" y1="40" x2="-3.87277" y2="36.4941" gradientUnits="userSpaceOnUse">
<stop offset="0.0110497" stop-color="#F66691"/>
<stop offset="0.729282" stop-color="#FC9968"/>
<stop offset="1" stop-color="#FFBA69"/>
</linearGradient>
</defs>
</svg>
