<svg width="24" height="24" viewBox="0 0 24 24" fill="none" xmlns="http://www.w3.org/2000/svg">
<path fill-rule="evenodd" clip-rule="evenodd" d="M19.05 3.82177C18.72 3.36177 18.78 2.74177 19.18 2.34177C19.67 1.85177 20.51 1.89177 20.93 2.44177C23.69 6.09177 23.68 10.9218 20.93 14.4618C20.51 15.0118 19.68 15.0518 19.19 14.5618L19.16 14.5318C18.77 14.1418 18.7 13.5218 19.02 13.0718C21.01 10.2318 21.02 6.56177 19.05 3.82177ZM5 8.45177C5 6.24263 6.79086 4.45177 9 4.45177C11.2091 4.45177 13 6.24263 13 8.45177C13 10.6609 11.2091 12.4518 9 12.4518C6.79086 12.4518 5 10.6609 5 8.45177ZM1 18.4518C1 15.7918 6.33 14.4518 9 14.4518C11.67 14.4518 17 15.7918 17 18.4518V19.4518C17 20.0018 16.55 20.4518 16 20.4518H2C1.45 20.4518 1 20.0018 1 19.4518V18.4518ZM15.47 9.68177C15.28 10.1518 15.36 10.6818 15.72 11.0418L15.75 11.0718C16.33 11.6518 17.32 11.5318 17.7 10.8018C18.46 9.35177 18.46 7.65177 17.68 6.14177C17.3 5.40177 16.3 5.26177 15.71 5.85177L15.7 5.86177C15.36 6.21177 15.28 6.75177 15.47 7.22177C15.79 8.01177 15.79 8.89177 15.47 9.68177Z" fill="#FFA368"/>
</svg>
