<svg width="34" height="34" viewBox="0 0 34 34" fill="none" xmlns="http://www.w3.org/2000/svg">
<g opacity="1.0">
<path fill-rule="evenodd" clip-rule="evenodd" d="M0 17C0 7.6262 7.6262 0 17 0C26.3738 0 34 7.6262 34 17C34 26.3738 26.3738 34 17 34C7.6262 34 0 26.3738 0 17ZM25.9021 18.7164L17.4646 25.7997C17.36 25.9248 17.1862 26 17 26C16.8138 26 16.64 25.9248 16.5353 25.8002L8.09782 18.7168C7.98082 18.5761 7.96732 18.3946 8.06519 18.2443C8.16251 18.094 8.35376 18 8.56244 18H14V9H20V18H25.4375C25.6462 18 25.8374 18.094 25.9347 18.2443C25.9786 18.3112 26 18.385 26 18.4583C26 18.5486 25.9668 18.6389 25.9021 18.7164Z" fill="#ffffff"/>
</g>
</svg>
