<svg width="36" height="30" viewBox="0 0 36 30" fill="none" xmlns="http://www.w3.org/2000/svg">
<rect width="36" height="30" rx="4" fill="url(#paint0_linear)"/>
<g clip-path="url(#clip0)">
<path d="M19.6391 13.7791C19.3099 13.7791 19.043 13.5233 19.043 13.2078V7.56152H16.9572V13.2078C16.9572 13.5233 16.6903 13.7791 16.361 13.7791H7.82617V15.778H16.361C16.6903 15.778 16.9572 16.0337 16.9572 16.3493V21.994H19.043V16.3493C19.043 16.0337 19.3099 15.778 19.6391 15.778H28.174V13.7791H19.6391Z" fill="white"/>
<path d="M20.2354 11.8286L24.6392 7.60824C24.4312 7.57744 24.2181 7.56152 24.0012 7.56152H20.2354V11.8286Z" fill="white"/>
<path d="M21.0781 12.6365H28.1739V11.5606C28.1739 10.0145 27.2536 8.67081 25.9106 8.00549L21.0781 12.6365Z" fill="white"/>
<path d="M21.0762 16.9207L25.8977 21.5569C27.248 20.8939 28.1743 19.5462 28.1743 17.9951V16.9207H21.0762Z" fill="white"/>
<path d="M15.7652 11.8286V7.56152H11.9994C11.7825 7.56152 11.5694 7.57744 11.3613 7.60824L15.7652 11.8286Z" fill="white"/>
<path d="M20.2354 17.7307V21.994H24.0012C24.2125 21.994 24.42 21.9788 24.6228 21.9496L20.2354 17.7307Z" fill="white"/>
<path d="M14.922 12.6365L10.0894 8.00549C8.74644 8.67066 7.82617 10.0145 7.82617 11.5606V12.6365H14.922Z" fill="white"/>
<path d="M14.922 16.9207H7.82617V17.9951C7.82617 19.5416 8.74691 20.8856 10.0905 21.5508L14.922 16.9207Z" fill="white"/>
<path d="M15.7648 17.7284L11.3623 21.9475C11.5699 21.978 11.7825 21.9939 11.999 21.9939H12.6182L14.0696 23.7585C14.1827 23.8959 14.3552 23.9761 14.5378 23.9761C14.7203 23.9761 14.893 23.8959 15.006 23.7585L15.7648 22.8359V17.7284Z" fill="white"/>
</g>
<defs>
<linearGradient id="paint0_linear" x1="36" y1="30" x2="-3.37557" y2="26.2242" gradientUnits="userSpaceOnUse">
<stop offset="0.0110497" stop-color="#F66691"/>
<stop offset="0.729282" stop-color="#FC9968"/>
<stop offset="1" stop-color="#FFBA69"/>
</linearGradient>
<clipPath id="clip0">
<rect width="20.3478" height="19.5" fill="white" transform="translate(7.82617 6)"/>
</clipPath>
</defs>
</svg>
