<svg width="46" height="40" viewBox="0 0 46 40" fill="none" xmlns="http://www.w3.org/2000/svg">
<rect x="0.5" y="0.5" width="45" height="39" rx="3.5" fill="url(#paint0_linear)"/>
<path d="M22.884 13.8917C20.9809 13.8917 19.4382 12.3489 19.4382 10.4458C19.4382 8.54275 20.9809 7 22.884 7C24.7871 7 26.3298 8.54275 26.3298 10.4458C26.3298 12.3489 24.7871 13.8917 22.884 13.8917Z" fill="white"/>
<path d="M16.1087 22.7615L19.0488 15.5995C19.217 15.2382 19.3658 14.7539 20.0566 14.7539C20.3118 14.7539 20.5648 14.7539 20.8571 14.7539H24.4552C24.753 14.7539 24.9078 14.7539 25.2747 14.7539C25.9637 14.7539 26.3232 15.2029 26.5204 15.6073L29.5744 22.7151C29.8652 23.3119 29.6222 24.0329 29.0321 24.3256C28.4415 24.6183 27.7268 24.3719 27.436 23.7749L27.2062 23.3037C27.2062 23.3037 27.1348 23.1766 27.1616 23.3171C27.3278 24.1925 27.7868 26.8255 27.7868 26.8255C27.8983 27.3734 27.5323 27.8217 26.9731 27.8217C26.9731 27.8217 25.9757 27.8217 25.6432 27.8217C25.5481 27.8217 25.565 27.8934 25.565 27.8934V33.1859C25.565 34.0723 25.013 34.537 24.3317 34.537C23.6506 34.537 23.0983 34.0723 23.0983 33.1859V27.8723C23.0983 27.8723 23.1011 27.8198 23.0456 27.8217C22.9739 27.824 22.7926 27.822 22.7113 27.822C22.6649 27.822 22.6708 27.8779 22.6708 27.8779V33.1859C22.6708 34.0723 22.1184 34.537 21.4371 34.537C20.7561 34.537 20.2038 34.0723 20.2038 33.1859V27.9076C20.2038 27.9076 20.2119 27.8217 20.1097 27.8217C19.752 27.8217 18.6792 27.8217 18.6792 27.8217C18.1201 27.8217 17.745 27.3717 17.8459 26.8217C17.8459 26.8217 18.3059 23.9977 18.4284 23.2283C18.4635 23.0078 18.0972 23.7908 18.0972 23.7908C17.817 24.3927 17.276 24.644 16.6804 24.3621C16.0843 24.0801 15.8285 23.3636 16.1087 22.7615Z" fill="white"/>
<defs>
<linearGradient id="paint0_linear" x1="46" y1="40" x2="-4.35066" y2="35.3729" gradientUnits="userSpaceOnUse">
<stop offset="0.0110497" stop-color="#F66691"/>
<stop offset="0.729282" stop-color="#FC9968"/>
<stop offset="1" stop-color="#FFBA69"/>
</linearGradient>
</defs>
</svg>
