<svg width="46" height="40" viewBox="0 0 46 40" fill="none" xmlns="http://www.w3.org/2000/svg">
<rect x="0.5" y="0.5" width="45" height="39" rx="3.5" fill="url(#paint0_linear)"/>
<path d="M26.6724 15.5282C26.4671 14.9754 25.9123 14.6631 25.3482 14.6631C25.0667 14.6631 25.0407 14.6703 24.873 14.6703H20.3115C20.1437 14.6703 19.9947 14.6703 19.836 14.6703C19.1918 14.6703 18.7174 14.9753 18.5121 15.5282L16.0765 22.935C15.8445 23.56 16.158 24.2567 16.7768 24.491C17.3956 24.7255 18.0854 24.4087 18.3175 23.7839L18.9651 22.0404C18.9651 22.0404 19.0113 21.8646 19.0113 22.6321V32.9126C19.0113 33.8114 19.7327 34.54 20.6228 34.54C21.5128 34.54 22.2342 33.8114 22.2342 32.9126V26.1964C22.2342 26.1964 22.2264 26.137 22.2889 26.137C22.4401 26.137 22.7427 26.137 22.894 26.137C22.9537 26.137 22.9504 26.1964 22.9504 26.1964V32.9126C22.9504 33.8114 23.6719 34.54 24.5619 34.54C25.4519 34.54 26.1734 33.8114 26.1734 32.9126V22.6321C26.1734 21.8523 26.2411 22.098 26.2411 22.098L26.8672 23.784C27.0992 24.409 27.7891 24.7256 28.4079 24.4912C29.0267 24.2567 29.3404 23.5602 29.1082 22.9353L26.6724 15.5282Z" fill="white"/>
<path d="M22.6245 13.8487C24.5353 13.8487 26.0844 12.3156 26.0844 10.4243C26.0844 8.53313 24.5353 7 22.6245 7C20.7136 7 19.1646 8.53313 19.1646 10.4243C19.1646 12.3156 20.7136 13.8487 22.6245 13.8487Z" fill="white"/>
<defs>
  <linearGradient id="paint0_linear" x1="46" y1="40" x2="-4.35066" y2="35.3729" gradientUnits="userSpaceOnUse">
    <stop offset="0.0110497" stop-color="#F66691"/>
    <stop offset="0.729282" stop-color="#FC9968"/>
    <stop offset="1" stop-color="#FFBA69"/>
  </linearGradient>
</defs>
</svg>
