<svg width="29" height="29" viewBox="0 0 29 29" fill="none" xmlns="http://www.w3.org/2000/svg">
<g clip-path="url(#clip0)">
<path d="M14.5007 20.0764C16.0346 20.0764 17.3472 19.5304 18.4393 18.4387C19.5312 17.347 20.0773 16.0337 20.0773 14.5V5.57708C20.0773 4.04334 19.5317 2.73058 18.4393 1.63836C17.3472 0.546384 16.0346 0 14.5007 0C12.9671 0 11.6542 0.546384 10.5621 1.63836C9.46985 2.7304 8.92383 4.04334 8.92383 5.57708V14.5C8.92383 16.0336 9.47009 17.347 10.5621 18.4387C11.654 19.5304 12.9671 20.0764 14.5007 20.0764Z" fill="#FF9B68"/>
<path d="M24.2074 11.485C23.9873 11.2642 23.7253 11.1538 23.4232 11.1538C23.1215 11.1538 22.8601 11.2642 22.639 11.485C22.4185 11.7057 22.3081 11.9671 22.3081 12.2691V14.5C22.3081 16.6495 21.544 18.488 20.0161 20.0158C18.4887 21.5437 16.65 22.3077 14.5004 22.3077C12.3509 22.3077 10.5123 21.5437 8.98437 20.0158C7.45662 18.4885 6.69281 16.6496 6.69281 14.5V12.2691C6.69281 11.9671 6.58238 11.7057 6.36172 11.485C6.14093 11.2642 5.87979 11.1538 5.57751 11.1538C5.27523 11.1538 5.01379 11.2642 4.79313 11.485C4.57228 11.7057 4.46191 11.9671 4.46191 12.2691V14.5C4.46191 17.0677 5.31894 19.3015 7.0325 21.2009C8.74613 23.1004 10.8636 24.1896 13.385 24.4682V26.7689H8.92351C8.62142 26.7689 8.36004 26.8795 8.13931 27.1003C7.91852 27.3209 7.8081 27.5824 7.8081 27.8845C7.8081 28.1861 7.91852 28.4481 8.13931 28.6687C8.36004 28.8893 8.62142 29 8.92351 29H20.077C20.379 29 20.6408 28.8894 20.8612 28.6687C21.0822 28.4481 21.1927 28.1862 21.1927 27.8845C21.1927 27.5825 21.0822 27.3209 20.8612 27.1003C20.6408 26.8795 20.3791 26.7689 20.077 26.7689H15.6161V24.4682C18.137 24.1896 20.2543 23.1004 21.9681 21.2009C23.6819 19.3015 24.5392 17.0677 24.5392 14.5V12.2691C24.5392 11.9672 24.4285 11.706 24.2074 11.485Z" fill="#FF9B68"/>
</g>
<defs>
<clipPath id="clip0">
<rect width="29" height="29" fill="white"/>
</clipPath>
</defs>
</svg>
