<svg width="14" height="14" viewBox="0 0 14 14" fill="none" xmlns="http://www.w3.org/2000/svg">
<path d="M7.00531 0.31587C6.80671 0.315646 6.61618 0.394442 6.47574 0.534877C6.33531 0.675312 6.25651 0.865846 6.25673 1.06445L6.25143 6.25141L1.05915 6.25141C0.860548 6.25119 0.670014 6.32999 0.52958 6.47042C0.389146 6.61085 0.310349 6.80139 0.310573 6.99999C0.310573 7.4141 0.645045 7.74857 1.05915 7.74857L6.25142 7.74857L6.25143 12.9408C6.25143 13.355 6.5859 13.6894 7 13.6894C7.41411 13.6894 7.74858 13.355 7.74858 12.9408L7.74858 7.74857L12.9409 7.74857C13.355 7.74857 13.6894 7.4141 13.6894 6.99999C13.6894 6.58588 13.355 6.25141 12.9409 6.25141H7.74858L7.74858 1.05914C7.74858 0.655651 7.4088 0.31587 7.00531 0.31587Z" fill="#05A4F4"/>
</svg>
