<svg xmlns="http://www.w3.org/2000/svg" width="123.586" height="30.178" viewBox="0 0 123.586 30.178">
  <g id="logo" transform="translate(0)">
    <path id="Path_19" data-name="Path 19" d="M46.211,6.749H39.372a.95.95,0,0,0-.939.8L35.667,25.088a.57.57,0,0,0,.564.658H39.5a.95.95,0,0,0,.939-.8l.746-4.73a.95.95,0,0,1,.938-.8h2.165c4.505,0,7.1-2.18,7.784-6.5A5.268,5.268,0,0,0,51.2,8.5c-.972-1.142-2.7-1.746-4.985-1.746ZM47,13.154c-.374,2.454-2.249,2.454-4.062,2.454H41.906l.724-4.583a.57.57,0,0,1,.563-.481h.473c1.235,0,2.4,0,3,.7A2.279,2.279,0,0,1,47,13.154Zm19.654-.079H63.379a.57.57,0,0,0-.563.481l-.145.916-.229-.332c-.709-1.029-2.29-1.373-3.868-1.373a7.531,7.531,0,0,0-7.312,6.586,6.182,6.182,0,0,0,1.22,5.031,5.124,5.124,0,0,0,4.125,1.666,6.266,6.266,0,0,0,4.533-1.875l-.146.91a.57.57,0,0,0,.562.66h2.95a.95.95,0,0,0,.939-.8l1.77-11.209a.568.568,0,0,0-.561-.658Zm-4.565,6.374a3.65,3.65,0,0,1-3.695,3.127,2.537,2.537,0,0,1-2.713-3.184,3.666,3.666,0,0,1,3.67-3.152,2.763,2.763,0,0,1,2.184.892,2.835,2.835,0,0,1,.554,2.317ZM84.1,13.075H80.805a.954.954,0,0,0-.787.417l-4.539,6.686-1.924-6.425a.953.953,0,0,0-.912-.678H69.409a.57.57,0,0,0-.541.754l3.625,10.638-3.408,4.811a.57.57,0,0,0,.465.9h3.287a.949.949,0,0,0,.781-.408l10.946-15.8a.57.57,0,0,0-.468-.9Z" fill="#253b80"/>
    <path id="Path_20" data-name="Path 20" d="M94.992,6.749h-6.84a.95.95,0,0,0-.938.8L84.448,25.088a.569.569,0,0,0,.562.658h3.51a.665.665,0,0,0,.656-.562l.785-4.971a.95.95,0,0,1,.938-.8h2.164c4.506,0,7.105-2.18,7.785-6.5A5.264,5.264,0,0,0,99.975,8.5C99,7.353,97.281,6.749,94.992,6.749Zm.789,6.405c-.373,2.454-2.248,2.454-4.062,2.454H90.688l.725-4.583a.568.568,0,0,1,.562-.481h.473c1.234,0,2.4,0,3,.7a2.279,2.279,0,0,1,.331,1.906Zm19.653-.079h-3.273a.567.567,0,0,0-.562.481l-.145.916-.23-.332c-.709-1.029-2.289-1.373-3.867-1.373a7.53,7.53,0,0,0-7.311,6.586,6.185,6.185,0,0,0,1.219,5.031,5.127,5.127,0,0,0,4.125,1.666,6.266,6.266,0,0,0,4.533-1.875l-.146.91a.57.57,0,0,0,.564.66h2.949a.95.95,0,0,0,.938-.8L116,13.733a.571.571,0,0,0-.565-.658Zm-4.565,6.374a3.649,3.649,0,0,1-3.695,3.127,2.537,2.537,0,0,1-2.713-3.184,3.667,3.667,0,0,1,3.67-3.152,2.763,2.763,0,0,1,2.184.892A2.82,2.82,0,0,1,110.869,19.449ZM119.295,7.23l-2.807,17.858a.569.569,0,0,0,.562.658h2.822a.949.949,0,0,0,.939-.8l2.768-17.536a.57.57,0,0,0-.562-.659h-3.16a.571.571,0,0,0-.562.482Z" fill="#179bd7"/>
    <path id="Path_21" data-name="Path 21" d="M7.266,29.154l.523-3.322L6.624,25.8H1.061L4.927,1.292a.316.316,0,0,1,.314-.268h9.38c3.114,0,5.263.648,6.385,1.927a4.393,4.393,0,0,1,1.023,1.917,6.921,6.921,0,0,1,.007,2.644l-.012.077v.676l.526.3a3.69,3.69,0,0,1,1.065.812,3.781,3.781,0,0,1,.864,1.938,8.2,8.2,0,0,1-.123,2.812A9.9,9.9,0,0,1,23.2,17.308a6.547,6.547,0,0,1-1.825,2,7.4,7.4,0,0,1-2.458,1.109,12.258,12.258,0,0,1-3.072.355h-.73a2.2,2.2,0,0,0-2.171,1.853l-.055.3-.924,5.855-.042.215a.185.185,0,0,1-.058.125.155.155,0,0,1-.1.035H7.266Z" fill="#253b80"/>
    <path id="Path_22" data-name="Path 22" d="M23.048,7.667q-.042.268-.1.55c-1.237,6.351-5.469,8.545-10.874,8.545H9.326a1.336,1.336,0,0,0-1.321,1.132L6.6,26.83l-.4,2.533a.7.7,0,0,0,.7.814h4.881a1.175,1.175,0,0,0,1.16-.99l.048-.248.919-5.832.059-.32a1.174,1.174,0,0,1,1.16-.992h.73c4.729,0,8.431-1.92,9.513-7.476.452-2.321.218-4.259-.978-5.622a4.667,4.667,0,0,0-1.336-1.03Z" fill="#179bd7"/>
    <path id="Path_23" data-name="Path 23" d="M21.754,7.151a9.757,9.757,0,0,0-1.2-.267,15.284,15.284,0,0,0-2.426-.177H10.773A1.172,1.172,0,0,0,9.614,7.7L8.05,17.6l-.045.289a1.336,1.336,0,0,1,1.321-1.132h2.752c5.4,0,9.637-2.195,10.874-8.545.037-.188.068-.371.1-.55a6.594,6.594,0,0,0-1.017-.429q-.138-.046-.277-.087Z" fill="#222d65"/>
    <path id="Path_24" data-name="Path 24" d="M9.614,7.7a1.169,1.169,0,0,1,1.159-.991h7.352a15.284,15.284,0,0,1,2.426.177,9.757,9.757,0,0,1,1.481.353,6.693,6.693,0,0,1,1.017.429c.368-2.347,0-3.945-1.272-5.392C20.378.682,17.853,0,14.622,0H5.242A1.341,1.341,0,0,0,3.917,1.133L.01,25.9A.806.806,0,0,0,.8,26.83H6.6L8.05,17.6,9.614,7.7Z" fill="#253b80"/>
  </g>
</svg>
