<svg xmlns="http://www.w3.org/2000/svg" width="115.834" height="48.2" viewBox="0 0 115.834 48.2">
  <g id="logo" transform="translate(-54 -36)">
    <path id="Path_25" data-name="Path 25" d="M363.607,82.337c0-8.237-3.99-14.737-11.616-14.737-7.658,0-12.291,6.5-12.291,14.672,0,9.685,5.47,14.576,13.321,14.576a17.941,17.941,0,0,0,8.913-2.091V88.322a17.086,17.086,0,0,1-7.883,1.77c-3.121,0-5.888-1.094-6.242-4.891h15.734C363.543,84.782,363.607,83.109,363.607,82.337Zm-15.9-3.057c0-3.636,2.22-5.148,4.247-5.148,1.963,0,4.054,1.512,4.054,5.148Z" transform="translate(-193.773 -21.432)" fill="#32325d" fill-rule="evenodd"/>
    <path id="Path_26" data-name="Path 26" d="M272,67.6a9.09,9.09,0,0,0-6.307,2.51l-.418-1.995H258.2v37.517l8.044-1.705.032-9.106a9.061,9.061,0,0,0,5.7,2.027c5.76,0,11-4.633,11-14.833C282.944,72.684,277.634,67.6,272,67.6Zm-1.931,22.169a4.81,4.81,0,0,1-3.8-1.512l-.032-11.937a4.789,4.789,0,0,1,3.829-1.577c2.928,0,4.955,3.282,4.955,7.5C275.028,86.552,273.033,89.769,270.073,89.769Z" transform="translate(-138.496 -21.432)" fill="#32325d" fill-rule="evenodd"/>
    <path id="Path_27" data-name="Path 27" d="M223.8,44.269l8.076-1.738V36L223.8,37.705Z" transform="translate(-115.165)" fill="#32325d" fill-rule="evenodd"/>
    <rect id="Rectangle_19" data-name="Rectangle 19" width="8.076" height="28.154" transform="translate(108.635 46.715)" fill="#32325d"/>
    <path id="Path_28" data-name="Path 28" d="M181.165,70.98,180.65,68.6H173.7V96.753h8.044V77.673c1.9-2.478,5.116-2.027,6.113-1.673V68.6C186.828,68.213,183.063,67.5,181.165,70.98Z" transform="translate(-81.185 -21.884)" fill="#32325d" fill-rule="evenodd"/>
    <path id="Path_29" data-name="Path 29" d="M130.283,47.6l-7.851,1.673L122.4,75.046a8.085,8.085,0,0,0,8.334,8.269,12.428,12.428,0,0,0,5.631-1.062V75.722c-1.03.418-6.113,1.9-6.113-2.864V61.436h6.113V54.582h-6.113Z" transform="translate(-46.391 -7.868)" fill="#32325d" fill-rule="evenodd"/>
    <path id="Path_30" data-name="Path 30" d="M62.141,76.32c0-1.255,1.03-1.738,2.735-1.738a17.947,17.947,0,0,1,7.98,2.059V69.08a21.219,21.219,0,0,0-7.98-1.48C58.344,67.6,54,71.011,54,76.706,54,85.587,66.227,84.171,66.227,88c0,1.48-1.287,1.963-3.089,1.963a20.028,20.028,0,0,1-8.784-2.574v7.658a22.3,22.3,0,0,0,8.784,1.834c6.693,0,11.294-3.314,11.294-9.074C74.4,78.218,62.141,79.924,62.141,76.32Z" transform="translate(0 -21.432)" fill="#32325d" fill-rule="evenodd"/>
  </g>
</svg>
