<svg xmlns="http://www.w3.org/2000/svg" width="91.372" height="108.293" viewBox="0 0 91.372 108.293"><defs><style>.a{fill:#2bad1c;}</style></defs><g transform="translate(0 -11)"><path class="a" d="M128.764,17.536,87.308.323a4.23,4.23,0,0,0-3.244,0L42.608,17.536A4.23,4.23,0,0,0,40,21.442V42.366A70.842,70.842,0,0,0,84.088,107.98a4.231,4.231,0,0,0,3.2,0,70.842,70.842,0,0,0,44.088-65.614V21.442A4.23,4.23,0,0,0,128.764,17.536Zm-5.852,24.83a62.4,62.4,0,0,1-37.226,57.1,62.4,62.4,0,0,1-37.226-57.1v-18.1L85.686,8.811l37.226,15.456Zm-41.9,14.259L99.193,38.443a4.23,4.23,0,1,1,5.982,5.982L84,65.6a4.23,4.23,0,0,1-5.982,0L66.2,53.776a4.23,4.23,0,1,1,5.982-5.982Z" transform="translate(-40 11)"/></g></svg>