<svg width="32" height="34" fill="none" xmlns="http://www.w3.org/2000/svg">
    <path d="M32 16.547c0 2.717-.647 5.392-1.883 7.789a16.368 16.368 0 01-5.733 6.307c-.045.03-.092.059-.14.086l-.114.069-.154.09c-.1.06-.2.122-.302.177-.028.017-.054.032-.076.047a15.507 15.507 0 01-7.304 1.98c-.098.003-.195.003-.292.003a15.521 15.521 0 01-8.838-2.754 16.375 16.375 0 01-5.43-6.304 17.021 17.021 0 01-1.717-8.253c.128-2.859.97-5.634 2.444-8.055a16.229 16.229 0 015.969-5.76A15.575 15.575 0 0116.37.004a15.61 15.61 0 017.842 2.342 16.303 16.303 0 015.706 6.038A16.987 16.987 0 0132 16.547z" fill="#044EFA" />
    <path d="M12.896 23.413c-.25.001-.497-.05-.728-.148a1.886 1.886 0 01-.616-.428l-2.906-3.004a2.194 2.194 0 01-.61-1.525c0-.572.22-1.12.61-1.525a2.051 2.051 0 011.475-.632c.553 0 1.084.227 1.475.632l1.296 1.341 7.566-7.868a1.856 1.856 0 011.33-.574c.5-.002.98.202 1.335.566l.284.292c.176.18.315.395.41.631a2.008 2.008 0 01.005 1.492 1.954 1.954 0 01-.407.634l-9.17 9.536c-.176.184-.386.33-.617.43-.231.1-.48.15-.73.15h-.002zm-2.775-6.377c-.244 0-.481.074-.684.214-.202.14-.36.339-.453.571a1.313 1.313 0 00-.07.735c.048.247.165.474.337.652l2.905 3.005a1.038 1.038 0 00.74.317h.002a1.009 1.009 0 00.74-.32l9.17-9.535c.193-.2.3-.472.3-.755 0-.282-.11-.553-.304-.752l-.284-.293a1.014 1.014 0 00-.73-.31c-.272.001-.534.114-.727.314l-8.17 8.497-1.902-1.967a1.19 1.19 0 00-.87-.373" fill="#fff" />
</svg>