<svg id="Group_48" data-name="Group 48" xmlns="http://www.w3.org/2000/svg" xmlns:xlink="http://www.w3.org/1999/xlink" width="602.966" height="149.733" viewBox="0 0 602.966 149.733">
  <defs>
    <clipPath id="clip-path">
      <rect id="Rectangle_23" data-name="Rectangle 23" width="602.966" height="149.733" fill="none"/>
    </clipPath>
  </defs>
  <path id="Path_48" data-name="Path 48" d="M178.845,88.584h8.535V55.945l-8.129,2.362V51.5L194.9,46.432V88.584h8.263v6.458H178.845Z" fill="#044efa"/>
  <g id="Group_47" data-name="Group 47">
    <g id="Group_46" data-name="Group 46" clip-path="url(#clip-path)">
      <path id="Path_49" data-name="Path 49" d="M208.308,60.251c.678-11.18,10.363-14.444,19.3-14.444,8.805,0,18.356,3.611,18.356,14.792,0,11.735-9.212,14.721-18.763,14.721-4.673,0-11.785,1.181-11.785,7.431v5h30.548v7.291H208.1V82.751c0-11.111,9.821-14.306,19.033-14.306,4.267,0,11.379-1.388,11.379-7.708,0-6.111-5.147-7.986-10.9-8.194-5.487,0-11.582,2.014-11.718,7.708Z" fill="#044efa"/>
      <path id="Path_50" data-name="Path 50" d="M264.592,73.306V66.917h7.044c5.961,0,10.973-2.292,11.041-6.875,0-3.333-2.777-7.361-10.838-7.361-4.6,0-10.973,1.528-10.973,6.944h-7.518c0-10.416,10.024-13.888,18.558-13.888,9.484,0,18.221,4.792,18.289,14.305a10.246,10.246,0,0,1-7.383,10.07c5.554,1.6,8.467,5.554,8.467,10.624,0,10.834-9.754,15-19.576,15-8.8,0-19.1-3.541-19.168-14.445h7.654c0,5.9,7.179,7.431,11.583,7.431,5.892,0,11.582-2.639,11.582-7.916,0-3.473-2.37-7.5-11.244-7.5Z" fill="#044efa"/>
      <path id="Path_51" data-name="Path 51" d="M335.236,95.042h-3.658l-5.418-15-4.065-13.333-4.2,13.4-5.419,14.931h-3.657L296.9,60.737h3.658l10.092,30.347,10.229-30.347h2.37l10.16,30.347L343.43,60.737h3.659Z" fill="#044efa"/>
      <path id="Path_52" data-name="Path 52" d="M351.15,78.028c0-10.9,7.586-17.847,17-17.847s17,6.945,17,17.847-7.587,17.569-17,17.569-17-6.667-17-17.569m30.751,0c0-8.889-6.164-14.652-13.75-14.652S354.4,69.139,354.4,78.028s6.163,14.236,13.75,14.236,13.75-5.347,13.75-14.236" fill="#044efa"/>
      <path id="Path_53" data-name="Path 53" d="M396.325,60.737l.135,6.111c2.1-4.653,6.842-6.459,11.108-6.459a12.815,12.815,0,0,1,7.18,2.015l-1.49,2.777a10.56,10.56,0,0,0-5.69-1.6,11.263,11.263,0,0,0-11.04,11.459v20h-3.319V60.737Z" fill="#044efa"/>
      <path id="Path_54" data-name="Path 54" d="M423.078,46.431V75.737l15.782-15h4.4v.138L426.33,76.916l18.9,17.917v.208h-4.2l-17.95-16.8v16.8h-3.251V46.431Z" fill="#044efa"/>
      <path id="Path_55" data-name="Path 55" d="M454.234,95.042V64h-6.842V61.015h6.842V57.474c0-6.806,2.642-11.737,10.024-11.737A10.78,10.78,0,0,1,470.9,48.1l-1.626,2.5a9,9,0,0,0-5.147-1.737c-4.2,0-6.638,2.639-6.638,8.612v3.541h11.04V64h-11.04V95.042Z" fill="#044efa"/>
      <path id="Path_56" data-name="Path 56" d="M470.623,78.028c0-10.9,7.587-17.847,17-17.847s17,6.945,17,17.847-7.587,17.569-17,17.569-17-6.667-17-17.569m30.751,0c0-8.889-6.163-14.652-13.75-14.652s-13.75,5.763-13.75,14.652,6.164,14.236,13.75,14.236,13.75-5.347,13.75-14.236" fill="#044efa"/>
      <path id="Path_57" data-name="Path 57" d="M515.8,60.737l.135,6.111c2.1-4.653,6.842-6.459,11.108-6.459a12.816,12.816,0,0,1,7.18,2.015l-1.49,2.777a10.56,10.56,0,0,0-5.69-1.6A11.263,11.263,0,0,0,516,75.043v20h-3.319V60.737Z" fill="#044efa"/>
      <path id="Path_58" data-name="Path 58" d="M564.905,90.459A16.9,16.9,0,0,1,552.714,95.6c-9.415,0-17.205-6.875-17.205-17.708s7.518-17.708,17.205-17.708a17.185,17.185,0,0,1,12.191,5.138l-2.1,2.154a14.149,14.149,0,0,0-10.091-4.1c-7.587,0-13.954,5.277-13.954,14.514S545.127,92.4,552.714,92.4a13.992,13.992,0,0,0,9.956-4.236Z" fill="#044efa"/>
      <path id="Path_59" data-name="Path 59" d="M569.307,77.89c0-10.278,7.587-17.708,17-17.708s17.815,5.9,16.527,19.3H572.694c.678,8.056,6.706,12.779,13.614,12.779,4.4,0,9.551-1.806,12.057-5.209L600.736,89c-3.251,4.375-9.076,6.6-14.428,6.6-9.414,0-17-6.806-17-17.708M599.855,76.5c-.067-8.473-5.486-13.194-13.547-13.194-6.908,0-12.869,4.792-13.614,13.194Z" fill="#044efa"/>
      <path id="Path_60" data-name="Path 60" d="M149.734,74.866a74.878,74.878,0,0,1-33.17,62.186c-.755.51-1.52,1-2.309,1.488a1.768,1.768,0,0,1-.156.1c-.211.134-.432.267-.655.389-.166.1-.344.2-.534.312-.234.134-.478.272-.722.41-.467.272-.932.55-1.409.8-.133.078-.255.144-.356.211a74.479,74.479,0,0,1-34.179,8.961c-.455.011-.91.011-1.365.011a74.466,74.466,0,0,1-38.711-10.771c-.888-.544-1.766-1.1-2.643-1.688A74.864,74.864,0,1,1,149.734,74.866" fill="#044efa"/>
      <path id="Path_61" data-name="Path 61" d="M60.347,105.931a8.836,8.836,0,0,1-6.291-2.606L40.463,89.732a9.757,9.757,0,0,1,13.8-13.8L60.327,82l35.4-35.6a8.828,8.828,0,0,1,12.471-.035l1.331,1.323a8.819,8.819,0,0,1,.036,12.472L66.657,103.307a8.838,8.838,0,0,1-6.3,2.624ZM47.361,77.076a5.757,5.757,0,0,0-4.07,9.828L56.884,100.5a4.867,4.867,0,0,0,3.463,1.434h.007a4.859,4.859,0,0,0,3.467-1.444l42.906-43.145a4.821,4.821,0,0,0-.02-6.816L105.376,49.2a4.826,4.826,0,0,0-6.814.019L60.335,87.663l-8.9-8.9a5.722,5.722,0,0,0-4.071-1.686" fill="#fff"/>
    </g>
  </g>
</svg>
