<svg width="35" height="36" viewBox="0 0 35 36" fill="none" xmlns="http://www.w3.org/2000/svg">
<g clip-path="url(#clip0)">
<path d="M34.0886 32.784L25.7328 24.4284C27.8098 21.9308 29.0611 18.7236 29.0611 15.2291C29.0611 7.28297 22.5966 0.818359 14.6509 0.818359C6.70497 0.818359 0.24054 7.28297 0.24054 15.2291C0.24054 23.1746 6.70497 29.6387 14.6509 29.6387C18.1453 29.6387 21.3526 28.3876 23.8502 26.3107L32.2061 34.6664C32.466 34.9264 32.8067 35.0563 33.1473 35.0563C33.4879 35.0563 33.8287 34.9264 34.0887 34.6664C34.6086 34.1465 34.6086 33.3038 34.0886 32.784ZM2.90284 15.2291C2.90284 8.75097 8.17297 3.48067 14.6509 3.48067C21.1286 3.48067 26.3986 8.75097 26.3986 15.2291C26.3986 21.7066 21.1286 26.9764 14.6509 26.9764C8.17297 26.9764 2.90284 21.7066 2.90284 15.2291Z" fill="#707B99"/>
</g>
<defs>
<clipPath id="clip0">
<rect width="34.238" height="34.238" fill="white" transform="translate(0.24054 0.818359)"/>
</clipPath>
</defs>
</svg>
