<svg width="25" height="25" viewBox="0 0 25 25" fill="none" xmlns="http://www.w3.org/2000/svg">
<path d="M7.67098 19.0018L8.39498 19.4248C9.61592 20.1369 11.0046 20.5107 12.418 20.5078C14.0002 20.5078 15.5469 20.0386 16.8625 19.1596C18.1781 18.2805 19.2035 17.0311 19.809 15.5693C20.4145 14.1075 20.5729 12.4989 20.2643 10.9471C19.9556 9.39524 19.1937 7.96978 18.0748 6.85096C16.956 5.73214 15.5306 4.97021 13.9787 4.66153C12.4269 4.35285 10.8183 4.51128 9.35651 5.11678C7.89471 5.72228 6.64528 6.74766 5.76623 8.06325C4.88717 9.37884 4.41798 10.9256 4.41798 12.5078C4.41798 13.9438 4.79498 15.3208 5.50198 16.5318L5.92398 17.2558L5.27098 19.6568L7.67098 19.0018ZM2.42198 22.5078L3.77398 17.5398C2.88312 16.0127 2.41508 14.2758 2.41798 12.5078C2.41798 6.98481 6.89498 2.50781 12.418 2.50781C17.941 2.50781 22.418 6.98481 22.418 12.5078C22.418 18.0308 17.941 22.5078 12.418 22.5078C10.6508 22.5107 8.91464 22.043 7.38798 21.1528L2.42198 22.5078ZM8.80898 7.81581C8.94298 7.80581 9.07798 7.80581 9.21198 7.81181C9.26598 7.81581 9.31998 7.82181 9.37398 7.82781C9.53298 7.84581 9.70798 7.94281 9.76698 8.07681C10.065 8.75281 10.355 9.43381 10.635 10.1168C10.697 10.2688 10.66 10.4638 10.542 10.6538C10.4608 10.7823 10.373 10.9065 10.279 11.0258C10.166 11.1708 9.92298 11.4368 9.92298 11.4368C9.92298 11.4368 9.82398 11.5548 9.86198 11.7018C9.87598 11.7578 9.92198 11.8388 9.96398 11.9068L10.023 12.0018C10.279 12.4288 10.623 12.8618 11.043 13.2698C11.163 13.3858 11.28 13.5048 11.406 13.6158C11.874 14.0288 12.404 14.3658 12.976 14.6158L12.981 14.6178C13.066 14.6548 13.109 14.6748 13.233 14.7278C13.295 14.7538 13.359 14.7768 13.424 14.7938C13.4912 14.8109 13.5619 14.8077 13.6272 14.7846C13.6926 14.7614 13.7496 14.7194 13.791 14.6638C14.515 13.7868 14.581 13.7298 14.587 13.7298V13.7318C14.6373 13.6849 14.697 13.6493 14.7622 13.6274C14.8274 13.6055 14.8966 13.5978 14.965 13.6048C15.025 13.6088 15.086 13.6198 15.142 13.6448C15.673 13.8878 16.542 14.2668 16.542 14.2668L17.124 14.5278C17.222 14.5748 17.311 14.6858 17.314 14.7928C17.318 14.8598 17.324 14.9678 17.301 15.1658C17.269 15.4248 17.191 15.7358 17.113 15.8988C17.0596 16.0101 16.9887 16.112 16.903 16.2008C16.8021 16.3068 16.6916 16.4032 16.573 16.4888C16.5319 16.5197 16.4903 16.5497 16.448 16.5788C16.3236 16.6577 16.1958 16.7311 16.065 16.7988C15.8075 16.9356 15.5231 17.0141 15.232 17.0288C15.047 17.0388 14.862 17.0528 14.676 17.0428C14.668 17.0428 14.108 16.9558 14.108 16.9558C12.6862 16.5819 11.3714 15.8813 10.268 14.9098C10.042 14.7108 9.83298 14.4968 9.61898 14.2838C8.72898 13.3988 8.05698 12.4438 7.64898 11.5418C7.44015 11.0991 7.32735 10.6172 7.31798 10.1278C7.31386 9.52066 7.51233 8.92948 7.88198 8.44781C7.95498 8.35381 8.02398 8.25581 8.14298 8.14281C8.26998 8.02281 8.34998 7.95881 8.43698 7.91481C8.55266 7.85684 8.67884 7.82283 8.80798 7.81481L8.80898 7.81581Z" fill="white"/>
</svg>
