<svg width="98" height="98" viewBox="0 0 98 98" fill="none" xmlns="http://www.w3.org/2000/svg">
<g filter="url(#filter0_d)">
<rect x="24" y="20" width="50" height="50" rx="25" fill="#E3EFFF"/>
<g clip-path="url(#clip0)">
<g opacity="0.85">
<path opacity="0.85" d="M59.5916 40.1226H53.3634V38.6215H59.5909V40.1226H59.5916ZM50.075 46.2749C50.4928 46.9359 50.7022 47.7011 50.6775 48.4761C50.6918 49.3217 50.4531 50.1532 49.9901 50.8699C49.6818 51.3659 49.2699 51.7938 48.7809 52.1261C48.2918 52.4584 47.7364 52.6877 47.1505 52.7992C46.4318 52.9382 45.7004 53.0056 44.9676 53.0001H38V38.003H45.4668C47.3489 38.0321 48.6834 38.5611 49.4718 39.6007C49.9543 40.2706 50.2022 41.0731 50.179 41.89C50.22 42.6853 49.9666 43.4685 49.4645 44.0984C49.136 44.4576 48.7352 44.7476 48.2867 44.9505C49.0179 45.1856 49.6466 45.652 50.0721 46.2749H50.075ZM41.5665 43.9145H44.8387C45.4085 43.9385 45.9741 43.8097 46.4734 43.5424C46.6908 43.3976 46.8639 43.1985 46.9744 42.9661C47.0848 42.7338 47.1285 42.4768 47.1007 42.2224C47.1331 41.9367 47.0701 41.6485 46.9209 41.4003C46.7717 41.152 46.5443 40.9568 46.2721 40.8434C45.679 40.67 45.0612 40.5894 44.442 40.6048H41.5665V43.9145ZM47.4163 48.2574C47.445 47.9236 47.3657 47.5893 47.1894 47.3013C47.013 47.0132 46.7484 46.7857 46.4324 46.6505C45.9402 46.4647 45.4141 46.3782 44.8863 46.3963H41.5665V50.3934H44.8336C45.3695 50.4195 45.9046 50.3295 46.4002 50.13C46.7427 49.9519 47.0225 49.6785 47.2034 49.3449C47.3844 49.0113 47.4582 48.6328 47.4155 48.2581L47.4163 48.2574ZM61.9012 45.8183C61.9895 46.5249 62.0213 47.2371 61.9963 47.9486H53.9322C53.9068 48.3915 54.0002 48.8333 54.2033 49.2308C54.4064 49.6282 54.7123 49.9679 55.091 50.2166C55.572 50.4974 56.1264 50.6375 56.6876 50.6199C57.1395 50.6545 57.5916 50.5556 57.9845 50.3362C58.3774 50.1168 58.6927 49.7872 58.8888 49.3907H61.8455C61.7123 50.1333 61.3357 50.8144 60.7716 51.3329C60.2337 51.8683 59.5835 52.2856 58.8651 52.5563C58.1466 52.827 57.3766 52.945 56.607 52.9022C55.1863 52.9191 53.8048 52.4505 52.7045 51.5785C51.5796 50.6966 51.0164 49.2622 51.015 47.2754C50.9608 46.4987 51.0679 45.7194 51.33 44.9837C51.592 44.2479 52.0037 43.5707 52.5406 42.9921C53.0605 42.4937 53.6804 42.1041 54.3619 41.8476C55.0434 41.5911 55.7719 41.4731 56.5024 41.5009C57.3976 41.4873 58.2856 41.6582 59.1077 42.0022C59.8884 42.3448 60.5517 42.897 61.0191 43.5936C61.4829 44.2608 61.7845 45.0215 61.9012 45.8183ZM58.9906 46.098C58.988 45.7788 58.918 45.4634 58.7849 45.1714C58.6519 44.8794 58.4585 44.6169 58.2168 44.4002C57.7394 44.0059 57.1276 43.7983 56.5009 43.8179C56.1845 43.7994 55.8676 43.8445 55.57 43.9505C55.2725 44.0564 55.0007 44.2209 54.7718 44.4336C54.3368 44.8935 54.066 45.4772 53.9995 46.098H58.9906Z" fill="#0067FF"/>
</g>
</g>
<rect x="22" y="18" width="54" height="54" rx="27" stroke="white" stroke-width="4"/>
</g>
<defs>
<filter id="filter0_d" x="0" y="0" width="98" height="98" filterUnits="userSpaceOnUse" color-interpolation-filters="sRGB">
<feFlood flood-opacity="0" result="BackgroundImageFix"/>
<feColorMatrix in="SourceAlpha" type="matrix" values="0 0 0 0 0 0 0 0 0 0 0 0 0 0 0 0 0 0 127 0"/>
<feOffset dy="4"/>
<feGaussianBlur stdDeviation="10"/>
<feColorMatrix type="matrix" values="0 0 0 0 0.241667 0 0 0 0 0.241667 0 0 0 0 0.241667 0 0 0 0.07 0"/>
<feBlend mode="normal" in2="BackgroundImageFix" result="effect1_dropShadow"/>
<feBlend mode="normal" in="SourceGraphic" in2="effect1_dropShadow" result="shape"/>
</filter>
<clipPath id="clip0">
<rect x="38" y="38" width="24" height="15" fill="white"/>
</clipPath>
</defs>
</svg>
