<svg width="88" height="88" viewBox="0 0 88 88" fill="none" xmlns="http://www.w3.org/2000/svg">
<g filter="url(#filter0_d)">
<g clip-path="url(#clip0)">
<rect x="24" y="20" width="40" height="40" rx="20" fill="#FFEEE3"/>
<path d="M47.468 41.093H41.532C41.2029 41.093 40.9391 41.36 40.9391 41.6859C40.9391 42.0119 41.206 42.2789 41.532 42.2789H47.4711C47.8002 42.2789 48.0641 42.0119 48.0641 41.6859C48.0641 41.36 47.7971 41.093 47.468 41.093ZM48.657 37.532H40.343C40.0139 37.532 39.75 37.799 39.75 38.125C39.75 38.451 40.017 38.718 40.343 38.718H48.657C48.9861 38.718 49.25 38.451 49.25 38.125C49.25 37.799 48.983 37.532 48.657 37.532ZM44.5 31C39.2533 31 35 34.7224 35 39.3141C35 41.9374 36.3908 44.2752 38.5641 45.7964V50L42.7242 47.476C43.3016 47.5722 43.8915 47.625 44.5 47.625C49.7467 47.625 54 43.9026 54 39.3109C54 34.7193 49.7467 31 44.5 31ZM44.5 46.4391C43.8077 46.4391 43.1371 46.3583 42.4944 46.2217L39.7003 47.9013L39.7376 45.1475C37.5954 43.8592 36.1891 41.7294 36.1891 39.3141C36.1891 35.3775 39.9083 32.1891 44.5 32.1891C49.0917 32.1891 52.8141 35.3775 52.8141 39.3141C52.8141 43.2507 49.0917 46.4391 44.5 46.4391Z" fill="#F5823C"/>
</g>
<rect x="22" y="18" width="44" height="44" rx="22" stroke="white" stroke-width="4"/>
</g>
<defs>
<filter id="filter0_d" x="0" y="0" width="88" height="88" filterUnits="userSpaceOnUse" color-interpolation-filters="sRGB">
<feFlood flood-opacity="0" result="BackgroundImageFix"/>
<feColorMatrix in="SourceAlpha" type="matrix" values="0 0 0 0 0 0 0 0 0 0 0 0 0 0 0 0 0 0 127 0"/>
<feOffset dy="4"/>
<feGaussianBlur stdDeviation="10"/>
<feColorMatrix type="matrix" values="0 0 0 0 0.241667 0 0 0 0 0.241667 0 0 0 0 0.241667 0 0 0 0.1 0"/>
<feBlend mode="normal" in2="BackgroundImageFix" result="effect1_dropShadow"/>
<feBlend mode="normal" in="SourceGraphic" in2="effect1_dropShadow" result="shape"/>
</filter>
<clipPath id="clip0">
<rect x="24" y="20" width="40" height="40" rx="20" fill="white"/>
</clipPath>
</defs>
</svg>
