<svg width="98" height="98" viewBox="0 0 98 98" fill="none" xmlns="http://www.w3.org/2000/svg">
<g filter="url(#filter0_d)">
<rect x="24" y="20" width="50" height="50" rx="25" fill="#FFE3ED"/>
<g clip-path="url(#clip0)">
<path opacity="0.85" d="M48.5 34C46.2255 34 44.0022 34.6744 42.111 35.938C40.2199 37.2017 38.7459 38.9977 37.8755 41.099C37.005 43.2003 36.7773 45.5125 37.2209 47.7433C37.6646 49.974 38.7598 52.0231 40.368 53.6315C41.9763 55.2398 44.0253 56.3351 46.256 56.7789C48.4868 57.2227 50.799 56.9951 52.9004 56.1248C55.0017 55.2545 56.7978 53.7806 58.0616 51.8896C59.3253 49.9985 59.9999 47.7752 60 45.5007C59.9968 42.4516 58.7842 39.5284 56.6282 37.3723C54.4723 35.2162 51.5491 34.0034 48.5 34V34ZM55.997 39.4245C57.33 41.0629 58.0858 43.0949 58.1476 45.2061C56.0173 44.7515 53.8173 44.7303 51.6786 45.1437C51.3323 44.3344 50.9739 43.5666 50.6126 42.834C52.5862 42.008 54.4065 40.8554 55.997 39.4245ZM54.6988 38.1077C53.238 39.4099 51.565 40.4525 49.7524 41.1902C48.7818 39.4066 47.6899 37.6919 46.4842 36.0581C47.9191 35.7513 49.4051 35.7765 50.8288 36.1317C52.2525 36.4869 53.5762 37.1628 54.6988 38.1077ZM44.6225 36.6624C45.869 38.3066 46.9934 40.0399 47.9867 41.8483C45.1131 42.747 42.1234 43.2203 39.1126 43.2533C39.4625 41.8051 40.1416 40.457 41.0972 39.3139C42.0528 38.1708 43.2592 37.2635 44.6225 36.6624ZM38.8567 45.105H38.9112C40.8746 45.0973 42.8335 44.9164 44.7651 44.5645C46.1553 44.3145 47.525 43.9613 48.8627 43.5078C49.1975 44.1745 49.5294 44.8778 49.852 45.6147C48.2458 46.1382 46.7244 46.8929 45.3357 47.8549C43.7611 48.944 42.3481 50.2498 41.1385 51.7339C39.657 49.995 38.8437 47.7851 38.8445 45.5007C38.8467 45.3681 38.851 45.2362 38.8567 45.105ZM42.4676 53.0293C43.6027 51.6125 44.9396 50.3698 46.4354 49.341C47.6984 48.4653 49.0847 47.7825 50.5488 47.3151C51.427 49.5681 52.0755 51.9041 52.4844 54.2874C50.862 55.026 49.0664 55.2996 47.2977 55.0774C45.529 54.8553 43.8568 54.1462 42.4676 53.0293ZM54.1891 53.2931C53.7721 51.1057 53.165 48.9589 52.3747 46.8771C54.2525 46.5706 56.1722 46.6354 58.025 47.0678C57.6111 49.5652 56.2338 51.8005 54.1891 53.2931Z" fill="#EC407A"/>
</g>
<rect x="22" y="18" width="54" height="54" rx="27" stroke="white" stroke-width="4"/>
</g>
<defs>
<filter id="filter0_d" x="0" y="0" width="98" height="98" filterUnits="userSpaceOnUse" color-interpolation-filters="sRGB">
<feFlood flood-opacity="0" result="BackgroundImageFix"/>
<feColorMatrix in="SourceAlpha" type="matrix" values="0 0 0 0 0 0 0 0 0 0 0 0 0 0 0 0 0 0 127 0"/>
<feOffset dy="4"/>
<feGaussianBlur stdDeviation="10"/>
<feColorMatrix type="matrix" values="0 0 0 0 0.241667 0 0 0 0 0.241667 0 0 0 0 0.241667 0 0 0 0.07 0"/>
<feBlend mode="normal" in2="BackgroundImageFix" result="effect1_dropShadow"/>
<feBlend mode="normal" in="SourceGraphic" in2="effect1_dropShadow" result="shape"/>
</filter>
<clipPath id="clip0">
<rect x="34" y="34" width="30" height="23" fill="white"/>
</clipPath>
</defs>
</svg>
