<svg width="20" height="16" viewBox="0 0 20 16" fill="none" xmlns="http://www.w3.org/2000/svg">
<g clip-path="url(#clip0)">
<path d="M12.0418 10.6077C11.7389 10.9096 11.2376 10.9096 10.9347 10.6077C10.6319 10.3058 10.6319 9.80613 10.9347 9.50424C11.7702 8.67145 11.7702 7.31817 10.9347 6.49579C10.6319 6.1939 10.6319 5.69422 10.9347 5.39234C11.0914 5.23619 11.2898 5.16332 11.4883 5.16332C11.6867 5.16332 11.8851 5.23619 12.0418 5.39234C13.4935 6.8289 13.4935 9.17113 12.0418 10.6077Z" fill="#00A3FF"/>
<path d="M14.3394 12.8979C14.0365 13.1997 13.5352 13.1997 13.2323 12.8979C12.9295 12.596 12.9295 12.0963 13.2323 11.7944C15.3316 9.70201 15.3316 6.29798 13.2323 4.20559C12.9295 3.9037 12.9295 3.40403 13.2323 3.10214C13.389 2.94599 13.5874 2.87312 13.7859 2.87312C13.9843 2.87312 14.1827 2.94599 14.3394 3.10214C17.0548 5.80871 17.0548 10.2017 14.3394 12.8979Z" fill="#00A3FF"/>
<path d="M16.9086 15.4587C16.6057 15.7606 16.1044 15.7606 15.8016 15.4587C15.4987 15.1568 15.4987 14.6571 15.8016 14.3553C17.5039 12.6584 18.4439 10.3995 18.4439 8.00522C18.4439 5.61095 17.5039 3.352 15.8016 1.65519C15.4987 1.3533 15.4987 0.853629 15.8016 0.551742C15.9582 0.395594 16.1566 0.322723 16.3551 0.322723C16.5535 0.322723 16.7519 0.395594 16.9086 0.551742C18.9034 2.54003 20.0104 5.19455 20.0104 8.00522C20 10.8159 18.9034 13.46 16.9086 15.4587Z" fill="#00A3FF"/>
<path d="M8.87728 15.9261C8.5953 16.051 8.27154 16.0094 8.04178 15.8116L3.06005 11.5436H0.78329C0.355091 11.5436 0 11.1896 0 10.7628V5.23516C0 4.80836 0.355091 4.45442 0.78329 4.45442H3.06005L8.04178 0.186369C8.18799 0.06145 8.36553 -0.00100899 8.55352 -0.00100899C8.66841 -0.00100899 8.77285 0.0198097 8.87728 0.0718594C9.15927 0.196778 9.33681 0.477845 9.33681 0.779733V15.2183C9.32637 15.5201 9.14882 15.8012 8.87728 15.9261ZM1.56658 9.98207H2.56919V6.01591H1.56658V9.98207ZM7.75979 2.48695L4.13577 5.5891V10.4089L7.77024 13.5214V2.48695H7.75979Z" fill="#00A3FF"/>
</g>
<defs>
<clipPath id="clip0">
<rect width="20" height="16" transform="matrix(1 0 0 -1 0 16)" fill="white"/>
</clipPath>
</defs>
</svg>
