<svg width="20" height="15" viewBox="0 0 20 15" fill="none" xmlns="http://www.w3.org/2000/svg">
<g clip-path="url(#clip0)">
<path d="M13.0781 6.61423L8.66015 4.21995C8.40625 4.08071 8.10547 4.08844 7.85547 4.23543C7.60547 4.38241 7.45703 4.64156 7.45703 4.92779V9.66993C7.45703 9.95616 7.60547 10.2114 7.85156 10.3584C7.98047 10.4358 8.125 10.4745 8.26953 10.4745C8.40234 10.4745 8.53125 10.4435 8.65234 10.3778L13.0703 8.02604C13.332 7.88679 13.4961 7.61604 13.4961 7.32207C13.5 7.0281 13.3398 6.75735 13.0781 6.61423ZM8.6289 9.07426V5.52733L11.9297 7.3182L8.6289 9.07426Z" fill="#00A3FF"/>
<path d="M19.8516 3.5392V3.53146C19.8359 3.37287 19.6641 1.95333 18.9688 1.23388C18.1641 0.382929 17.2539 0.282362 16.8164 0.232078C16.7812 0.22821 16.7461 0.224342 16.7188 0.220474L16.6797 0.216607C14.0352 0.0270758 10.043 0 10.0039 0H10H9.99609C9.95703 0 5.96484 0.0270758 3.29688 0.216607L3.26172 0.220474C3.23438 0.224342 3.20312 0.22821 3.16797 0.232078C2.73438 0.282362 1.83203 0.382929 1.02344 1.26483C0.359375 1.97653 0.167969 3.36514 0.148438 3.51986L0.144531 3.5392C0.140625 3.60495 0 5.18695 0 6.77282V8.25426C0 9.84012 0.140625 11.4183 0.148438 11.484V11.4956C0.164062 11.6542 0.332031 13.0428 1.02734 13.7661C1.78516 14.5861 2.74219 14.6944 3.25391 14.7524C3.33594 14.7602 3.40625 14.7679 3.45312 14.7795L3.5 14.7873C5.02734 14.9304 9.8125 15.0039 10.0156 15.0039H10.0234H10.0312C10.0703 15.0039 14.0625 14.9768 16.707 14.7873L16.7422 14.7834C16.7773 14.7795 16.8125 14.7757 16.8555 14.7718C17.2852 14.7254 18.1836 14.6325 18.9805 13.7661C19.6445 13.0544 19.8359 11.6658 19.8555 11.5111L19.8594 11.4917C19.8672 11.426 20.0078 9.84786 20.0078 8.26199V6.78056C20 5.18695 19.8594 3.60495 19.8516 3.5392ZM18.8281 8.25426C18.8281 9.72022 18.6992 11.2326 18.6875 11.3718C18.6367 11.7548 18.4375 12.6328 18.1133 12.9809C17.6133 13.5224 17.1055 13.5766 16.7305 13.6153C16.6836 13.6191 16.6445 13.623 16.6055 13.6307C14.0469 13.8125 10.207 13.8435 10.0273 13.8435C9.82813 13.8396 5.11328 13.77 3.63281 13.6346C3.55859 13.623 3.47656 13.6114 3.38672 13.6037C2.94922 13.5534 2.34766 13.4876 1.88672 12.9848L1.875 12.9732C1.55859 12.6444 1.35938 11.8244 1.3125 11.3834C1.30469 11.279 1.17188 9.75116 1.17188 8.26199V6.78056C1.17188 5.3146 1.30078 3.80609 1.3125 3.66297C1.37109 3.21429 1.57812 2.38654 1.88672 2.05389C2.39844 1.49304 2.94141 1.43115 3.30078 1.39247C3.33594 1.3886 3.36719 1.38473 3.39453 1.38087C5.98828 1.1952 9.85938 1.16813 9.99609 1.16813C10.1367 1.16813 14.0039 1.1952 16.5742 1.38087C16.6055 1.38473 16.6406 1.3886 16.6758 1.39247C17.043 1.43502 17.6016 1.49691 18.1094 2.03455L18.1133 2.03842C18.4297 2.3672 18.6289 3.20268 18.6758 3.65523C18.6836 3.7558 18.8164 5.28752 18.8164 6.77669V8.25426H18.8281Z" fill="#00A3FF"/>
</g>
<defs>
<clipPath id="clip0">
<rect width="20" height="15" fill="white"/>
</clipPath>
</defs>
</svg>
