<svg width="98" height="98" viewBox="0 0 98 98" fill="none" xmlns="http://www.w3.org/2000/svg">
<g filter="url(#filter0_d)">
<rect x="24" y="20" width="50" height="50" rx="25" fill="#FFF6D3"/>
<path d="M60.9297 40.0547C60.8734 38.775 60.6672 37.9031 60.3719 37.1438C60.0672 36.3375 59.5984 35.6156 58.9844 35.0156C58.3844 34.4062 57.6578 33.9328 56.8609 33.6328C56.0969 33.3375 55.225 33.1359 53.95 33.075C52.6656 33.0141 52.2578 33 49 33C45.7422 33 45.3344 33.0141 44.0547 33.0703C42.775 33.1266 41.9031 33.3328 41.1438 33.6281C40.3375 33.9328 39.6156 34.4016 39.0156 35.0156C38.4062 35.6156 37.9328 36.3422 37.6328 37.1391C37.3375 37.9031 37.1359 38.775 37.075 40.05C37.0141 41.3344 37 41.7422 37 45C37 48.2578 37.0141 48.6703 37.0703 49.95C37.1266 51.225 37.3328 52.1016 37.6281 52.8609C37.9281 53.6625 38.4016 54.3891 39.0109 54.9844C39.6109 55.5938 40.3375 56.0672 41.1344 56.3672C41.8984 56.6625 42.7703 56.8687 44.0453 56.925C45.325 56.9812 45.7328 56.9953 48.9906 56.9953C52.2484 56.9953 52.6562 56.9812 53.9359 56.925C55.2156 56.8687 56.0875 56.6625 56.8469 56.3672C58.4594 55.7437 59.7344 54.4688 60.3578 52.8563C60.6531 52.0922 60.8594 51.2203 60.9156 49.9453C60.9719 48.6656 60.9859 48.2578 60.9859 45C61 41.7422 60.9859 41.3344 60.9297 40.0547ZM58.7687 49.8469C58.7172 51.0187 58.5203 51.6516 58.3563 52.0734C57.9531 53.1187 57.1234 53.9484 56.0781 54.3516C55.6562 54.5156 55.0187 54.7125 53.8516 54.7641C52.5859 54.8203 52.2063 54.8344 49.0047 54.8344C45.7984 54.8344 45.4187 54.8203 44.1578 54.7641C42.9859 54.7125 42.3531 54.5156 41.9312 54.3516C41.4109 54.1594 40.9375 53.8547 40.5531 53.4516C40.1547 53.0625 39.85 52.5938 39.6531 52.0734C39.4891 51.6516 39.2922 51.0141 39.2406 49.8469C39.1844 48.5812 39.1703 48.2016 39.1703 45C39.1703 41.7937 39.1844 41.4141 39.2406 40.1531C39.2922 38.9813 39.4891 38.3484 39.6531 37.9266C39.8453 37.4062 40.1547 36.9328 40.5531 36.5484C40.9422 36.15 41.4109 35.8453 41.9312 35.6531C42.3531 35.4891 42.9906 35.2922 44.1578 35.2406C45.4234 35.1844 45.8031 35.1703 49.0047 35.1703C52.2109 35.1703 52.5906 35.1844 53.8516 35.2406C55.0234 35.2922 55.6562 35.4891 56.0781 35.6531C56.5984 35.8453 57.0719 36.15 57.4562 36.5484C57.8547 36.9375 58.1594 37.4062 58.3516 37.9266C58.5156 38.3484 58.7125 38.9859 58.7641 40.1531C58.8203 41.4188 58.8344 41.7984 58.8344 45C58.8391 48.2063 58.825 48.5859 58.7687 49.8469Z" fill="url(#paint0_linear)"/>
<path d="M49 38.8359C45.5969 38.8359 42.8359 41.5969 42.8359 45C42.8359 48.4031 45.5969 51.1641 49 51.1641C52.4031 51.1641 55.1641 48.4031 55.1641 45C55.1641 41.5969 52.4031 38.8359 49 38.8359ZM49 48.9984C46.7922 48.9984 45.0016 47.2078 45.0016 45C45.0016 42.7922 46.7922 41.0016 49 41.0016C51.2078 41.0016 52.9984 42.7922 52.9984 45C52.9984 47.2078 51.2078 48.9984 49 48.9984Z" fill="url(#paint1_linear)"/>
<path d="M56.8469 38.5922C56.8469 39.3891 56.2 40.0313 55.4078 40.0313C54.6109 40.0313 53.9688 39.3844 53.9688 38.5922C53.9688 37.7953 54.6156 37.1531 55.4078 37.1531C56.2 37.1531 56.8469 37.8 56.8469 38.5922Z" fill="url(#paint2_linear)"/>
<rect x="22" y="18" width="54" height="54" rx="27" stroke="white" stroke-width="4"/>
</g>
<defs>
<filter id="filter0_d" x="0" y="0" width="98" height="98" filterUnits="userSpaceOnUse" color-interpolation-filters="sRGB">
<feFlood flood-opacity="0" result="BackgroundImageFix"/>
<feColorMatrix in="SourceAlpha" type="matrix" values="0 0 0 0 0 0 0 0 0 0 0 0 0 0 0 0 0 0 127 0"/>
<feOffset dy="4"/>
<feGaussianBlur stdDeviation="10"/>
<feColorMatrix type="matrix" values="0 0 0 0 0.241667 0 0 0 0 0.241667 0 0 0 0 0.241667 0 0 0 0.07 0"/>
<feBlend mode="normal" in2="BackgroundImageFix" result="effect1_dropShadow"/>
<feBlend mode="normal" in="SourceGraphic" in2="effect1_dropShadow" result="shape"/>
</filter>
<linearGradient id="paint0_linear" x1="39.0141" y1="54.9858" x2="58.9859" y2="35.0139" gradientUnits="userSpaceOnUse">
<stop stop-color="#FFD600"/>
<stop offset="0.5" stop-color="#FF0100"/>
<stop offset="1" stop-color="#D800B9"/>
</linearGradient>
<linearGradient id="paint1_linear" x1="44.6426" y1="49.3572" x2="53.3572" y2="40.6427" gradientUnits="userSpaceOnUse">
<stop stop-color="#FF6400"/>
<stop offset="0.5" stop-color="#FF0100"/>
<stop offset="1" stop-color="#FD0056"/>
</linearGradient>
<linearGradient id="paint2_linear" x1="54.3872" y1="39.6126" x2="56.4238" y2="37.5761" gradientUnits="userSpaceOnUse">
<stop stop-color="#F30072"/>
<stop offset="1" stop-color="#E50097"/>
</linearGradient>
</defs>
</svg>
