<svg width="43" height="27" viewBox="0 0 43 27" fill="none" xmlns="http://www.w3.org/2000/svg">
<path d="M21.8061 18.9708C21.8061 15.7108 20.2552 13.3016 17.0525 12.3993C18.138 11.9812 19.0649 11.2331 19.7028 10.2604C20.3407 9.28767 20.6573 8.13934 20.6081 6.97715C20.6081 1.80581 16.7415 0.544922 12.2808 0.544922H0V26.5085H12.6251C17.3586 26.5085 21.8061 24.2461 21.8061 18.9708ZM5.72262 4.97614H11.0952C13.1611 4.97614 15.02 5.55508 15.02 7.94332C15.02 10.1484 13.5741 11.0354 11.5273 11.0354H5.72262V4.97614ZM5.72262 22.0992V14.9459H11.9631C14.484 14.9459 16.0777 15.9951 16.0777 18.6532C16.0777 21.2761 14.1702 22.0963 11.8449 22.0963L5.72262 22.0992Z" fill="#005BD1"/>
<path d="M33.153 26.999C37.6577 26.999 40.5753 24.9761 41.9792 20.6755H37.404C36.9119 22.2807 34.8832 23.1286 33.3104 23.1286C30.2746 23.1286 28.6808 21.3556 28.6808 18.3436H42.2873C42.3102 18.0384 42.3312 17.7084 42.3312 17.3784C42.3312 11.8169 39.0683 7.17969 33.1521 7.17969C27.4037 7.17969 23.5018 11.4869 23.5018 17.1294C23.5009 22.9827 27.1986 26.999 33.153 26.999ZM32.9909 11.0787C35.5928 11.0787 36.9014 12.6047 37.1198 15.095H28.6903C28.6931 14.5441 28.8085 13.9996 29.0292 13.4949C29.2499 12.9901 29.5715 12.5358 29.9741 12.1597C30.3766 11.7836 30.8518 11.4938 31.3704 11.3079C31.889 11.122 32.4401 11.044 32.9899 11.0787H32.9909Z" fill="#005BD1"/>
<path d="M27.6334 1.91016H38.1955V4.46722H27.6334V1.91016Z" fill="#005BD1"/>
</svg>
