<svg width="31" height="32" viewBox="0 0 31 32" fill="none" xmlns="http://www.w3.org/2000/svg">
<path d="M21.1416 30.9092C21.168 30.9011 21.1924 30.8901 21.2177 30.881C37.0157 24.4065 32.646 0 15.5105 0C13.2308 0.000254234 10.9792 0.518768 8.91588 1.51864C6.85259 2.51852 5.02832 3.97518 3.57288 5.78496C2.11745 7.59474 1.06663 9.71316 0.495216 11.9895C-0.076203 14.2658 -0.154179 16.644 0.266837 18.9549C0.687852 21.2658 1.59751 23.4526 2.93108 25.3597C4.26464 27.2668 5.98934 28.8472 7.98243 29.9886C9.97552 31.13 12.188 31.8042 14.4625 31.9633C16.7369 32.1224 19.0174 31.7625 21.1416 30.9092ZM6.81976 26.7592C7.92122 24.8473 11.4871 19.4596 17.5739 17.602C18.9913 21.3269 19.7544 25.2822 19.8275 29.283C17.6318 30.0504 15.2814 30.2212 13.003 29.7792C10.7246 29.3371 8.5951 28.2971 6.81976 26.7592ZM21.7348 28.4438C21.5917 24.5807 20.8448 20.7667 19.5231 17.1492C22.6963 16.7016 25.9278 17.1567 28.8684 18.4654C28.4994 20.5809 27.6642 22.5808 26.4274 24.3108C25.1906 26.0409 23.5851 27.4548 21.7348 28.4438ZM29.0704 16.3965C25.8075 15.0405 22.2414 14.6549 18.7768 15.2835C18.3173 14.2158 17.8353 13.1904 17.3241 12.2455C20.4525 11.0338 23.3236 9.20825 25.7787 6.86994C28.0032 9.50264 29.1795 12.906 29.0714 16.3965H29.0704ZM24.4021 5.44503C22.0393 7.64022 19.2905 9.34816 16.3046 10.4765C14.6388 7.7494 12.6385 5.25565 10.3534 3.05711C12.6782 2.06534 15.2255 1.76339 17.7078 2.18532C20.1901 2.60726 22.5088 3.73628 24.4021 5.44503ZM8.49975 4.03623C10.7603 6.1368 12.7384 8.53963 14.3817 11.1809C10.4403 12.4383 6.34315 13.0999 2.21783 13.1452C2.6041 11.2628 3.36152 9.48245 4.44303 7.91476C5.52454 6.34707 6.90703 5.02552 8.50463 4.0322L8.49975 4.03623ZM1.97197 15.1547C6.5424 15.1367 11.0831 14.3952 15.4353 12.956C15.9231 13.8355 16.3836 14.7925 16.8265 15.7877C10.7027 17.8003 6.87537 22.9927 5.41196 25.3374C4.20641 23.9644 3.28068 22.3555 2.68974 20.6062C2.0988 18.857 1.85471 17.0031 1.97197 15.1547Z" fill="#005BD1"/>
</svg>
