<svg width="12" height="12" viewBox="0 0 12 12" fill="none" xmlns="http://www.w3.org/2000/svg">
<path d="M6.02344 4.92188C5.44186 4.92188 4.96875 5.39498 4.96875 5.97656C4.96875 6.55814 5.44186 7.03125 6.02344 7.03125C6.60502 7.03125 7.07812 6.55814 7.07812 5.97656C7.07812 5.39498 6.60502 4.92188 6.02344 4.92188Z" fill="#005BD1"/>
<path d="M5.97656 0C2.68102 0 0 2.68102 0 5.97656C0 9.27211 2.68102 12 5.97656 12C9.27211 12 12 9.27211 12 5.97656C12 2.68102 9.27211 0 5.97656 0ZM8.48438 7.73438C8.00923 7.73438 7.59019 7.49623 7.33554 7.13447C7.0132 7.49932 6.54736 7.73438 6.02344 7.73438C5.05423 7.73438 4.26562 6.94577 4.26562 5.97656C4.26562 5.00735 5.05423 4.21875 6.02344 4.21875C6.42066 4.21875 6.78342 4.35621 7.07812 4.57929V4.57031C7.07812 4.37599 7.23537 4.21875 7.42969 4.21875C7.62401 4.21875 7.78125 4.37599 7.78125 4.57031C7.78125 5.35219 7.78125 5.5459 7.78125 6.32812C7.78125 6.71573 8.09677 7.03125 8.48438 7.03125C8.87198 7.03125 9.1875 6.71573 9.1875 6.32812C9.1875 3.97521 7.6305 2.8125 6.02344 2.8125C4.27868 2.8125 2.85938 4.2318 2.85938 5.97656C2.85938 7.72132 4.27868 9.14062 6.02344 9.14062C6.72656 9.14062 7.39158 8.91541 7.94674 8.48899C8.31757 8.20591 8.74221 8.76473 8.3752 9.04655C7.69577 9.56805 6.88277 9.84375 6.02344 9.84375C3.89107 9.84375 2.15625 8.10893 2.15625 5.97656C2.15625 3.8442 3.89107 2.10938 6.02344 2.10938C7.96634 2.10938 9.89062 3.54223 9.89062 6.32812C9.89062 7.1037 9.25994 7.73438 8.48438 7.73438Z" fill="#005BD1"/>
</svg>
