<svg width="19" height="16" viewBox="0 0 19 16" fill="none" xmlns="http://www.w3.org/2000/svg">
<path d="M9.06991 0C7.49486 0.0070813 5.94858 0.413625 4.58194 1.17997C3.2153 1.94631 2.07497 3.04627 1.27222 4.37254C0.469472 5.6988 0.0317141 7.20608 0.00165933 8.74729C-0.0283954 10.2885 0.35028 11.811 1.10074 13.1663V10.809C1.10438 10.3778 1.25769 9.96057 1.53552 9.62583C1.51246 9.39065 1.50093 9.15425 1.50093 8.91663C1.50482 6.9495 2.30222 5.06343 3.71968 3.66873C5.13714 2.27403 7.05998 1.48353 9.06991 1.46918C10.1341 1.47314 11.1857 1.69571 12.1565 2.12247C13.1272 2.54923 13.9957 3.17069 14.7056 3.94664C15.4155 4.72258 15.9511 5.63574 16.2777 6.62703C16.6043 7.61832 16.7146 8.66567 16.6015 9.70132C16.8438 10.0222 16.9758 10.4101 16.9783 10.809V13.2862C17.7556 11.9317 18.1579 10.402 18.1454 8.8485C18.1328 7.29504 17.7059 5.77173 16.9069 4.42938C16.1079 3.08704 14.9645 1.97222 13.5899 1.19532C12.2153 0.418423 10.6572 0.00638237 9.06991 0Z" fill="white"/>
<path d="M1.66029 10.4289C1.62144 10.5522 1.60159 10.6805 1.60138 10.8096V14.1391C1.60138 15.1668 2.85197 16 4.39475 16H5.57054V8.94922H4.39475C3.04786 8.94922 1.92396 9.58382 1.66029 10.4289Z" fill="white"/>
<path d="M16.4776 14.1392V10.8096C16.4773 10.7302 16.4694 10.651 16.4542 10.573C16.2794 9.65796 15.1064 8.94922 13.6842 8.94922H12.5079V16.0004H13.6842C15.2275 16 16.4776 15.1668 16.4776 14.1392Z" fill="white"/>
</svg>
