<svg width="21" height="30" viewBox="0 0 21 30" fill="none" xmlns="http://www.w3.org/2000/svg">
<path d="M17.6676 2.35776H15.1019L15.9613 3.05597C16.3273 3.36705 16.6539 3.72175 16.9338 4.11217C17.2567 4.56495 17.5199 5.05752 17.7168 5.57766C17.9403 6.18534 18.0496 6.82911 18.0392 7.47652C18.0505 8.09629 17.9469 8.71278 17.7335 9.29478C17.5424 9.80715 17.2798 10.2899 16.9537 10.7289C16.6347 11.1546 16.2633 11.5383 15.8483 11.8709L14.5628 12.8538C14.299 13.1155 14.0394 13.3856 13.7809 13.6714C13.5203 13.9663 13.3828 14.35 13.3967 14.7433C13.3891 14.9362 13.4259 15.1283 13.5041 15.3049C13.5823 15.4814 13.6999 15.6377 13.8479 15.7618C14.1096 15.9837 14.3859 16.1879 14.6748 16.3731L16.1571 17.4461C16.5653 17.7978 16.9484 18.1516 17.3169 18.5106C17.6813 18.8659 18.0121 19.2542 18.305 19.6705C18.5968 20.0946 18.8259 20.5586 18.9855 21.048C19.1561 21.6079 19.2373 22.1911 19.2262 22.7763C19.2235 23.7017 18.9942 24.6124 18.5584 25.4288C18.0724 26.3363 17.3936 27.1263 16.5695 27.7432C15.5881 28.4797 14.4832 29.0352 13.3067 29.3835C11.8487 29.8157 10.3333 30.0229 8.81284 29.998C7.50361 30.0181 6.19765 29.8614 4.93034 29.5322C3.95118 29.2817 3.02071 28.8696 2.1773 28.3127C1.50279 27.8699 0.941084 27.2755 0.536998 26.5771C0.185636 25.9515 0.000737432 25.2461 0 24.5286C0.0353703 23.7057 0.26417 22.9028 0.667846 22.1848C1.23906 21.1911 2.09274 20.3895 3.12045 19.8819C3.76371 19.5261 4.44218 19.2381 5.14493 19.0225C5.84385 18.8055 6.55565 18.6325 7.27617 18.5044C7.9817 18.3822 8.65059 18.2946 9.28285 18.2416C9.91092 18.1903 10.4605 18.1505 10.9106 18.1244C10.6281 17.7723 10.3659 17.4042 10.1255 17.0221C9.8705 16.5673 9.74725 16.0504 9.7696 15.5294C9.76208 15.254 9.80282 14.9795 9.88998 14.7181C9.96849 14.4983 10.0564 14.2795 10.158 14.0597C9.9486 14.0848 9.73924 14.1047 9.51942 14.1162C9.2996 14.1278 9.07349 14.1382 8.86099 14.1382C7.86698 14.1574 6.87901 13.9795 5.95409 13.6148C5.1609 13.3005 4.4332 12.8411 3.80819 12.2603C3.23528 11.7213 2.7854 11.065 2.48924 10.3363C2.19805 9.63997 2.04756 8.89287 2.04646 8.13808C2.05981 7.20967 2.27709 6.29555 2.6829 5.46042C3.14005 4.5195 3.80083 3.69209 4.61735 3.03817C5.69542 2.17771 6.96331 1.587 8.31562 1.31517C9.4964 1.08534 10.6959 0.964797 11.8988 0.955078L20.3075 0.955078L17.6676 2.35776ZM16.6731 24.225C16.679 23.7817 16.5983 23.3415 16.4355 22.9291C16.2614 22.5139 16.0186 22.131 15.7174 21.7965C15.3106 21.3587 14.8539 20.9701 14.3566 20.6387L12.3614 19.2455C12.2237 19.1972 12.0792 19.1714 11.9333 19.1691H11.4298C11.3251 19.1691 11.1294 19.1774 10.8373 19.1889C10.5453 19.2005 10.1946 19.2319 9.7853 19.2748C9.37601 19.3177 8.94055 19.3795 8.47159 19.459C8.01897 19.5345 7.57175 19.6394 7.13276 19.773C6.89409 19.8505 6.58529 19.9709 6.19799 20.1321C5.78092 20.3081 5.39081 20.5421 5.0392 20.8272C4.64072 21.1464 4.30495 21.5368 4.04895 21.9786C3.75576 22.4903 3.61078 23.0735 3.63023 23.6629C3.62186 24.3147 3.79161 24.9564 4.12117 25.5188C4.48667 26.1067 4.97698 26.607 5.55736 26.9843C6.24705 27.4388 7.01296 27.7654 7.8184 27.9484C8.78466 28.1775 9.77525 28.2878 10.7682 28.2771C12.3281 28.3894 13.8819 27.9887 15.193 27.1361C15.6563 26.8063 16.0329 26.3693 16.2907 25.8624C16.5484 25.3555 16.6796 24.7937 16.6731 24.225ZM13.4176 11.962C13.8427 11.5758 14.1378 11.0675 14.2624 10.5069C14.3529 10.0813 14.4033 9.64816 14.4131 9.21313C14.4012 8.45702 14.2957 7.70531 14.0991 6.97511C13.8955 6.18234 13.5781 5.42322 13.157 4.72139C12.7514 4.0411 12.2212 3.44341 11.5941 2.95966C10.9713 2.48255 10.2055 2.22987 9.42102 2.24262C8.87805 2.24633 8.34235 2.36775 7.85085 2.59852C7.36947 2.81166 6.9348 3.11756 6.57169 3.49875C6.23539 3.87656 5.99232 4.32793 5.86197 4.81665C5.73943 5.29942 5.67754 5.79558 5.67774 6.29366C5.69057 7.00788 5.79005 7.7179 5.97398 8.40815C6.16982 9.18421 6.48368 9.9256 6.90456 10.6064C7.31528 11.2748 7.8496 11.8589 8.47892 12.3273C9.1309 12.8009 9.92081 13.0463 10.7264 13.0255C11.2385 13.0269 11.746 12.928 12.2201 12.7345C12.6686 12.563 13.0765 12.2999 13.4176 11.962Z" fill="#005BD1"/>
</svg>
