<svg width="22" height="18" viewBox="0 0 22 18" fill="none" xmlns="http://www.w3.org/2000/svg">
<path d="M19.8 0H2.2C1.61843 0.00290788 1.06168 0.235976 0.651471 0.648242C0.241267 1.06051 0.0109926 1.61842 0.0109999 2.2L0 15.4C0.0015835 15.983 0.233877 16.5416 0.646114 16.9539C1.05835 17.3661 1.61701 17.5984 2.2 17.6H19.8C20.383 17.5984 20.9416 17.3661 21.3539 16.9539C21.7661 16.5416 21.9984 15.983 22 15.4V2.2C21.9984 1.61701 21.7661 1.05835 21.3539 0.646114C20.9416 0.233877 20.383 0.0015835 19.8 0ZM19.8 4.4L11 9.9L2.2 4.4V2.2L11 7.7L19.8 2.2V4.4Z" fill="white"/>
</svg>
