<svg width="31" height="31" viewBox="0 0 31 31" fill="none" xmlns="http://www.w3.org/2000/svg">
<path d="M22.608 0H8.39105C6.16627 0.00270787 4.03341 0.887759 2.46034 2.461C0.887276 4.03424 0.00246129 6.1672 0 8.39198L0 22.609C0.00270787 24.8337 0.887759 26.9666 2.461 28.5397C4.03424 30.1127 6.1672 30.9975 8.39198 31H22.608C24.8326 30.9973 26.9654 30.1124 28.5384 28.5393C30.1114 26.9663 30.9964 24.8336 30.9991 22.609V8.39198C30.9966 6.1672 30.1118 4.03424 28.5387 2.461C26.9657 0.887759 24.8328 0.00270787 22.608 0V0ZM29.1826 22.609C29.1807 24.352 28.4873 26.023 27.2548 27.2554C26.0222 28.4878 24.351 29.1809 22.608 29.1827H8.39105C6.64804 29.1809 4.97689 28.4878 3.74431 27.2554C2.51173 26.023 1.81839 24.352 1.81642 22.609V8.39198C1.81814 6.64881 2.51138 4.97752 3.74398 3.74492C4.97659 2.51231 6.64788 1.81907 8.39105 1.81735H22.608C24.351 1.81932 26.0221 2.51266 27.2545 3.74524C28.4869 4.97783 29.18 6.64897 29.1817 8.39198L29.1826 22.609Z" fill="#005BD1"/>
<path d="M15.4996 7.01758C13.823 7.01758 12.1842 7.51472 10.7902 8.44615C9.39624 9.37757 8.30977 10.7014 7.6682 12.2503C7.02662 13.7992 6.85876 15.5036 7.18583 17.1479C7.5129 18.7922 8.32022 20.3026 9.5057 21.4881C10.6912 22.6735 12.2016 23.4809 13.8459 23.8079C15.4902 24.135 17.1945 23.9671 18.7434 23.3256C20.2923 22.684 21.6162 21.5975 22.5476 20.2035C23.479 18.8096 23.9762 17.1707 23.9762 15.4942C23.9737 13.2468 23.0799 11.0922 21.4907 9.50304C19.9016 7.9139 17.7469 7.02004 15.4996 7.01758ZM15.4996 22.1535C14.1825 22.1535 12.895 21.7629 11.7999 21.0312C10.7048 20.2994 9.85123 19.2594 9.34721 18.0426C8.84318 16.8258 8.71131 15.4868 8.96826 14.195C9.22521 12.9033 9.85944 11.7167 10.7908 10.7854C11.7221 9.85407 12.9086 9.21983 14.2004 8.96288C15.4922 8.70593 16.8311 8.83781 18.048 9.34183C19.2648 9.84586 20.3048 10.6994 21.0365 11.7945C21.7683 12.8896 22.1588 14.1771 22.1588 15.4942C22.1578 17.2604 21.4561 18.954 20.2075 20.2032C18.959 21.4525 17.2657 22.1552 15.4996 22.1572V22.1535Z" fill="#005BD1"/>
<path d="M24.179 4.01367C23.6836 4.01367 23.1994 4.16057 22.7875 4.43578C22.3756 4.711 22.0546 5.10217 21.865 5.55984C21.6754 6.01751 21.6258 6.52111 21.7224 7.00697C21.8191 7.49283 22.0576 7.93912 22.4079 8.2894C22.7582 8.63968 23.2045 8.87823 23.6903 8.97487C24.1762 9.07152 24.6798 9.02192 25.1375 8.83235C25.5951 8.64277 25.9863 8.32174 26.2615 7.90985C26.5367 7.49796 26.6836 7.01371 26.6836 6.51833C26.6819 5.85458 26.4175 5.21851 25.9482 4.74917C25.4788 4.27983 24.8427 4.01539 24.179 4.01367ZM24.179 7.20565C24.0431 7.20565 23.9101 7.16534 23.7971 7.08981C23.6841 7.01429 23.596 6.90695 23.544 6.78136C23.4919 6.65577 23.4783 6.51757 23.5049 6.38425C23.5314 6.25092 23.5969 6.12845 23.693 6.03232C23.7891 5.9362 23.9116 5.87074 24.0449 5.84422C24.1782 5.8177 24.3164 5.83131 24.442 5.88333C24.5676 5.93535 24.6749 6.02345 24.7505 6.13648C24.826 6.24951 24.8663 6.38239 24.8663 6.51833C24.866 6.70054 24.7936 6.87522 24.6647 7.00407C24.5359 7.13291 24.3612 7.20541 24.179 7.20565Z" fill="#005BD1"/>
</svg>
