<svg width="22" height="17" viewBox="0 0 22 17" fill="none" xmlns="http://www.w3.org/2000/svg">
<path d="M21.6206 0H0.379366C0.278752 0 0.182259 0.0389458 0.111114 0.10827C0.0399688 0.177594 0 0.271617 0 0.369656L0 16.6303C0 16.7284 0.0399688 16.8224 0.111114 16.8917C0.182259 16.9611 0.278752 17 0.379366 17H21.6206C21.721 17 21.8172 16.9613 21.8883 16.8923C21.9594 16.8233 21.9996 16.7297 22 16.6319V0.369656C22 0.271617 21.96 0.177594 21.8889 0.10827C21.8177 0.0389458 21.7212 0 21.6206 0ZM3.79312 16.2607H0.758732V12.9359H3.79312V16.2607ZM3.79312 12.195H0.758732V8.8707H3.79312V12.195ZM3.79312 8.1293H0.758732V4.80501H3.79312V8.1293ZM3.79312 4.0636H0.758732V0.739312H3.79312V4.0636ZM13.8589 8.81057L9.68644 11.3982C9.62896 11.4337 9.56271 11.4536 9.49465 11.4556C9.42658 11.4576 9.35922 11.4418 9.29961 11.4097C9.24001 11.3776 9.19037 11.3305 9.1559 11.2732C9.12143 11.216 9.1034 11.1508 9.10371 11.0845V5.90822C9.10334 5.84179 9.12135 5.77649 9.15585 5.71919C9.19034 5.66189 9.24005 5.61471 9.29974 5.5826C9.35943 5.5505 9.42689 5.53466 9.49504 5.53676C9.56318 5.53886 9.62948 5.55881 9.68698 5.59451L13.8595 8.18158C13.9132 8.21506 13.9574 8.26117 13.988 8.31568C14.0187 8.37018 14.0347 8.43132 14.0347 8.49346C14.0347 8.5556 14.0187 8.61675 13.988 8.67125C13.9574 8.72576 13.9132 8.77187 13.8595 8.80535L13.8589 8.81057ZM21.2413 16.2607H18.2069V12.9359H21.2413V16.2607ZM21.2413 12.195H18.2069V8.8707H21.2413V12.195ZM21.2413 8.1293H18.2069V4.80501H21.2413V8.1293ZM21.2413 4.0636H18.2069V0.739312H21.2413V4.0636Z" fill="white"/>
</svg>
