<svg width="17" height="17" viewBox="0 0 17 17" fill="none" xmlns="http://www.w3.org/2000/svg">
<path d="M8.5 17C13.1944 17 17 13.1944 17 8.5C17 3.80558 13.1944 0 8.5 0C3.80558 0 0 3.80558 0 8.5C0 13.1944 3.80558 17 8.5 17Z" fill="#005BD1"/>
<path d="M13.7435 4.25001C13.5948 4.24944 13.4474 4.27903 13.3099 4.33708C13.1724 4.39512 13.0475 4.48048 12.9423 4.58823L7.71196 9.94806L5.12061 7.29258C4.90828 7.07495 4.62027 6.95266 4.31996 6.95262C4.01964 6.95259 3.73161 7.07482 3.51924 7.2924C3.30686 7.50999 3.18753 7.80512 3.1875 8.11286C3.18747 8.42061 3.30674 8.71576 3.51907 8.9334L6.91153 12.4098C7.01668 12.5177 7.14153 12.6032 7.27896 12.6616C7.41639 12.72 7.5637 12.75 7.71247 12.75C7.86124 12.75 8.00855 12.72 8.14598 12.6616C8.28341 12.6032 8.40826 12.5177 8.51341 12.4098L14.5446 6.2294C14.7025 6.06705 14.81 5.86037 14.8535 5.63547C14.8969 5.41056 14.8743 5.17752 14.7886 4.96574C14.7029 4.75397 14.5579 4.57296 14.3719 4.44558C14.1859 4.31819 13.9672 4.25014 13.7435 4.25001Z" fill="#201F1F"/>
</svg>
