<svg width="30" height="31" viewBox="0 0 30 31" fill="none" xmlns="http://www.w3.org/2000/svg">
<path d="M6.89962 10.0449H0.945219C0.882456 10.0449 0.820307 10.0573 0.762322 10.0813C0.704336 10.1053 0.651649 10.1405 0.607269 10.1849C0.562889 10.2293 0.527684 10.282 0.503666 10.34C0.479647 10.3979 0.467285 10.4601 0.467285 10.5229V29.6509C0.467285 29.7777 0.517639 29.8992 0.607269 29.9889C0.696899 30.0785 0.818463 30.1288 0.945219 30.1288H6.89962C7.02637 30.1288 7.14794 30.0785 7.23757 29.9889C7.3272 29.8992 7.37755 29.7777 7.37755 29.6509V10.5229C7.37755 10.4601 7.36519 10.3979 7.34117 10.34C7.31715 10.282 7.28195 10.2293 7.23757 10.1849C7.19319 10.1405 7.1405 10.1053 7.08251 10.0813C7.02453 10.0573 6.96238 10.0449 6.89962 10.0449Z" fill="#005BD1"/>
<path d="M3.92505 0.535156C3.14875 0.535156 2.38988 0.765356 1.74441 1.19665C1.09894 1.62794 0.595856 2.24094 0.298778 2.95815C0.00170069 3.67536 -0.0760284 4.46456 0.0754204 5.22594C0.226869 5.98733 0.600694 6.6867 1.14962 7.23563C1.69855 7.78456 2.39793 8.15838 3.15931 8.30983C3.9207 8.46128 4.70989 8.38355 5.4271 8.08647C6.14431 7.7894 6.75732 7.28631 7.18861 6.64084C7.6199 5.99537 7.8501 5.23651 7.8501 4.4602C7.8484 3.41974 7.43433 2.42237 6.6986 1.68665C5.96288 0.950928 4.96552 0.536853 3.92505 0.535156Z" fill="#005BD1"/>
<path d="M22.048 9.56784C21.0709 9.54806 20.1006 9.73327 19.1995 10.1115C18.2984 10.4898 17.4866 11.0527 16.8164 11.764V10.5216C16.8164 10.3948 16.766 10.2732 16.6764 10.1836C16.5868 10.094 16.4652 10.0436 16.3384 10.0436H10.6364C10.5096 10.0436 10.3881 10.094 10.2984 10.1836C10.2088 10.2732 10.1584 10.3948 10.1584 10.5216V29.6496C10.1584 29.7764 10.2088 29.8979 10.2984 29.9876C10.3881 30.0772 10.5096 30.1276 10.6364 30.1276H16.5779C16.7047 30.1276 16.8263 30.0772 16.9159 29.9876C17.0055 29.8979 17.0559 29.7764 17.0559 29.6496V20.1861C17.0559 16.9967 17.9219 15.7542 20.1448 15.7542C22.5655 15.7542 22.7579 17.7462 22.7579 20.3518V29.6539C22.7579 29.7807 22.8083 29.9022 22.8979 29.9918C22.9876 30.0815 23.1091 30.1318 23.2359 30.1318H29.1796C29.3063 30.1318 29.4279 30.0815 29.5175 29.9918C29.6072 29.9022 29.6575 29.7807 29.6575 29.6539V19.1575C29.6554 14.4156 28.7508 9.56784 22.048 9.56784Z" fill="#005BD1"/>
</svg>
